<svg width="100" height="100" viewBox="0 0 100 100" fill="none" xmlns="http://www.w3.org/2000/svg">
<g clip-path="url(#clip0_1694_3961)">
<path d="M100 50C100.009 56.7685 98.6389 63.4678 95.9734 69.6893L95.8077 70.071C91.2989 80.3282 83.4808 88.7773 73.6036 94.0671C63.7264 99.3569 52.3607 101.182 41.324 99.25C41.0237 99.1967 40.7239 99.1415 40.4246 99.0843C37.3318 98.4847 34.3033 97.5917 31.3802 96.4171C30.9053 96.2263 30.4339 96.0286 29.966 95.8239C29.6464 95.6849 29.3269 95.5414 29.0103 95.3935C20.3505 91.3799 13.0185 84.9743 7.87859 76.9317C2.73868 68.8891 0.00508381 59.5447 0 50C0 22.3861 22.3861 0 50 0C77.6139 0 100 22.3861 100 50Z" fill="#246BFD"/>
<path opacity="0.2" d="M41.324 99.2499C41.0237 99.1967 40.7239 99.1414 40.4245 99.0842C40.2293 93.4171 39.5592 81.7854 37.2737 69.6035C36.0237 62.9363 34.2884 56.102 31.8816 49.9926C31.0571 47.8786 30.1153 45.8123 29.0606 43.8032C26.6287 39.21 23.679 35.3431 20.1021 32.7233L20.6287 32.0044C23.6035 34.1849 26.2771 37.246 28.6494 41.1878C29.3609 42.3683 30.0444 43.6277 30.6997 44.9659C31.4024 46.3979 32.0725 47.9181 32.7101 49.5266C33.1169 50.5502 33.5099 51.6094 33.889 52.7041C35.5399 57.457 36.9433 62.8801 38.0991 68.9733C38.355 70.3195 38.5986 71.6987 38.8299 73.1109C40.6213 84.0532 41.1612 94.17 41.324 99.2499Z" fill="#212121"/>
<path opacity="0.2" d="M29.966 95.8239C29.6465 95.6849 29.327 95.5414 29.0104 95.3934C28.7012 92.0354 28.1332 87.8698 27.0947 83.9156C26.6399 82.1397 26.056 80.3994 25.3477 78.7085C24.1628 75.9349 22.6287 73.5769 20.645 72.1227L21.1716 71.4053C23.2486 72.926 24.8506 75.3298 26.0888 78.142C27.4838 81.3106 28.4143 84.9985 29.0341 88.5221C29.4941 91.139 29.7841 93.6671 29.966 95.8239Z" fill="#212121"/>
<path opacity="0.2" d="M15.1275 32.7027C17.5857 32.7027 19.5785 30.71 19.5785 28.2518C19.5785 25.7936 17.5857 23.8008 15.1275 23.8008C12.6693 23.8008 10.6765 25.7936 10.6765 28.2518C10.6765 30.71 12.6693 32.7027 15.1275 32.7027Z" fill="#212121"/>
<path opacity="0.2" d="M16.5608 71.0177C19.019 71.0177 21.0118 69.0249 21.0118 66.5667C21.0118 64.1085 19.019 62.1157 16.5608 62.1157C14.1026 62.1157 12.1099 64.1085 12.1099 66.5667C12.1099 69.0249 14.1026 71.0177 16.5608 71.0177Z" fill="#212121"/>
<path opacity="0.2" d="M32.798 35.728C31.8541 41.053 33.9377 45.8748 33.9377 45.8748C33.9377 45.8748 37.5516 42.0629 38.4954 36.7378C39.4393 31.4128 37.3557 26.5911 37.3557 26.5911C37.3557 26.5911 33.7418 30.4029 32.798 35.728Z" fill="#212121"/>
<path opacity="0.2" d="M18.0056 48.3685C23.0847 50.2258 28.1886 49.0339 28.1886 49.0339C28.1886 49.0339 25.0575 44.8308 19.9784 42.9736C14.8992 41.1163 9.79541 42.3082 9.79541 42.3082C9.79541 42.3082 12.9265 46.5113 18.0056 48.3685Z" fill="#212121"/>
<path opacity="0.2" d="M17.1442 82.2979C20.7042 83.5997 24.2867 82.7505 24.2867 82.7505C24.2867 82.7505 22.0971 79.7907 18.537 78.4889C14.9769 77.1871 11.3945 78.0363 11.3945 78.0363C11.3945 78.0363 13.5841 80.9961 17.1442 82.2979Z" fill="#212121"/>
<path d="M49.8973 61.0724C60.6628 61.0724 69.3899 52.3452 69.3899 41.5798C69.3899 30.8143 60.6628 22.0872 49.8973 22.0872C39.1318 22.0872 30.4047 30.8143 30.4047 41.5798C30.4047 52.3452 39.1318 61.0724 49.8973 61.0724Z" fill="#E0E0E0"/>
<path d="M42.283 56.5038C42.283 56.5038 44.7195 68.0775 44.7195 69.2958C44.7195 70.5141 56.2933 75.9964 56.2933 75.9964L66.6487 74.169L70.3036 63.2044C70.3036 63.2044 64.2122 54.0672 64.2122 50.4124L42.283 56.5038Z" fill="#E0E0E0"/>
<path d="M95.9734 69.6893L95.8077 70.071C91.2989 80.3283 83.4808 88.7774 73.6036 94.0671C63.7264 99.3569 52.3607 101.182 41.3239 99.25C41.0237 99.1967 40.7239 99.1415 40.4245 99.0843C37.3318 98.4848 34.3033 97.5917 31.3802 96.4171C30.9053 96.2263 30.4339 96.0286 29.966 95.8239C29.6464 95.6849 29.3269 95.5414 29.0103 95.3935C26.1409 94.0641 23.4043 92.4652 20.8373 90.6183L18.5266 83.9157L19.8254 82.9245L22.497 80.8846L25.3476 78.7086L26.0887 78.142L37.2737 69.6035L38.0991 68.9734L43.9127 64.5355L43.9142 64.534C43.9142 64.534 50.2012 74.7781 59.3387 71.7322C68.4763 68.6864 68.2766 59.9526 68.2766 59.9526L95.9734 69.6893Z" fill="#424242"/>
<path d="M32.9934 25.8753C32.9934 25.8753 39.1823 12.4661 51.0442 15.5605C62.9061 18.655 69.6107 23.2966 70.1264 27.9382C70.6422 32.5798 69.8686 39.5423 69.8686 39.5423C69.8686 39.5423 68.5792 30.0012 60.3275 32.0641C52.0757 34.127 39.1823 32.5798 39.1823 32.5798L37.1193 51.1463C37.1193 51.1463 34.7985 47.7941 32.2198 49.857C29.6411 51.9199 24.7417 30.0011 32.9934 25.8753Z" fill="#424242"/>
<path d="M31.3801 96.4173C30.9053 96.2264 30.4339 96.0287 29.9659 95.8241C29.6464 95.685 29.3269 95.5415 29.0103 95.3936C24.2646 93.193 19.8927 90.263 16.0532 86.7101C17.4127 84.8581 18.5266 83.9158 18.5266 83.9158H27.6642L29.034 88.5223L31.3801 96.4173Z" fill="#424242"/>
<path d="M87.9689 68.6863L95.8077 70.0709C93.7099 74.8498 90.8768 79.2707 87.4113 83.173L87.9689 68.6863Z" fill="#424242"/>
</g>
<defs>
<clipPath id="clip0_1694_3961">
<rect width="100" height="100" fill="white"/>
</clipPath>
</defs>
</svg>
