<svg width="278" height="271" viewBox="0 0 278 271" fill="none" xmlns="http://www.w3.org/2000/svg">
<g clip-path="url(#clip0_1129_8394)">
<path d="M232.98 260.096L228.269 260.056L226.184 241.464L233.136 241.523L232.98 260.096Z" fill="#A0616A"/>
<path d="M217.892 267.586C217.888 268.145 218.105 268.682 218.497 269.08C218.888 269.478 219.421 269.705 219.98 269.711L229.345 269.789L230.984 266.466L231.587 269.806L235.12 269.838L234.228 257.924L232.999 257.843L227.984 257.497L226.366 257.389L226.338 260.759L218.815 265.862C218.533 266.053 218.302 266.31 218.141 266.611C217.98 266.911 217.895 267.246 217.892 267.586Z" fill="#2F2E41"/>
<path d="M180.852 260.118L176.361 258.695L179.831 240.312L186.459 242.41L180.852 260.118Z" fill="#A0616A"/>
<path d="M164.23 262.844C164.062 263.377 164.112 263.954 164.369 264.45C164.626 264.945 165.069 265.319 165.601 265.488L174.53 268.314L177.074 265.62L176.668 268.989L180.036 270.058L182.684 258.409L181.532 257.969L176.841 256.165L175.326 255.586L174.309 258.8L165.618 261.467C165.293 261.567 164.996 261.745 164.754 261.985C164.513 262.224 164.333 262.519 164.23 262.844Z" fill="#2F2E41"/>
<path d="M247.074 260.768C247.335 260.78 247.594 260.711 247.814 260.571C248.035 260.431 248.208 260.227 248.308 259.986C248.409 259.745 248.433 259.479 248.378 259.224C248.322 258.968 248.19 258.736 247.998 258.559L247.91 258.212C247.922 258.184 247.934 258.156 247.945 258.128C248.208 257.507 248.649 256.978 249.212 256.606C249.774 256.235 250.435 256.038 251.109 256.041C251.783 256.043 252.442 256.245 253.002 256.621C253.562 256.996 253.999 257.529 254.257 258.152C255.29 260.638 256.604 263.129 256.928 265.758C257.07 266.92 257.01 268.098 256.75 269.24C259.175 263.95 260.434 258.201 260.442 252.383C260.442 250.923 260.361 249.464 260.199 248.013C260.065 246.823 259.879 245.642 259.64 244.469C258.341 238.107 255.55 232.143 251.499 227.068C249.537 225.998 247.951 224.353 246.954 222.354C246.593 221.635 246.338 220.868 246.196 220.076C246.418 220.105 247.03 216.736 246.864 216.529C247.172 216.061 247.724 215.829 248.06 215.372C249.735 213.102 252.042 213.498 253.247 216.584C255.82 217.882 255.844 220.036 254.266 222.107C253.261 223.425 253.123 225.208 252.242 226.619C252.333 226.735 252.427 226.847 252.518 226.963C254.175 229.094 255.62 231.383 256.831 233.796C256.536 231.093 256.888 228.358 257.856 225.817C258.838 223.449 260.678 221.455 262.298 219.408C262.726 218.858 263.308 218.447 263.97 218.228C264.632 218.009 265.344 217.99 266.016 218.176C266.688 218.361 267.29 218.741 267.746 219.269C268.202 219.796 268.492 220.447 268.578 221.139C268.581 221.169 268.584 221.199 268.587 221.229C268.347 221.365 268.111 221.509 267.881 221.662C267.591 221.855 267.367 222.132 267.237 222.455C267.107 222.778 267.078 223.133 267.153 223.473C267.229 223.813 267.405 224.122 267.659 224.36C267.913 224.598 268.233 224.754 268.578 224.807L268.613 224.813C268.527 225.68 268.376 226.54 268.16 227.384C270.238 235.422 265.751 238.35 259.343 238.482C259.202 238.554 259.064 238.627 258.922 238.696C260.139 242.144 260.902 245.735 261.193 249.38C261.357 251.53 261.347 253.69 261.164 255.839L261.175 255.763C261.639 253.374 262.913 251.218 264.783 249.659C267.56 247.378 271.483 246.538 274.479 244.704C274.798 244.5 275.168 244.391 275.546 244.39C275.925 244.389 276.295 244.496 276.615 244.699C276.934 244.902 277.189 245.192 277.349 245.535C277.509 245.878 277.568 246.259 277.518 246.634L277.506 246.714C277.059 246.896 276.624 247.106 276.204 247.342C275.963 247.477 275.727 247.622 275.497 247.774C275.207 247.967 274.983 248.244 274.853 248.567C274.723 248.89 274.694 249.245 274.77 249.585C274.845 249.925 275.021 250.234 275.275 250.472C275.529 250.711 275.85 250.866 276.194 250.919L276.229 250.925C276.254 250.928 276.276 250.932 276.301 250.936C275.538 252.758 274.467 254.435 273.135 255.893C271.836 262.911 266.254 263.576 260.282 261.533H260.279C259.624 264.38 258.674 267.151 257.446 269.802H247.328C247.292 269.689 247.259 269.573 247.226 269.461C248.163 269.52 249.103 269.464 250.026 269.294C249.275 268.373 248.525 267.445 247.774 266.523C247.757 266.506 247.741 266.488 247.727 266.469C247.346 265.997 246.961 265.53 246.581 265.058L246.58 265.058C246.56 263.612 246.726 262.171 247.074 260.768L247.074 260.768Z" fill="#F2F2F2"/>
<path d="M133.902 269.832C133.901 269.92 133.919 270.007 133.952 270.088C133.986 270.169 134.035 270.243 134.097 270.305C134.159 270.367 134.233 270.416 134.314 270.45C134.395 270.483 134.482 270.5 134.57 270.5H276.794C276.971 270.5 277.141 270.43 277.267 270.304C277.392 270.179 277.462 270.009 277.462 269.832C277.462 269.655 277.392 269.485 277.267 269.359C277.141 269.234 276.971 269.164 276.794 269.164H134.57C134.482 269.163 134.395 269.18 134.314 269.214C134.233 269.247 134.159 269.297 134.097 269.359C134.035 269.421 133.986 269.495 133.952 269.576C133.919 269.657 133.901 269.744 133.902 269.832Z" fill="#CCCCCC"/>
<path d="M268.657 145.227C271.448 145.227 273.71 142.965 273.71 140.174C273.71 137.383 271.448 135.12 268.657 135.12C265.866 135.12 263.603 137.383 263.603 140.174C263.603 142.965 265.866 145.227 268.657 145.227Z" fill="#246BFD"/>
<path d="M177.186 61.0242H162.443V186.716C162.443 188.688 162.055 190.64 161.3 192.462C160.546 194.284 159.439 195.94 158.045 197.334C156.65 198.729 154.995 199.835 153.173 200.59C151.351 201.344 149.398 201.733 147.426 201.733H34.7108V201.876C34.7108 203.848 35.0992 205.801 35.8539 207.623C36.6086 209.445 37.7147 211.101 39.1092 212.495C40.5036 213.889 42.1591 214.996 43.9811 215.75C45.803 216.505 47.7558 216.893 49.7278 216.893H177.186C179.158 216.893 181.111 216.505 182.933 215.75C184.755 214.996 186.41 213.889 187.805 212.495C189.199 211.101 190.305 209.445 191.06 207.623C191.815 205.801 192.203 203.848 192.203 201.876V76.0412C192.203 72.0584 190.621 68.2388 187.805 65.4226C184.989 62.6063 181.169 61.0242 177.186 61.0242Z" fill="#F2F2F2"/>
<path d="M135.628 43.9267C135.997 44.4864 136.484 44.9592 137.054 45.3124C137.624 45.6655 138.264 45.8906 138.929 45.9721C139.595 46.0536 140.271 45.9895 140.909 45.7843C141.547 45.579 142.134 45.2376 142.627 44.7835L163.664 54.2745L167.72 49.1012L142.652 38.0112C141.826 37.2374 140.744 36.7935 139.613 36.7636C138.481 36.7337 137.378 37.1199 136.512 37.8491C135.646 38.5783 135.078 39.5997 134.915 40.7199C134.752 41.84 135.006 42.981 135.628 43.9267H135.628Z" fill="#A0616A"/>
<path d="M225.909 49.845L227.995 61.6683C228.092 62.2198 228.073 62.7857 227.939 63.3295C227.805 63.8733 227.558 64.383 227.215 64.8258C226.873 65.2687 226.441 65.635 225.948 65.9012C225.455 66.1674 224.912 66.3276 224.354 66.3715L188.901 69.1594L147.228 50.5086L152.205 41.0601L188.381 52.516L225.909 49.845Z" fill="#246BFD"/>
<path d="M142.934 41.3716H15.4759C7.18221 41.3716 0.458862 48.0949 0.458862 56.3886V182.224C0.458862 190.517 7.18221 197.241 15.4759 197.241H142.934C151.228 197.241 157.951 190.517 157.951 182.224V56.3886C157.951 48.0949 151.228 41.3716 142.934 41.3716Z" fill="#F2F2F2"/>
<path d="M15.476 44.4597C13.9095 44.4597 12.3583 44.7683 10.9111 45.3677C9.46379 45.9672 8.14878 46.8459 7.04109 47.9536C5.9334 49.0613 5.05473 50.3763 4.45525 51.8235C3.85578 53.2708 3.54724 54.822 3.54724 56.3885V182.224C3.54724 185.387 4.80401 188.422 7.04109 190.659C9.27816 192.896 12.3123 194.153 15.476 194.153H96.823C104.445 194.153 111.992 192.651 119.034 189.735C126.076 186.818 132.474 182.543 137.863 177.153C143.253 171.764 147.528 165.365 150.445 158.324C153.362 151.282 154.863 143.735 154.863 136.113V56.3885C154.863 54.822 154.554 53.2708 153.955 51.8235C153.355 50.3763 152.477 49.0613 151.369 47.9536C150.261 46.8459 148.946 45.9672 147.499 45.3677C146.052 44.7683 144.501 44.4597 142.934 44.4597H15.476Z" fill="white"/>
<path d="M167.109 199.004H120.276C119.619 199.004 118.99 198.744 118.525 198.28C118.061 197.815 117.8 197.186 117.8 196.529C117.8 195.873 118.061 195.243 118.525 194.779C118.99 194.315 119.619 194.054 120.276 194.054H167.109C167.765 194.054 168.395 194.315 168.859 194.779C169.323 195.243 169.584 195.873 169.584 196.529C169.584 197.186 169.323 197.815 168.859 198.28C168.395 198.744 167.765 199.004 167.109 199.004Z" fill="#246BFD"/>
<path d="M160.851 161.022H54.7261C52.4178 161.022 50.2041 161.939 48.5719 163.572C46.9397 165.204 46.0227 167.418 46.0227 169.726C46.0227 172.034 46.9397 174.248 48.5719 175.88C50.2041 177.512 52.4178 178.429 54.7261 178.429H160.851C163.159 178.429 165.373 177.512 167.005 175.88C168.637 174.248 169.554 172.034 169.554 169.726C169.554 167.418 168.637 165.204 167.005 163.572C165.373 161.939 163.159 161.022 160.851 161.022Z" fill="white"/>
<path d="M160.851 178.991H54.7261C52.2689 178.991 49.9123 178.015 48.1748 176.277C46.4373 174.54 45.4612 172.183 45.4612 169.726C45.4612 167.269 46.4373 164.912 48.1748 163.175C49.9123 161.437 52.2689 160.461 54.7261 160.461H160.851C163.308 160.461 165.665 161.437 167.402 163.175C169.14 164.912 170.116 167.269 170.116 169.726C170.116 172.183 169.14 174.54 167.402 176.277C165.665 178.015 163.308 178.991 160.851 178.991ZM54.7261 161.584C52.5667 161.584 50.4958 162.442 48.9689 163.969C47.442 165.496 46.5842 167.566 46.5842 169.726C46.5842 171.885 47.442 173.956 48.9689 175.483C50.4958 177.01 52.5667 177.868 54.7261 177.868H160.851C163.01 177.868 165.081 177.01 166.608 175.483C168.135 173.956 168.993 171.885 168.993 169.726C168.993 167.566 168.135 165.496 166.608 163.969C165.081 162.442 163.01 161.584 160.851 161.584H54.7261Z" fill="#246BFD"/>
<path d="M114.836 135.43H43.2958C42.6394 135.43 42.0098 135.169 41.5456 134.705C41.0814 134.241 40.8207 133.612 40.8207 132.955C40.8207 132.299 41.0814 131.669 41.5456 131.205C42.0098 130.741 42.6394 130.48 43.2958 130.48H114.836C115.492 130.48 116.122 130.741 116.586 131.205C117.05 131.669 117.311 132.299 117.311 132.955C117.311 133.612 117.05 134.241 116.586 134.705C116.122 135.169 115.492 135.43 114.836 135.43Z" fill="#F2F2F2"/>
<path d="M143.886 109.057H14.2452C13.5887 109.057 12.9591 108.796 12.495 108.332C12.0308 107.868 11.77 107.238 11.77 106.582C11.77 105.925 12.0308 105.296 12.495 104.831C12.9591 104.367 13.5887 104.106 14.2452 104.106H143.886C144.543 104.106 145.172 104.367 145.637 104.831C146.101 105.296 146.361 105.925 146.361 106.582C146.361 107.238 146.101 107.868 145.637 108.332C145.172 108.796 144.543 109.057 143.886 109.057Z" fill="#F2F2F2"/>
<path d="M221.43 101.957L208.515 129.471L258.195 124.439L247.825 98.0266L221.43 101.957Z" fill="#A0616A"/>
<path d="M255.933 116.702L210.761 124.979C210.761 124.979 203.516 130.399 205.454 132.34C207.392 134.28 207.693 133.98 206.419 135.253C205.146 136.527 202.393 138.229 202.366 139.343C202.339 140.457 182.124 190.431 182.124 190.431C182.124 190.431 184.37 189.308 182.686 190.993C181.001 192.677 181.001 194.069 181.001 194.069L173.14 247.144L185.907 247.895L198.408 199.508L226.292 154.305C226.292 154.305 229.059 194.615 229.175 197.296C229.291 199.977 230.975 196.608 229.291 199.977C227.606 203.346 226.483 201.1 227.606 203.346C228.729 205.592 223.561 251.318 223.561 251.318H235.214L260.207 156.541C260.207 156.541 269.099 129.445 255.933 116.702Z" fill="#2F2E41"/>
<path d="M268.713 142.258C269.072 141.691 269.304 141.054 269.393 140.389C269.481 139.724 269.424 139.048 269.226 138.407C269.027 137.767 268.692 137.177 268.243 136.679C267.794 136.18 267.243 135.786 266.626 135.522L266.663 112.443L260.282 110.863L260.439 138.275C260.072 139.345 260.11 140.513 260.546 141.558C260.983 142.602 261.787 143.45 262.807 143.941C263.827 144.432 264.991 144.532 266.08 144.222C267.169 143.911 268.106 143.212 268.713 142.258V142.258Z" fill="#A0616A"/>
<path d="M114.836 82.6485H43.2958C42.6394 82.6485 42.0098 82.3878 41.5456 81.9236C41.0814 81.4594 40.8207 80.8298 40.8207 80.1734C40.8207 79.5169 41.0814 78.8874 41.5456 78.4232C42.0098 77.959 42.6394 77.6982 43.2958 77.6982H114.836C115.492 77.6982 116.122 77.959 116.586 78.4232C117.05 78.8874 117.311 79.5169 117.311 80.1734C117.311 80.8298 117.05 81.4594 116.586 81.9236C116.122 82.3878 115.492 82.6485 114.836 82.6485Z" fill="#F2F2F2"/>
<path d="M242.626 40.8918L224.531 39.0117L219.843 45.0981L214.382 48.0068C212.071 49.2377 210.163 51.1083 208.887 53.3949C207.611 55.6814 207.021 58.2871 207.186 60.9003L213.569 98.0267C213.569 98.0267 208.178 110.166 211.884 113.187C215.591 116.209 209.018 123.692 216.938 119.925C224.857 116.159 259.051 120.487 259.051 120.487L251.751 99.7112L257.204 79.2962L257.804 62.1784C257.916 58.9797 256.967 55.8338 255.105 53.2309C253.242 50.6281 250.57 48.7146 247.507 47.7888L246.744 47.5583L242.626 40.8918Z" fill="#246BFD"/>
<path d="M237.114 57.4802L247.044 50.7318C247.507 50.417 248.031 50.2025 248.582 50.1021C249.133 50.0018 249.699 50.0177 250.244 50.149C250.788 50.2803 251.299 50.524 251.744 50.8644C252.189 51.2049 252.557 51.6346 252.826 52.1259L269.898 83.3225L269.963 128.979L259.305 128.311L254.929 90.6172L237.114 57.4802Z" fill="#246BFD"/>
<path d="M267.537 27.02C267.655 32.1202 265.749 37.0586 263.011 41.3963C262.197 38.864 260.735 36.5593 259.209 34.3623C259.978 39.1151 259.159 43.9887 256.879 48.2291C256.799 48.2866 256.716 48.34 256.63 48.3891C254.398 49.7316 251.568 50.2754 249.154 49.3057C254.142 43.9283 254.777 35.0188 250.595 28.9872C249.411 27.2757 247.879 25.7621 247.146 23.8143C245.988 20.7067 247.101 17.285 247.803 14.045C248.46 11.0294 248.575 7.44093 246.552 5.23092C246.768 4.92208 247.062 4.67624 247.405 4.5186C247.747 4.36095 248.125 4.29717 248.5 4.33379C249.748 4.50998 250.656 5.59418 251.234 6.71083C251.812 7.82745 252.193 9.06505 252.999 10.0295C254.492 11.8348 257.033 12.2616 259.175 13.213C264.362 15.5234 267.412 21.3449 267.537 27.02Z" fill="#2F2E41"/>
<path d="M223.875 24.1039C224.171 23.0665 222.128 29.4081 223.114 29.5226C227.604 30.0377 233.768 32.7194 236.896 33.9704C237.036 33.954 237.177 33.9377 237.314 33.9172C237.65 33.8804 237.977 33.8273 238.3 33.766C245.582 32.3882 248.382 21.2022 248.382 21.1C248.382 20.5971 247.175 6.78547 245.274 6.58108C244.775 6.52689 244.273 6.4996 243.77 6.49931H239.052C238.076 6.28893 237.087 6.1455 236.091 6.07003H236.082C226.584 5.34637 219.095 11.1355 219.795 18.1799C219.799 18.188 219.808 18.1962 219.812 18.2044C220.015 18.5069 220.193 18.7931 220.35 19.067C220.504 19.3246 220.632 19.5699 220.744 19.8029C221.61 21.6018 219.384 23.8654 220.86 24.2879C222.822 24.8499 215.698 43.3194 223.466 43.3194C219.688 44.3937 223.057 26.9658 223.875 24.1039Z" fill="#2F2E41"/>
<path d="M232.354 34.9411C238.523 34.9411 243.524 29.94 243.524 23.7707C243.524 17.6015 238.523 12.6003 232.354 12.6003C226.185 12.6003 221.183 17.6015 221.183 23.7707C221.183 29.94 226.185 34.9411 232.354 34.9411Z" fill="#A0616A"/>
<path d="M219.795 18.7891C219.982 18.8872 220.164 18.9771 220.35 19.0671C220.545 19.1611 220.74 19.2552 220.934 19.341C224.675 21.0377 227.719 21.2258 229.567 18.7891C229.616 17.507 229.904 16.2453 230.416 15.0686C230.326 16.3835 230.672 17.6915 231.402 18.7891H235.121C238.953 21.3321 240.92 21.5978 238.261 29.9463C237.52 32.2726 234.572 45.8093 235.731 47.8167C236.067 47.7799 239.636 32.953 239.96 32.8917C247.241 31.514 251.868 19.5168 251.276 18.8382C251.279 16.9082 250.835 15.0037 249.979 13.2738C248.897 11.0822 247.209 9.24633 245.117 7.98346C243.869 7.37855 242.568 6.88996 241.231 6.52389C241.198 6.51571 241.169 6.50752 241.136 6.49936C240.726 6.38897 240.307 6.28676 239.889 6.2009C239.025 6.01841 238.151 5.88599 237.271 5.80433C237.209 5.80024 237.147 5.79614 237.089 5.79614C236.738 5.79696 236.393 5.89153 236.091 6.07008C236.087 6.07008 236.087 6.07415 236.082 6.07415C235.866 6.20044 235.678 6.36863 235.527 6.56884C235.263 6.90572 235.12 7.32206 235.121 7.75039H230.979C230.826 7.75039 230.673 7.75448 230.519 7.76265C227.755 7.85712 225.125 8.97984 223.145 10.9111C221.164 12.8423 219.976 15.4431 219.812 18.2044C219.799 18.4007 219.795 18.5928 219.795 18.7891Z" fill="#2F2E41"/>
<path d="M244.219 15.2182C248.283 15.2182 251.578 11.9234 251.578 7.85912C251.578 3.79479 248.283 0.5 244.219 0.5C240.154 0.5 236.86 3.79479 236.86 7.85912C236.86 11.9234 240.154 15.2182 244.219 15.2182Z" fill="#2F2E41"/>
</g>
<defs>
<clipPath id="clip0_1129_8394">
<rect width="277.082" height="270" fill="white" transform="translate(0.458862 0.5)"/>
</clipPath>
</defs>
</svg>
