<svg width="360" height="220" viewBox="0 0 360 220" fill="none" xmlns="http://www.w3.org/2000/svg">
<g clip-path="url(#clip0_1157_19006)">
<path d="M131.312 154.553C130.897 154.554 130.498 154.716 130.205 155.004C129.911 155.292 129.746 155.683 129.746 156.091V217.52C129.746 217.928 129.911 218.318 130.205 218.607C130.498 218.895 130.897 219.057 131.312 219.058H141.932C142.347 219.057 142.745 218.895 143.038 218.607C143.332 218.318 143.497 217.928 143.498 217.52V156.091C143.497 155.683 143.332 155.292 143.038 155.004C142.745 154.716 142.347 154.554 141.932 154.553H131.312Z" fill="#424242"/>
<path d="M219.625 154.553C219.21 154.554 218.811 154.716 218.518 155.004C218.224 155.292 218.059 155.683 218.059 156.091V217.52C218.059 217.928 218.224 218.318 218.518 218.607C218.811 218.895 219.21 219.057 219.625 219.058H230.245C230.66 219.057 231.058 218.895 231.351 218.607C231.645 218.318 231.81 217.928 231.811 217.52V156.091C231.81 155.683 231.645 155.292 231.351 155.004C231.058 154.716 230.66 154.554 230.245 154.553H219.625Z" fill="#424242"/>
<path d="M269.241 105.748L187.813 99.5747L252.776 110.451L268.343 107.805L269.241 105.748Z" fill="#424242"/>
<path d="M253.374 109.483L268.941 106.838L269.094 106.487L269.839 106.544L268.941 108.601L253.374 111.247L188.412 99.5747L207.664 101.83L253.374 109.483Z" fill="#246BFD"/>
<path d="M84.8315 105.748L3.40381 99.5747L68.3664 110.451L83.9335 107.805L84.8315 105.748Z" fill="#424242"/>
<path d="M67.4684 109.483L83.0352 106.838L83.1884 106.487L83.9336 106.544L83.0352 108.601L67.4684 111.247L2.50586 99.5747L21.7573 101.83L67.4684 109.483Z" fill="#246BFD"/>
<path d="M283.012 137.789L276.126 138.083L213.047 164.215L209.436 167.184L197.992 176.591H162.068L151.249 167.184L147.135 163.607L86.6276 138.377L81.239 137.789L99.201 129.264H99.2968C103.368 125.469 138.627 122.503 181.527 122.503C224.426 122.503 259.685 125.469 263.756 129.264H264.152L283.012 137.789Z" fill="#424242"/>
<path d="M98.7077 129.7C98.8354 129.347 98.901 128.976 98.9017 128.602V114.64C98.9017 113.763 98.5468 112.922 97.9151 112.302C97.2834 111.681 96.4266 111.333 95.5333 111.333H94.1656C95.2885 110.22 96.051 108.806 96.3568 107.268C96.6627 105.731 96.4983 104.138 95.8844 102.692C95.2704 101.246 94.2344 100.011 92.9068 99.1423C91.5792 98.2735 90.0194 97.8098 88.4239 97.8098C86.8284 97.8098 85.2686 98.2735 83.941 99.1423C82.6134 100.011 81.5774 101.246 80.9634 102.692C80.3495 104.138 80.1851 105.731 80.491 107.268C80.7968 108.806 81.5593 110.22 82.6822 111.333H81.3146C80.8722 111.333 80.4342 111.418 80.0255 111.585C79.6168 111.751 79.2455 111.994 78.9327 112.302C78.6199 112.609 78.3718 112.973 78.2025 113.375C78.0332 113.776 77.9461 114.206 77.9461 114.64V128.602C77.9459 129.174 78.0975 129.736 78.3858 130.232C77.3692 130.407 76.3525 130.597 75.3358 130.817C74.7165 130.953 74.163 131.292 73.7667 131.779C73.3704 132.266 73.1551 132.87 73.1563 133.494V136.811C73.1563 137.538 73.4504 138.235 73.974 138.749C74.4977 139.264 75.2078 139.552 75.9484 139.552H107.583V131.322C104.662 130.599 101.698 130.058 98.7077 129.7Z" fill="#424242"/>
<path d="M285.921 130.817C284.905 130.597 283.888 130.407 282.871 130.232C283.16 129.736 283.311 129.174 283.311 128.602V114.64C283.311 114.206 283.224 113.776 283.055 113.375C282.885 112.973 282.637 112.609 282.324 112.302C282.012 111.994 281.64 111.751 281.232 111.585C280.823 111.418 280.385 111.333 279.943 111.333H278.575C279.698 110.22 280.46 108.806 280.766 107.268C281.072 105.731 280.908 104.138 280.294 102.692C279.68 101.246 278.644 100.011 277.316 99.1423C275.988 98.2735 274.429 97.8098 272.833 97.8098C271.238 97.8098 269.678 98.2735 268.35 99.1423C267.023 100.011 265.987 101.246 265.373 102.692C264.759 104.138 264.594 105.731 264.9 107.268C265.206 108.806 265.969 110.22 267.092 111.333H265.724C265.282 111.333 264.844 111.418 264.435 111.585C264.026 111.751 263.655 111.994 263.342 112.302C263.029 112.609 262.781 112.973 262.612 113.375C262.443 113.776 262.355 114.206 262.355 114.64V128.602C262.356 128.976 262.422 129.347 262.549 129.7C259.559 130.058 256.595 130.599 253.674 131.322V139.552H285.309C286.049 139.552 286.759 139.264 287.283 138.749C287.807 138.235 288.101 137.538 288.101 136.811V133.494C288.102 132.87 287.887 132.266 287.49 131.779C287.094 131.292 286.541 130.953 285.921 130.817Z" fill="#424242"/>
<path d="M276.426 105.748L357.853 99.5747L292.891 110.451L277.324 107.805L276.426 105.748Z" fill="#424242"/>
<path d="M186.346 173.945H173.714C173.246 173.945 172.782 174.035 172.35 174.211C171.918 174.387 171.525 174.645 171.194 174.97C170.863 175.294 170.601 175.68 170.422 176.105C170.243 176.529 170.151 176.984 170.151 177.443V180.147C170.151 180.857 170.372 181.55 170.783 182.134C171.195 182.718 171.778 183.166 172.454 183.416C171.932 184.032 171.647 184.808 171.648 185.609V186.385C171.647 186.938 171.784 187.482 172.044 187.972C172.305 188.462 172.682 188.883 173.144 189.199V199.519H186.915V189.199C187.377 188.883 187.755 188.462 188.015 187.972C188.276 187.482 188.412 186.938 188.412 186.385V185.609C188.413 184.808 188.128 184.032 187.605 183.416C188.282 183.166 188.865 182.718 189.276 182.134C189.688 181.55 189.908 180.857 189.909 180.147V177.443C189.909 176.984 189.817 176.529 189.638 176.105C189.459 175.68 189.196 175.295 188.865 174.97C188.535 174.645 188.142 174.387 187.709 174.211C187.277 174.035 186.814 173.945 186.346 173.945Z" fill="#424242"/>
<path d="M167.192 198.058C166.63 198.059 166.091 198.279 165.693 198.669C165.295 199.06 165.072 199.589 165.071 200.141V216.828C165.072 217.38 165.295 217.909 165.693 218.3C166.091 218.69 166.63 218.91 167.192 218.911H192.867C193.43 218.91 193.969 218.69 194.367 218.3C194.764 217.909 194.988 217.38 194.989 216.828V200.141C194.988 199.589 194.764 199.06 194.367 198.669C193.969 198.279 193.43 198.059 192.867 198.058H167.192Z" fill="#246BFD"/>
<path d="M209.437 167.184L197.992 176.59H162.068L151.249 167.184H162.008L162.478 164.882C162.616 164.205 162.988 163.596 163.532 163.158C164.075 162.72 164.757 162.481 165.46 162.481H195.498C196.201 162.481 196.882 162.72 197.426 163.158C197.97 163.596 198.342 164.205 198.48 164.882L198.95 167.184H209.437Z" fill="#246BFD"/>
<path d="M180.03 216.715C184.659 216.715 188.412 213.03 188.412 208.484C188.412 203.939 184.659 200.254 180.03 200.254C175.4 200.254 171.647 203.939 171.647 208.484C171.647 213.03 175.4 216.715 180.03 216.715Z" fill="#424242"/>
<path d="M180.03 213.188C182.675 213.188 184.82 211.082 184.82 208.485C184.82 205.887 182.675 203.781 180.03 203.781C177.384 203.781 175.24 205.887 175.24 208.485C175.24 211.082 177.384 213.188 180.03 213.188Z" fill="#E0E0E0"/>
<path d="M182.925 204.744C183.628 205.648 183.972 206.772 183.895 207.907C183.818 209.041 183.323 210.11 182.504 210.914C181.685 211.719 180.597 212.204 179.441 212.28C178.286 212.356 177.141 212.017 176.22 211.327C176.633 211.862 177.158 212.304 177.76 212.623C178.361 212.942 179.025 213.131 179.707 213.177C180.389 213.223 181.073 213.124 181.713 212.889C182.353 212.653 182.935 212.286 183.418 211.811C183.901 211.337 184.276 210.766 184.515 210.137C184.755 209.509 184.855 208.837 184.809 208.168C184.762 207.498 184.57 206.846 184.245 206.255C183.92 205.665 183.47 205.149 182.925 204.744Z" fill="white"/>
<path d="M288.25 134.323H73.3059V135.669H288.25V134.323Z" fill="#E0E0E0"/>
<path d="M293.49 109.483L277.922 106.838L277.77 106.487L277.024 106.544L277.922 108.601L293.49 111.247L358.452 99.5747L339.2 101.83L293.49 109.483Z" fill="#246BFD"/>
<path d="M92.0161 105.748L173.444 99.5747L108.481 110.451L92.9145 107.805L92.0161 105.748Z" fill="#424242"/>
<path d="M109.38 109.483L93.8124 106.838L93.6596 106.487L92.9144 106.544L93.8124 108.601L109.38 111.247L174.342 99.5747L155.09 101.83L109.38 109.483Z" fill="#246BFD"/>
<path d="M192.453 164.979H168.504V169.683H192.453V164.979Z" fill="#E0E0E0"/>
<path d="M103.466 0H30.8699C28.2941 0.00285423 25.8247 1.00884 24.0033 2.79727C22.182 4.58569 21.1575 7.0105 21.1545 9.53971V47.3852C21.1575 49.9144 22.182 52.3392 24.0033 54.1276C25.8247 55.916 28.2941 56.922 30.8699 56.9249H103.466C106.042 56.922 108.511 55.916 110.333 54.1276C112.154 52.3392 113.179 49.9144 113.182 47.3852V9.53971C113.179 7.0105 112.154 4.5857 110.333 2.79728C108.511 1.00885 106.042 0.00286055 103.466 0Z" fill="#E0E0E0"/>
<path d="M30.8698 7.76245C30.39 7.76295 29.9299 7.95034 29.5906 8.28352C29.2513 8.61669 29.0604 9.06843 29.0599 9.5396V47.3852C29.0604 47.8564 29.2513 48.3081 29.5906 48.6413C29.9299 48.9745 30.39 49.1619 30.8698 49.1624H103.466C103.946 49.1619 104.406 48.9745 104.745 48.6413C105.085 48.3081 105.276 47.8564 105.276 47.3852V9.5396C105.276 9.06843 105.085 8.61669 104.745 8.28352C104.406 7.95034 103.946 7.76295 103.466 7.76245H30.8698Z" fill="white"/>
<path d="M65.6991 45.1728C65.6743 45.1728 65.6495 45.1721 65.6245 45.1707C65.3278 45.1542 65.0457 45.0391 64.8244 44.8443C64.6032 44.6495 64.4561 44.3865 64.4073 44.0987L60.2057 19.345L56.4959 33.9158C56.4251 34.1939 56.2617 34.4408 56.0315 34.6173C55.8014 34.7937 55.5179 34.8895 55.2259 34.8895H49.9896C49.6424 34.8895 49.3095 34.7541 49.064 34.513C48.8185 34.2719 48.6805 33.945 48.6805 33.6041C48.6805 33.2632 48.8185 32.9362 49.064 32.6952C49.3095 32.4541 49.6424 32.3187 49.9896 32.3187H54.2038L59.1922 12.7258C59.2652 12.4392 59.4365 12.1859 59.6773 12.0088C59.9181 11.8316 60.2138 11.7413 60.5144 11.7531C60.8151 11.7649 61.1025 11.878 61.3282 12.0735C61.5538 12.269 61.704 12.5348 61.7535 12.8263L66.0351 38.0516L69.6761 25.5385C69.7529 25.2745 69.9138 25.0416 70.1352 24.8739C70.3566 24.7062 70.6268 24.6125 70.9064 24.6065C71.1859 24.6006 71.4601 24.6827 71.6887 24.8408C71.9172 24.9989 72.0883 25.2247 72.1767 25.4852L74.4965 32.3187H78.7893C79.1364 32.3187 79.4694 32.4541 79.7149 32.6952C79.9604 32.9362 80.0983 33.2632 80.0983 33.6041C80.0983 33.945 79.9604 34.2719 79.7149 34.513C79.4694 34.7541 79.1364 34.8895 78.7893 34.8895H73.553C73.2782 34.8895 73.0104 34.8046 72.7875 34.6469C72.5647 34.4891 72.398 34.2665 72.3111 34.0106L71.031 30.2399L66.9572 44.2405C66.8791 44.509 66.714 44.7452 66.4871 44.9134C66.2601 45.0816 65.9835 45.1726 65.6991 45.1728Z" fill="#246BFD"/>
<path d="M81.8042 37.4059C83.9312 37.4059 85.6556 35.7128 85.6556 33.6242C85.6556 31.5356 83.9312 29.8424 81.8042 29.8424C79.6771 29.8424 77.9528 31.5356 77.9528 33.6242C77.9528 35.7128 79.6771 37.4059 81.8042 37.4059Z" fill="#424242"/>
<path d="M216.169 0H143.573C140.997 0.00286055 138.527 1.00885 136.706 2.79728C134.885 4.5857 133.86 7.0105 133.857 9.53971V47.3852C133.86 49.9144 134.885 52.3392 136.706 54.1276C138.527 55.916 140.997 56.922 143.573 56.9249H216.169C218.745 56.922 221.214 55.916 223.035 54.1276C224.857 52.3392 225.881 49.9144 225.884 47.3852V9.53971C225.881 7.0105 224.857 4.5857 223.035 2.79727C221.214 1.00885 218.745 0.00285844 216.169 0Z" fill="#E0E0E0"/>
<path d="M143.572 7.76245C143.093 7.76295 142.633 7.95034 142.293 8.28352C141.954 8.61669 141.763 9.06843 141.763 9.5396V47.3852C141.763 47.8564 141.954 48.3081 142.293 48.6413C142.633 48.9745 143.093 49.1619 143.572 49.1624H216.169C216.649 49.1619 217.109 48.9745 217.448 48.6413C217.787 48.3081 217.978 47.8564 217.979 47.3852V9.5396C217.978 9.06843 217.787 8.61669 217.448 8.28352C217.109 7.95034 216.649 7.76295 216.169 7.76245H143.572Z" fill="white"/>
<path d="M179.871 30.4998C185.159 30.4998 189.447 26.29 189.447 21.0969C189.447 15.9039 185.159 11.6941 179.871 11.6941C174.582 11.6941 170.295 15.9039 170.295 21.0969C170.295 26.29 174.582 30.4998 179.871 30.4998Z" fill="#246BFD"/>
<path d="M179.871 32.0669H179.871C183.257 32.0669 186.505 33.3878 188.899 35.7389C191.293 38.0901 192.639 41.2789 192.639 44.604V45.2309H167.103V44.604C167.103 41.2789 168.448 38.0901 170.842 35.7389C173.237 33.3878 176.484 32.0669 179.871 32.0669Z" fill="#246BFD"/>
<path d="M160.4 35.2012C164.102 35.2012 167.103 32.2543 167.103 28.6192C167.103 24.9841 164.102 22.0372 160.4 22.0372C156.698 22.0372 153.696 24.9841 153.696 28.6192C153.696 32.2543 156.698 35.2012 160.4 35.2012Z" fill="#424242"/>
<path d="M166.964 38.2253C165.676 37.1035 164.085 36.3711 162.383 36.1163C160.681 35.8614 158.94 36.0949 157.37 36.7886C155.799 37.4823 154.467 38.6067 153.532 40.0266C152.597 41.4464 152.1 43.1013 152.1 44.792V45.2308H165.188V44.6039C165.185 42.3595 165.799 40.1558 166.964 38.2253Z" fill="#424242"/>
<path d="M199.342 35.2012C203.044 35.2012 206.045 32.2543 206.045 28.6192C206.045 24.9841 203.044 22.0372 199.342 22.0372C195.64 22.0372 192.639 24.9841 192.639 28.6192C192.639 32.2543 195.64 35.2012 199.342 35.2012Z" fill="#424242"/>
<path d="M192.777 38.2253C194.065 37.1035 195.656 36.3711 197.358 36.1163C199.061 35.8614 200.801 36.0949 202.372 36.7886C203.942 37.4823 205.275 38.6067 206.209 40.0266C207.144 41.4464 207.641 43.1013 207.641 44.792V45.2308H194.554V44.6039C194.557 42.3595 193.943 40.1558 192.777 38.2253Z" fill="#424242"/>
<path d="M328.872 0H256.275C253.7 0.00285317 251.23 1.00884 249.409 2.79727C247.587 4.58569 246.563 7.01049 246.56 9.53971V47.3852C246.563 49.9144 247.587 52.3392 249.409 54.1276C251.23 55.916 253.7 56.922 256.275 56.9249H328.872C331.447 56.922 333.917 55.916 335.738 54.1276C337.56 52.3392 338.584 49.9144 338.587 47.3852V9.53971C338.584 7.0105 337.56 4.5857 335.738 2.79727C333.917 1.00885 331.447 0.00285844 328.872 0Z" fill="#E0E0E0"/>
<path d="M256.275 7.76245C255.795 7.76295 255.335 7.95034 254.996 8.28352C254.657 8.61669 254.466 9.06843 254.465 9.5396V47.3852C254.466 47.8564 254.657 48.3081 254.996 48.6413C255.335 48.9745 255.795 49.1619 256.275 49.1624H328.872C329.352 49.1619 329.812 48.9745 330.151 48.6413C330.49 48.3081 330.681 47.8564 330.682 47.3852V9.5396C330.681 9.06843 330.49 8.61669 330.151 8.28352C329.812 7.95034 329.352 7.76295 328.872 7.76245H256.275Z" fill="white"/>
<path d="M291.358 45.9633C291.202 45.9633 291.047 45.9331 290.903 45.8745C290.759 45.8159 290.628 45.7299 290.518 45.6216C290.407 45.5132 290.32 45.3846 290.26 45.2431C290.201 45.1015 290.17 44.9498 290.17 44.7966V35.4628C290.17 35.1537 290.296 34.8575 290.519 34.6392C290.741 34.4208 291.043 34.2982 291.358 34.2982C291.673 34.2982 291.975 34.4208 292.197 34.6392C292.42 34.8575 292.546 35.1537 292.546 35.4628V44.7966C292.546 44.9498 292.515 45.1015 292.456 45.2431C292.396 45.3846 292.309 45.5132 292.198 45.6216C292.088 45.7299 291.957 45.8159 291.813 45.8745C291.669 45.9331 291.514 45.9633 291.358 45.9633Z" fill="#246BFD"/>
<path d="M295.517 41.2963H287.199C286.884 41.2963 286.582 41.1734 286.359 40.9546C286.136 40.7358 286.011 40.439 286.011 40.1296C286.011 39.8202 286.136 39.5234 286.359 39.3046C286.582 39.0858 286.884 38.9629 287.199 38.9629H295.517C295.832 38.9629 296.134 39.0858 296.357 39.3046C296.58 39.5234 296.705 39.8202 296.705 40.1296C296.705 40.439 296.58 40.7358 296.357 40.9546C296.134 41.1734 295.832 41.2963 295.517 41.2963Z" fill="#246BFD"/>
<path d="M307.399 19.1286C307.243 19.1286 307.088 19.0984 306.944 19.0398C306.8 18.9812 306.669 18.8952 306.559 18.7869C306.448 18.6785 306.361 18.5499 306.301 18.4084C306.241 18.2668 306.211 18.1151 306.211 17.9619V13.295H301.458C301.302 13.295 301.147 13.2648 301.003 13.2062C300.859 13.1475 300.728 13.0616 300.618 12.9533C300.507 12.8449 300.42 12.7163 300.36 12.5748C300.3 12.4332 300.27 12.2815 300.27 12.1283C300.27 11.9751 300.3 11.8233 300.36 11.6818C300.42 11.5402 300.507 11.4116 300.618 11.3033C300.728 11.1949 300.859 11.109 301.003 11.0504C301.147 10.9917 301.302 10.9615 301.458 10.9615H307.399C307.555 10.9615 307.709 10.9917 307.853 11.0504C307.998 11.109 308.129 11.1949 308.239 11.3033C308.349 11.4116 308.437 11.5402 308.497 11.6818C308.556 11.8233 308.587 11.9751 308.587 12.1283V17.9619C308.587 18.1151 308.556 18.2668 308.497 18.4084C308.437 18.5499 308.349 18.6785 308.239 18.7869C308.129 18.8952 307.998 18.9812 307.853 19.0398C307.709 19.0984 307.555 19.1286 307.399 19.1286Z" fill="#246BFD"/>
<path d="M300.216 20.3479C299.981 20.3479 299.751 20.2794 299.556 20.1512C299.36 20.023 299.208 19.8408 299.118 19.6276C299.028 19.4144 299.005 19.1798 299.051 18.9535C299.097 18.7272 299.21 18.5193 299.376 18.3561L306.559 11.3033C306.782 11.085 307.084 10.9624 307.398 10.9626C307.713 10.9629 308.015 11.0858 308.238 11.3044C308.46 11.523 308.586 11.8195 308.586 12.1286C308.586 12.4378 308.461 12.7344 308.239 12.9533L301.056 20.0062C300.946 20.1147 300.815 20.2007 300.671 20.2593C300.527 20.318 300.372 20.3481 300.216 20.3479Z" fill="#246BFD"/>
<path d="M291.358 35.4628C289.125 35.4628 286.943 34.8127 285.087 33.5948C283.23 32.3769 281.784 30.6458 280.929 28.6205C280.075 26.5952 279.851 24.3666 280.287 22.2166C280.723 20.0665 281.798 18.0915 283.376 16.5414C284.955 14.9913 286.966 13.9357 289.156 13.508C291.345 13.0803 293.615 13.2998 295.678 14.1388C297.74 14.9777 299.503 16.3983 300.744 18.221C301.984 20.0438 302.646 22.1867 302.646 24.3789C302.643 27.3175 301.452 30.1348 299.336 32.2127C297.22 34.2906 294.351 35.4594 291.358 35.4628ZM291.358 15.6285C289.595 15.6285 287.873 16.1417 286.407 17.1032C284.942 18.0647 283.799 19.4313 283.125 21.0303C282.45 22.6292 282.274 24.3886 282.618 26.086C282.962 27.7834 283.81 29.3426 285.057 30.5664C286.303 31.7902 287.891 32.6236 289.619 32.9612C291.348 33.2988 293.14 33.1255 294.768 32.4632C296.397 31.8009 297.788 30.6794 298.768 29.2404C299.747 27.8014 300.27 26.1096 300.27 24.3789C300.267 22.059 299.327 19.8348 297.656 18.1943C295.986 16.5539 293.721 15.6311 291.358 15.6285Z" fill="#424242"/>
<path d="M360 218.897H0V219.789H360V218.897Z" fill="#424242"/>
</g>
<defs>
<clipPath id="clip0_1157_19006">
<rect width="360" height="219.789" fill="white"/>
</clipPath>
</defs>
</svg>
