<svg width="280" height="468" viewBox="0 0 280 468" fill="none" xmlns="http://www.w3.org/2000/svg">
<g clip-path="url(#clip0_1155_18526)">
<path d="M205.205 0.0182495H48.3189C23.9183 0.0182495 4.1377 18.5354 4.1377 41.3774V376.98C4.1377 399.822 23.9183 418.34 48.3189 418.34H205.205C229.606 418.34 249.387 399.822 249.387 376.98V41.3774C249.387 18.5354 229.606 0.0182495 205.205 0.0182495Z" fill="#424242"/>
<path d="M245.249 41.3802V376.981C245.237 386.92 241.014 396.448 233.507 403.476C226 410.503 215.821 414.456 205.204 414.468H48.3204C37.7036 414.456 27.5252 410.503 20.018 403.476C12.5108 396.448 8.28792 386.92 8.27563 376.981V41.3802C8.28793 31.4416 12.5109 21.9133 20.018 14.8856C27.5252 7.85795 37.7036 3.90476 48.3204 3.89325H68.8356V10.5272C68.8357 13.5306 70.1103 16.4108 72.3789 18.5345C74.6475 20.6582 77.7243 21.8513 80.9325 21.8515C107.492 29.3622 138.669 28.1899 172.592 21.8515C175.801 21.8513 178.877 20.6582 181.146 18.5345C183.415 16.4108 184.689 13.5306 184.689 10.5272V3.89325H205.204C215.821 3.90476 226 7.85796 233.507 14.8856C241.014 21.9133 245.237 31.4416 245.249 41.3802Z" fill="white"/>
<path d="M3.00919 84.8797C2.21138 84.8789 1.44651 84.5818 0.882379 84.0537C0.318244 83.5256 0.00091391 82.8096 0 82.0628V76.4288C0 75.6817 0.317036 74.9652 0.881369 74.4369C1.4457 73.9086 2.2111 73.6118 3.00919 73.6118C3.80728 73.6118 4.57268 73.9086 5.13701 74.4369C5.70134 74.9652 6.01838 75.6817 6.01838 76.4288V82.0628C6.01747 82.8096 5.70013 83.5256 5.136 84.0537C4.57186 84.5818 3.807 84.8789 3.00919 84.8797Z" fill="#424242"/>
<path d="M3.00919 113.769C2.21138 113.768 1.44651 113.471 0.882379 112.943C0.318244 112.415 0.000911923 111.699 0 110.952V95.4434C0 94.6963 0.317036 93.9798 0.881369 93.4515C1.4457 92.9232 2.2111 92.6264 3.00919 92.6264C3.80728 92.6264 4.57268 92.9232 5.13701 93.4515C5.70134 93.9798 6.01838 94.6963 6.01838 95.4434V110.952C6.01747 111.699 5.70013 112.415 5.136 112.943C4.57186 113.471 3.807 113.768 3.00919 113.769Z" fill="#424242"/>
<path d="M3.00919 136.994C2.21138 136.993 1.44651 136.696 0.882379 136.168C0.318244 135.64 0.000911923 134.924 0 134.177V118.668C0 117.921 0.317036 117.205 0.881369 116.676C1.4457 116.148 2.2111 115.851 3.00919 115.851C3.80728 115.851 4.57268 116.148 5.13701 116.676C5.70134 117.205 6.01838 117.921 6.01838 118.668V134.177C6.01746 134.924 5.70013 135.64 5.136 136.168C4.57186 136.696 3.80699 136.993 3.00919 136.994Z" fill="#424242"/>
<path d="M249.764 80.8458C248.967 80.8452 248.202 81.1408 247.638 81.6677C247.074 82.1946 246.756 82.9097 246.755 83.6557V121.502C246.755 122.249 247.072 122.965 247.636 123.494C248.2 124.022 248.966 124.319 249.764 124.319C250.562 124.319 251.327 124.022 251.892 123.494C252.456 122.965 252.773 122.249 252.773 121.502V83.6557C252.77 82.91 252.452 82.1957 251.888 81.669C251.324 81.1424 250.56 80.8464 249.764 80.8458Z" fill="#424242"/>
<path d="M59.8722 20.4928H39.5602C38.5626 20.4928 37.6058 20.1218 36.9004 19.4614C36.195 18.8011 35.7987 17.9055 35.7987 16.9716C35.7987 16.0377 36.195 15.142 36.9004 14.4817C37.6058 13.8213 38.5626 13.4503 39.5602 13.4503H59.8722C60.8698 13.4503 61.8266 13.8213 62.532 14.4817C63.2374 15.142 63.6337 16.0377 63.6337 16.9716C63.6337 17.9055 63.2374 18.8011 62.532 19.4614C61.8266 20.1218 60.8698 20.4928 59.8722 20.4928Z" fill="#BDBDBD"/>
<path d="M177.887 373.076C172.227 373.408 169.099 366.824 173.381 362.987C173.538 362.404 173.65 361.985 173.807 361.402C173.751 361.274 173.695 361.148 173.638 361.021C167.913 348.243 156.322 355.416 142.837 361.128C131.714 365.839 120.504 371.976 129.806 395.873C131.76 400.892 129.417 406.575 130.673 411.777C118.841 387.615 112.697 361.354 112.658 334.775C112.655 328.105 113.051 321.44 113.843 314.812C114.498 309.378 115.407 303.983 116.569 298.626C121.45 276.333 130.604 255.051 143.589 235.812C141.936 235.833 140.281 235.85 138.622 235.863C135.638 240.424 132.858 245.093 130.28 249.871C130.87 245.232 130.967 240.549 130.57 235.892C110.46 235.885 90.3652 235.283 72.5987 234.086C73.2726 285.058 93.3721 295.688 118.02 271.275C118.71 271.606 119.383 271.937 120.073 272.252C114.136 288.002 110.412 304.408 108.994 321.057C108.192 330.88 108.239 340.747 109.136 350.563C109.118 350.447 109.1 350.331 109.083 350.215C106.817 339.3 100.598 329.452 91.4741 322.333C77.9233 311.913 58.7786 308.075 44.1597 299.699C37.1226 295.667 28.105 300.878 29.3332 308.515C29.3528 308.637 29.3727 308.759 29.393 308.881C31.5722 309.712 33.6941 310.669 35.7462 311.747C36.9205 312.367 38.07 313.026 39.1948 313.722C45.6049 317.69 43.3895 326.993 35.7943 328.09L35.6221 328.115C35.4983 328.131 35.3921 328.148 35.2684 328.165C38.9919 336.487 44.218 344.148 50.7178 350.811C52.5302 403.163 81.9545 396.413 113.436 376.572H113.454C116.651 389.577 121.283 402.236 127.275 414.345H176.65C176.827 413.831 176.986 413.301 177.146 412.787C172.576 413.056 167.987 412.8 163.484 412.025C167.147 407.817 170.81 403.576 174.473 399.368C174.555 399.29 174.632 399.207 174.704 399.12C176.562 396.966 178.438 394.829 180.296 392.675L180.297 392.673C180.396 386.071 179.587 379.485 177.889 373.077L177.887 373.076Z" fill="#246BFD"/>
<path d="M125.276 213.424C120.486 202.607 111.507 193.496 103.601 184.145C94.1045 172.912 74.6305 177.814 72.9574 192.053C72.9412 192.191 72.9254 192.329 72.91 192.467C74.0844 193.087 75.2339 193.745 76.3586 194.442C82.7688 198.41 80.5534 207.712 72.9581 208.81L72.7862 208.835C73.2045 212.797 73.944 216.723 74.9983 220.581C73.7374 225 72.9339 229.523 72.5988 234.086C90.3653 235.283 110.46 235.885 130.57 235.892C129.918 227.613 127.951 219.46 125.276 213.424Z" fill="#BDBDBD"/>
<path d="M176.968 199.715C178.731 196.433 179.977 192.928 180.667 189.311C179.588 189.444 176.597 174.053 177.411 173.109C175.907 170.972 173.214 169.91 171.571 167.824C163.399 157.453 152.141 159.264 146.264 173.358C133.709 179.29 133.587 189.127 141.291 198.589C146.192 204.608 146.866 212.753 151.166 219.198C150.724 219.728 150.264 220.241 149.821 220.772C145.245 226.278 141.004 232.022 137.118 237.976C138.776 237.963 140.432 237.946 142.085 237.925C145.985 232.149 150.228 226.583 154.794 221.252C164.364 216.364 172.103 208.848 176.968 199.715Z" fill="#BDBDBD"/>
<path opacity="0.1" d="M244.751 41.2277V220.486C244.751 241.156 7.77771 241.156 7.77771 220.486V41.2277C7.79 31.2891 12.0129 21.7608 19.5201 14.7331C27.0273 7.70546 37.2057 3.75226 47.8225 3.74075H68.3376V10.3747C68.3378 13.3781 69.6124 16.2583 71.881 18.382C74.1495 20.5057 77.2263 21.6988 80.4346 21.699C105.866 29.1762 137.263 27.9453 172.094 21.699C175.303 21.6988 178.38 20.5057 180.648 18.382C182.917 16.2583 184.191 13.3781 184.191 10.3747V3.74075H204.707C215.323 3.75226 225.502 7.70546 233.009 14.7331C240.516 21.7608 244.739 31.2891 244.751 41.2277Z" fill="#212121"/>
<path d="M148.798 60.5988H142.027C139.434 60.6014 136.948 61.5669 135.115 63.2832C133.281 64.9996 132.25 67.3267 132.247 69.7539V76.7964H120.211C117.618 76.7991 115.132 77.7645 113.298 79.4808C111.465 81.1972 110.434 83.5243 110.431 85.9516V100.036C110.434 102.464 111.465 104.791 113.298 106.507C115.132 108.224 117.618 109.189 120.211 109.192H135.256C137.849 109.189 140.335 108.224 142.169 106.507C144.002 104.791 145.033 102.464 145.036 100.036V85.9516C145.033 83.5243 144.002 81.1972 142.169 79.4809C140.335 77.7645 137.849 76.7991 135.256 76.7964H133.752V69.7539C133.754 67.7001 134.627 65.7311 136.178 64.2788C137.73 62.8265 139.833 62.0096 142.027 62.0072H148.798C150.992 62.0096 153.095 62.8265 154.647 64.2788C156.198 65.7311 157.071 67.7001 157.073 69.7539V77.5006H158.578V69.7539C158.575 67.3267 157.544 64.9996 155.71 63.2832C153.877 61.5669 151.391 60.6014 148.798 60.5988ZM143.532 85.9516V100.036C143.529 102.09 142.657 104.059 141.105 105.512C139.554 106.964 137.45 107.781 135.256 107.783H120.211C118.017 107.781 115.913 106.964 114.362 105.512C112.81 104.059 111.938 102.09 111.935 100.036V85.9516C111.938 83.8977 112.81 81.9287 114.362 80.4764C115.913 79.0241 118.017 78.2072 120.211 78.2049C127.334 82.0848 131.259 80.078 135.256 78.2049C137.45 78.2072 139.554 79.0241 141.105 80.4764C142.657 81.9287 143.529 83.8977 143.532 85.9516Z" fill="white"/>
<path d="M127.734 99.3322C129.073 99.3322 130.382 98.9605 131.495 98.264C132.609 97.5676 133.476 96.5777 133.989 95.4195C134.501 94.2614 134.635 92.987 134.374 91.7575C134.113 90.528 133.468 89.3987 132.521 88.5122C131.574 87.6258 130.368 87.0222 129.054 86.7776C127.741 86.5331 126.38 86.6586 125.143 87.1383C123.905 87.618 122.848 88.4304 122.104 89.4727C121.36 90.515 120.963 91.7404 120.963 92.994C120.965 94.6744 121.679 96.2854 122.948 97.4737C124.218 98.6619 125.939 99.3303 127.734 99.3322ZM127.734 91.5855C130.637 91.5855 133 90.2757 133 92.994C133 94.3015 132.445 95.5554 131.457 96.4799C130.47 97.4044 129.13 97.9237 127.734 97.9237C126.337 97.9237 124.997 97.4044 124.01 96.4799C123.022 95.5554 122.467 94.3015 122.467 92.994C122.467 90.2757 124.83 91.5855 127.734 91.5855Z" fill="white"/>
<path d="M127.734 95.1068C128.98 95.1068 129.99 94.1609 129.99 92.9941C129.99 91.8272 128.98 90.8813 127.734 90.8813C126.487 90.8813 125.477 91.8272 125.477 92.9941C125.477 94.1609 126.487 95.1068 127.734 95.1068Z" fill="white"/>
<path d="M252.773 101.445H247.349V102.853H252.773V101.445Z" fill="white"/>
<path opacity="0.1" d="M8.11829 216.978V220.499C8.11829 241.169 245.092 241.169 245.092 220.499V216.978C245.092 237.648 8.11829 237.648 8.11829 216.978Z" fill="#212121"/>
<path d="M217.428 267.362C218.9 267.081 220.196 266.274 221.042 265.112C221.888 263.95 222.216 262.525 221.956 261.14C221.899 260.859 221.816 260.583 221.71 260.315L237.124 248.214L233.316 238.732L214.116 257.446C212.963 257.944 212.018 258.785 211.43 259.839C210.841 260.892 210.641 262.098 210.862 263.269C211.129 264.612 211.956 265.801 213.159 266.574C214.363 267.347 215.845 267.64 217.28 267.39C217.329 267.381 217.379 267.372 217.428 267.362Z" fill="#A0616A"/>
<path d="M224.686 195.959L218.573 200.522C218.573 200.522 211.269 212.954 216.505 215.533C221.741 218.111 238.019 226.686 238.019 226.686C238.019 226.686 231.291 232.956 230.498 236.001C229.704 239.046 231.461 241.751 228.673 241.114C225.885 240.478 225.805 242.551 225.125 245.161C224.445 247.771 219.911 250.175 219.911 250.175L228.577 256.16C228.577 256.16 232.589 257.487 232.918 254.335C233.246 251.184 232.333 251.629 235.121 252.266C237.909 252.902 240.258 248.818 241.743 245.009C243.228 241.201 258.379 223.472 258.379 223.472L242.527 206.959C237.689 201.918 231.544 198.13 224.686 195.959V195.959Z" fill="#246BFD"/>
<path d="M223.293 454.73L216.982 454.68L214.189 431.362L223.503 431.436L223.293 454.73Z" fill="#A0616A"/>
<path d="M203.079 464.124C203.073 464.824 203.365 465.498 203.889 465.998C204.414 466.497 205.128 466.782 205.876 466.789L218.424 466.887L220.62 462.718L221.427 466.908L226.161 466.948L224.966 452.006L223.319 451.904L216.6 451.47L214.433 451.334L214.395 455.562L204.315 461.962C203.938 462.201 203.628 462.524 203.413 462.9C203.197 463.277 203.083 463.697 203.079 464.124Z" fill="#212121"/>
<path d="M165.354 454.73L159.044 454.68L156.25 431.362L165.564 431.436L165.354 454.73Z" fill="#A0616A"/>
<path d="M145.14 464.124C145.135 464.824 145.426 465.498 145.95 465.998C146.475 466.497 147.19 466.782 147.938 466.789L160.485 466.887L162.682 462.718L163.488 466.908L168.223 466.948L167.027 452.006L165.38 451.904L158.662 451.47L156.494 451.334L156.456 455.562L146.377 461.962C145.999 462.202 145.689 462.524 145.474 462.9C145.259 463.277 145.144 463.697 145.14 464.124Z" fill="#212121"/>
<path d="M181.681 257.27C181.681 257.27 169.564 262.858 172.723 266.222C175.882 269.585 173.285 271.487 169.348 274.647C165.41 277.806 157.483 314.817 157.483 314.817L147.219 372.149C147.219 372.149 149.942 422.21 151.77 423.992C153.597 425.775 156.41 423.142 153.597 425.775C150.785 428.408 148.535 426.302 150.785 428.408C153.035 430.515 153.597 436.307 153.597 436.307L168.174 435.157C168.174 435.157 177.662 396.678 171.255 379.632L196.391 317.275L203.99 377.443C203.99 377.443 208.161 426.302 210.973 427.882C213.786 429.461 215.812 429.568 213.393 431.621C210.973 433.674 210.973 430.515 210.973 433.674V438.915L224.58 440.663C224.58 440.663 230.9 393.823 227.968 372.149L236.849 299.396L229.931 266.611L222.786 257.796L181.681 257.27Z" fill="#212121"/>
<path d="M123.206 239.537C124.419 240.367 125.93 240.72 127.417 240.523C128.905 240.325 130.251 239.592 131.169 238.479C131.352 238.25 131.514 238.008 131.655 237.754L151.591 240.268L156.513 231.247L128.805 230.567C127.635 230.104 126.334 230.017 125.106 230.32C123.878 230.622 122.791 231.296 122.015 232.238C121.579 232.777 121.261 233.392 121.079 234.046C120.897 234.701 120.854 235.383 120.953 236.053C121.053 236.723 121.292 237.368 121.658 237.952C122.023 238.535 122.508 239.046 123.085 239.454C123.125 239.482 123.165 239.51 123.206 239.537Z" fill="#A0616A"/>
<path d="M184.471 196.464L176.752 195.308C176.752 195.308 167.486 200.044 168.977 205.403C170.468 210.763 169.191 226.386 169.191 226.386C169.191 226.386 159.71 225.954 156.771 227.456C153.833 228.958 152.88 231.996 151.504 229.638C150.129 227.28 151.579 226.029 149.06 227.316C146.541 228.603 138.449 229.679 138.449 229.679L135.196 240.048C135.196 240.048 139.716 245.866 142.425 243.971C145.135 242.076 145.668 239.253 147.043 241.611C148.418 243.969 148.802 248.364 152.81 246.826C156.817 245.288 185.444 238.309 185.444 238.309L188.904 205.932L184.471 196.464Z" fill="#246BFD"/>
<path d="M176.937 265.264C176.937 265.264 171.487 257.12 172.524 255.926C173.562 254.732 174.862 256.796 172.524 254.711C170.187 252.626 183.295 238.71 184.156 236.66C185.017 234.61 171.035 198.819 171.035 198.819L182.943 192.105L193.007 178.851L211.007 181.546L217.34 193.563L226.284 196.518L227.037 197.222V219.054C227.037 219.054 231.018 237.689 222.259 244.104C222.259 244.104 226.438 252.626 225.313 254.206C224.188 255.785 244.416 276.543 228.541 278.915C211.153 281.512 174.062 264.343 176.937 265.264Z" fill="#246BFD"/>
<path d="M87.6602 467.125C87.6598 467.236 87.6827 467.345 87.7276 467.447C87.7724 467.548 87.8384 467.641 87.9216 467.719C88.0048 467.797 88.1036 467.858 88.2124 467.9C88.3212 467.942 88.4378 467.964 88.5554 467.964H279.105C279.342 467.964 279.57 467.875 279.738 467.718C279.906 467.561 280 467.348 280 467.125C280 466.903 279.906 466.69 279.738 466.533C279.57 466.376 279.342 466.287 279.105 466.287H88.5554C88.4378 466.287 88.3212 466.309 88.2124 466.351C88.1036 466.393 88.0048 466.454 87.9216 466.532C87.8384 466.61 87.7725 466.703 87.7276 466.804C87.6827 466.906 87.6598 467.015 87.6602 467.125Z" fill="#E0E0E0"/>
<path d="M204.658 182.169C214.781 182.169 222.987 174.487 222.987 165.011C222.987 155.535 214.781 147.853 204.658 147.853C194.536 147.853 186.33 155.535 186.33 165.011C186.33 174.487 194.536 182.169 204.658 182.169Z" fill="#A0616A"/>
<path d="M218.821 152.326C218.633 150.782 217.502 148.874 216.716 147.505C215.929 146.136 214.411 145.018 212.754 145.114C212.077 145.187 211.429 145.413 210.865 145.772C210.301 146.13 209.838 146.611 209.516 147.174C208.883 148.306 208.539 149.559 208.509 150.837C208.336 153.686 208.844 156.537 209.997 159.179C211.15 161.822 212.918 164.19 215.173 166.112C216.457 167.191 218.003 168.15 219.728 168.187C220.512 168.169 221.283 168.005 221.998 167.704C222.713 167.403 223.356 166.972 223.89 166.435C226.682 163.817 227.104 159.513 225.613 156.087C224.122 152.661 223.456 151.328 220.047 149.457" fill="#212121"/>
<path d="M193.074 177.003C193.38 178.53 190.56 185.789 191.461 187.098C191.461 187.098 200.793 190.132 204.36 190.35C208.719 190.614 212.225 188.94 216.302 186.421C216.376 185.054 216.798 183.724 217.534 182.541C217.472 183.457 217.671 184.372 218.11 185.193C233.379 181.642 229.641 168.815 220.419 162.806L214.289 149.607C216.128 150.181 210.576 141.314 204.721 147.735C197.396 140.751 183.204 150.806 181.426 159.787C183.137 157.76 184.028 157.999 184.467 159.397C184.971 158.221 185.77 157.176 186.796 156.349C186.286 157.293 186.025 158.338 186.036 159.397C197.592 160.068 195.441 167.366 185.969 178.298C189.472 176.257 187.108 185.053 188.979 187.155C189.07 185.686 192.743 178.432 193.074 177.003Z" fill="#212121"/>
<path d="M209.75 162.947C209.897 162.947 210.04 162.897 210.152 162.806C210.263 162.715 210.336 162.589 210.356 162.452C210.376 162.315 210.343 162.176 210.262 162.06C210.182 161.944 210.059 161.859 209.917 161.821C209.785 161.115 209.771 160.394 209.875 159.684C210.074 156.514 210.408 151.208 204.906 147.627C204.772 147.54 204.608 147.507 204.448 147.534C204.289 147.561 204.147 147.647 204.054 147.771C203.962 147.896 203.926 148.05 203.954 148.199C203.982 148.349 204.073 148.482 204.206 148.569C209.144 151.783 208.847 156.497 208.651 159.616C208.539 161.4 208.458 162.688 209.613 162.933C209.658 162.942 209.704 162.947 209.75 162.947Z" fill="#246BFD"/>
<path d="M209.464 150.404C213.206 148.951 217.191 148.124 221.238 147.962C224.449 147.834 228.279 148.504 229.584 151.253C230.375 152.921 229.954 154.875 229.23 156.569C228.505 158.264 225.121 161.684 227.07 161.646C231.965 161.553 234.054 165.65 231.571 172.017C230.131 175.71 239.067 175.568 243.233 176.062C240.103 177.149 236.925 178.247 233.598 178.508C230.271 178.768 226.718 178.091 224.234 176.003C221.546 173.744 220.513 170.234 220.056 166.879C219.599 163.524 219.575 160.069 218.36 156.884C217.146 153.699 214.355 150.733 210.755 150.451" fill="#212121"/>
</g>
<defs>
<clipPath id="clip0_1155_18526">
<rect width="280" height="467.945" fill="white" transform="translate(0 0.0182495)"/>
</clipPath>
</defs>
</svg>
