<svg width="186" height="180" viewBox="0 0 186 180" fill="none" xmlns="http://www.w3.org/2000/svg">
<circle cx="95.5002" cy="90.5" r="70.5" fill="url(#paint0_linear_2338_13252)"/>
<circle cx="178.467" cy="27.5" r="7.5" fill="#7CA6FE"/>
<circle cx="20.0334" cy="10" r="10" fill="#7CA6FE"/>
<circle cx="10.0334" cy="133" r="5" fill="#7CA6FE"/>
<circle cx="165.533" cy="160.5" r="2.5" fill="#7CA6FE"/>
<path fill-rule="evenodd" clip-rule="evenodd" d="M108.873 76.3292C108.972 76.5011 109.144 76.6239 109.365 76.6239C115.265 76.6239 120.083 81.4369 120.083 87.3303V101.917C120.083 107.81 115.265 112.623 109.365 112.623H81.6351C75.7106 112.623 70.9168 107.81 70.9168 101.917V87.3303C70.9168 81.4369 75.7106 76.6239 81.6351 76.6239C81.8318 76.6239 82.0285 76.5257 82.1022 76.3292L82.2497 76.0345C82.3345 75.8562 82.4215 75.6729 82.5098 75.4869C83.1387 74.1623 83.8344 72.6968 84.2656 71.8354C85.3964 69.6254 87.3139 68.3976 89.6985 68.373H101.277C103.662 68.3976 105.604 69.6254 106.735 71.8354C107.122 72.6089 107.712 73.8549 108.28 75.0557C108.398 75.3036 108.514 75.5495 108.628 75.789L108.873 76.3292ZM107.079 85.7574C107.079 86.9852 108.062 87.9675 109.291 87.9675C110.52 87.9675 111.528 86.9852 111.528 85.7574C111.528 84.5296 110.52 83.5228 109.291 83.5228C108.062 83.5228 107.079 84.5296 107.079 85.7574ZM91.2469 89.5659C92.4023 88.4117 93.9019 87.7978 95.4998 87.7978C97.0977 87.7978 98.5973 88.4117 99.7281 89.5413C100.859 90.6709 101.474 92.1688 101.474 93.7649C101.449 97.0555 98.794 99.7321 95.4998 99.7321C93.9019 99.7321 92.4023 99.1182 91.2715 97.9886C90.1406 96.859 89.5261 95.3611 89.5261 93.7649V93.7404C89.5015 92.1934 90.1161 90.6954 91.2469 89.5659ZM102.31 100.589C100.564 102.333 98.1551 103.413 95.5001 103.413C92.9188 103.413 90.5097 102.407 88.6659 100.589C86.8468 98.7478 85.8388 96.3413 85.8388 93.7629C85.8143 91.2091 86.8222 88.8026 88.6413 86.9609C90.4851 85.1192 92.9188 84.1124 95.5001 84.1124C98.0813 84.1124 100.515 85.1192 102.334 86.9363C104.153 88.778 105.161 91.2091 105.161 93.7629C105.137 96.4395 104.055 98.846 102.31 100.589Z" fill="white"/>
<circle cx="106.533" cy="4.5" r="2.5" fill="#7CA6FE"/>
<circle cx="62.5334" cy="176.5" r="3.5" fill="#7CA6FE"/>
<circle cx="122.033" cy="171" r="1" fill="#7CA6FE"/>
<circle cx="170.533" cy="110.5" r="2.5" fill="#7CA6FE"/>
<circle cx="1.03345" cy="75" r="1" fill="#7CA6FE"/>
<defs>
<linearGradient id="paint0_linear_2338_13252" x1="166" y1="161" x2="-1.7771" y2="112.355" gradientUnits="userSpaceOnUse">
<stop stop-color="#246BFD"/>
<stop offset="1" stop-color="#6F9EFF"/>
</linearGradient>
</defs>
</svg>
