<svg width="368" height="271" viewBox="0 0 368 271" fill="none" xmlns="http://www.w3.org/2000/svg">
<g clip-path="url(#clip0_1129_8423)">
<path d="M341.552 270.333V239.674C341.552 239.674 353.5 261.41 341.552 270.333Z" fill="#F1F1F1"/>
<path d="M342.29 270.328L319.704 249.594C319.704 249.594 343.797 255.491 342.29 270.328Z" fill="#F1F1F1"/>
<path d="M269.023 265.447L264.508 265.447L262.36 248.032L269.024 248.032L269.023 265.447Z" fill="#FFB7B7"/>
<path d="M270.174 269.823L255.617 269.823V269.638C255.617 268.136 256.214 266.694 257.276 265.632C258.339 264.569 259.78 263.972 261.283 263.972H261.283L270.175 263.973L270.174 269.823Z" fill="#2F2E41"/>
<path d="M305.336 262.074L300.979 263.262L294.325 247.026L300.754 245.273L305.336 262.074Z" fill="#FFB7B7"/>
<path d="M307.598 265.993L293.553 269.823L293.504 269.645C293.109 268.196 293.306 266.648 294.051 265.343C294.797 264.039 296.03 263.083 297.48 262.688L297.48 262.688L306.059 260.349L307.598 265.993Z" fill="#2F2E41"/>
<path d="M367.203 270.161H205.726C205.614 270.161 205.506 270.116 205.426 270.037C205.347 269.958 205.302 269.85 205.302 269.737C205.302 269.625 205.347 269.517 205.426 269.438C205.506 269.358 205.614 269.313 205.726 269.313H367.203C367.316 269.313 367.423 269.358 367.503 269.438C367.582 269.517 367.627 269.625 367.627 269.737C367.627 269.85 367.582 269.958 367.503 270.037C367.423 270.116 367.316 270.161 367.203 270.161Z" fill="#CBCBCB"/>
<path d="M260.781 190.221L258.528 224.421L263.366 262.791L271.291 260.372L271.624 226.089L277.964 206.32L296.732 259.121L305.324 255.951L298.233 221.668L294.23 189.47L260.781 190.221Z" fill="#2F2E41"/>
<path d="M244.72 189.347C244.67 188.785 244.743 188.22 244.935 187.69C245.127 187.16 245.433 186.679 245.831 186.28C246.229 185.881 246.709 185.574 247.239 185.381C247.768 185.188 248.334 185.114 248.895 185.163L252.967 177.351L258.317 178.668L252.412 189.618C252.267 190.556 251.783 191.408 251.052 192.012C250.321 192.617 249.394 192.933 248.445 192.899C247.497 192.866 246.594 192.486 245.908 191.831C245.221 191.176 244.798 190.292 244.72 189.347H244.72Z" fill="#FFB7B7"/>
<path d="M282.676 130.165L269.331 132.133L264.524 136.888L263.031 153.97L263.959 169.102L260.094 195.785C260.094 195.785 269.812 190.39 277.344 197.144C284.875 203.897 295.414 198.337 295.63 193.845L282.676 130.165Z" fill="#CBCBCB"/>
<path d="M268.553 150.096L269.769 131.778C261.12 132.316 261.251 138.448 261.261 138.716L261.166 166.116L259.434 195.429L265.732 194.957L268.553 150.096Z" fill="#2F2E41"/>
<path d="M249.051 183.428L256.729 165.607L262.089 155.765L264.887 173.519L255.172 188.091L249.051 183.428Z" fill="#2F2E41"/>
<path d="M275.9 151.59L275.899 151.571L282.529 129.963L282.614 129.957C283.086 129.926 294.2 129.271 296.686 134.759L296.698 134.785L295.943 157.241L296.983 192.41L276.427 196.862L276.278 196.894L275.9 151.59Z" fill="#2F2E41"/>
<path d="M280.785 176.871C280.902 176.319 281.139 175.801 281.479 175.351C281.818 174.901 282.253 174.532 282.751 174.268C283.249 174.004 283.799 173.853 284.361 173.825C284.924 173.796 285.486 173.892 286.008 174.105L292.203 167.842L296.927 170.678L288.055 179.399C287.64 180.253 286.926 180.924 286.049 181.286C285.172 181.648 284.193 181.676 283.296 181.364C282.4 181.052 281.65 180.423 281.187 179.595C280.724 178.766 280.581 177.797 280.785 176.871Z" fill="#FFB7B7"/>
<path d="M285.994 171.818L298.624 157.962L290.264 146.032L291.124 140.2L296.052 134.113L296.148 134.237C296.673 134.917 309.016 150.952 309.37 157.023C309.726 163.116 291.985 178.528 291.229 179.181L291.124 179.272L285.994 171.818Z" fill="#2F2E41"/>
<path d="M274.976 128.664C279.934 128.664 283.953 124.645 283.953 119.687C283.953 114.729 279.934 110.71 274.976 110.71C270.018 110.71 265.999 114.729 265.999 119.687C265.999 124.645 270.018 128.664 274.976 128.664Z" fill="#FFB7B7"/>
<path d="M283.419 112.51L283.854 111.635L281.664 110.546C281.664 110.546 279.249 106.616 274.877 107.72C270.506 108.825 268.539 109.486 268.539 109.486L266.355 110.585L267.451 111.676L265.484 112.337L266.798 112.99L265.269 113.869L266.092 118.373C266.092 118.373 267.459 114.957 270.087 116.262C272.715 117.568 277.522 115.587 277.522 115.587L281.697 123.669C281.697 123.669 282.559 120.836 284.095 121.591C284.095 121.591 288.019 115.342 283.419 112.51Z" fill="#2F2E41"/>
<path d="M181.842 163.335L45.3267 200.984L0.373062 37.9821L136.888 0.333252L181.842 163.335Z" fill="white"/>
<path d="M181.842 163.335L45.3267 200.984L0.373062 37.9821L136.888 0.333252L181.842 163.335ZM47.0709 197.912L178.769 161.591L135.144 3.40576L3.44559 39.7263L47.0709 197.912Z" fill="#F1F1F1"/>
<path d="M107.179 73.3554L72.9593 82.7928C72.4765 82.9254 71.9609 82.861 71.5256 82.6139C71.0903 82.3667 70.7707 81.957 70.6371 81.4746L61.1997 47.2546C61.0671 46.7718 61.1315 46.2562 61.3786 45.8209C61.6257 45.3855 62.0355 45.066 62.5179 44.9324L96.7379 35.495C97.2207 35.3624 97.7363 35.4268 98.1716 35.6739C98.6069 35.921 98.9265 36.3307 99.0601 36.8132L108.498 71.0332C108.63 71.5159 108.566 72.0315 108.319 72.4669C108.071 72.9022 107.662 73.2218 107.179 73.3554ZM62.7187 45.6605C62.4292 45.7406 62.1833 45.9324 62.0351 46.1936C61.8868 46.4548 61.8482 46.7642 61.9277 47.0538L71.3651 81.2738C71.4453 81.5633 71.637 81.8091 71.8982 81.9574C72.1594 82.1057 72.4688 82.1443 72.7585 82.0648L106.978 72.6273C107.268 72.5472 107.514 72.3555 107.662 72.0942C107.81 71.833 107.849 71.5237 107.769 71.234L98.332 37.014C98.2518 36.7246 98.0601 36.4787 97.7989 36.3304C97.5377 36.1822 97.2283 36.1435 96.9387 36.2231L62.7187 45.6605Z" fill="#E5E5E5"/>
<path d="M98.5047 80.2527L64.2847 89.6901C63.8502 89.8094 63.3862 89.7515 62.9944 89.5291C62.6026 89.3066 62.315 88.9379 62.1947 88.5037L52.7573 54.2837C52.638 53.8492 52.6959 53.3852 52.9183 52.9934C53.1407 52.6015 53.5095 52.314 53.9437 52.1937L88.1637 42.7563C88.5981 42.637 89.0622 42.6949 89.454 42.9173C89.8458 43.1397 90.1334 43.5085 90.2537 43.9427L99.6911 78.1627C99.8103 78.5972 99.7524 79.0612 99.53 79.453C99.3076 79.8448 98.9389 80.1324 98.5047 80.2527Z" fill="#246BFD"/>
<path d="M138.147 84.9242L42.6522 111.26L43.6699 114.951L139.165 88.6144L138.147 84.9242Z" fill="#F1F1F1"/>
<path d="M140.8 94.546L45.3057 120.882L46.3234 124.572L141.818 98.2362L140.8 94.546Z" fill="#F1F1F1"/>
<path d="M143.454 104.168L47.9592 130.504L48.9769 134.194L144.472 107.858L143.454 104.168Z" fill="#F1F1F1"/>
<path d="M148.124 121.102L52.6294 147.438L53.6471 151.128L149.142 124.792L148.124 121.102Z" fill="#F1F1F1"/>
<path d="M150.778 130.723L55.2829 157.059L56.3006 160.75L151.795 134.413L150.778 130.723Z" fill="#F1F1F1"/>
<path d="M153.431 140.345L57.9364 166.681L58.9541 170.371L154.449 144.035L153.431 140.345Z" fill="#F1F1F1"/>
<path d="M225.541 200.439H83.9296V31.3523H225.541V200.439Z" fill="white"/>
<path d="M225.541 200.439H83.9296V31.3523H225.541V200.439ZM86.4279 197.941H223.043V33.8505H86.4279V197.941Z" fill="#E5E5E5"/>
<path d="M199.758 167.25H118.793V171.077H199.758V167.25Z" fill="#E5E5E5"/>
<path d="M199.758 157.297H118.793V161.125H199.758V157.297Z" fill="#E5E5E5"/>
<path d="M218.929 215C234.915 215 247.874 202.041 247.874 186.055C247.874 170.07 234.915 157.111 218.929 157.111C202.944 157.111 189.985 170.07 189.985 186.055C189.985 202.041 202.944 215 218.929 215Z" fill="#246BFD"/>
<path d="M226.949 184.209V178.671C226.95 177.617 226.743 176.574 226.34 175.6C225.937 174.626 225.347 173.742 224.602 172.996C223.857 172.251 222.973 171.66 222 171.256C221.026 170.853 219.983 170.646 218.93 170.646C217.876 170.646 216.833 170.853 215.859 171.256C214.886 171.66 214.002 172.251 213.257 172.996C212.512 173.742 211.922 174.626 211.519 175.6C211.116 176.574 210.909 177.617 210.91 178.671V184.209C209.838 184.257 208.826 184.717 208.085 185.492C207.343 186.268 206.929 187.299 206.928 188.372V201.46H230.931V188.372C230.93 187.299 230.516 186.268 229.774 185.492C229.033 184.717 228.021 184.257 226.949 184.209ZM218.93 173.475C220.307 173.476 221.628 174.024 222.602 174.998C223.576 175.973 224.123 177.293 224.125 178.671V184.199H213.734V178.671C213.736 177.293 214.283 175.973 215.257 174.998C216.231 174.024 217.552 173.476 218.93 173.475Z" fill="white"/>
<path d="M221.087 190.672C221.087 190.3 220.991 189.934 220.808 189.61C220.625 189.286 220.362 189.015 220.043 188.823C219.724 188.631 219.362 188.525 218.99 188.514C218.618 188.504 218.25 188.59 217.921 188.764C217.592 188.938 217.314 189.194 217.113 189.507C216.912 189.82 216.796 190.18 216.775 190.551C216.755 190.923 216.83 191.293 216.995 191.627C217.16 191.96 217.408 192.245 217.716 192.455V197.144H220.143V192.455C220.434 192.257 220.672 191.991 220.837 191.681C221.001 191.37 221.087 191.023 221.087 190.672Z" fill="#246BFD"/>
<path d="M199.758 147.344H118.793V151.172H199.758V147.344Z" fill="#E5E5E5"/>
<path d="M112.211 151.901C113.591 151.901 114.709 150.782 114.709 149.402C114.709 148.023 113.591 146.904 112.211 146.904C110.831 146.904 109.713 148.023 109.713 149.402C109.713 150.782 110.831 151.901 112.211 151.901Z" fill="#E5E5E5"/>
<path d="M199.758 123.947H118.793V127.775H199.758V123.947Z" fill="#246BFD"/>
<path d="M199.758 113.994H118.793V117.822H199.758V113.994Z" fill="#246BFD"/>
<path d="M199.758 104.041H118.793V107.869H199.758V104.041Z" fill="#246BFD"/>
<path d="M112.211 109.014C113.591 109.014 114.709 107.895 114.709 106.516C114.709 105.136 113.591 104.017 112.211 104.017C110.831 104.017 109.713 105.136 109.713 106.516C109.713 107.895 110.831 109.014 112.211 109.014Z" fill="#246BFD"/>
<path d="M199.758 81.0598H118.793V84.8878H199.758V81.0598Z" fill="#E5E5E5"/>
<path d="M199.758 71.1072H118.793V74.9352H199.758V71.1072Z" fill="#E5E5E5"/>
<path d="M199.758 61.1543H118.793V64.9823H199.758V61.1543Z" fill="#E5E5E5"/>
<path d="M112.211 65.7108C113.591 65.7108 114.709 64.5923 114.709 63.2126C114.709 61.8329 113.591 60.7144 112.211 60.7144C110.831 60.7144 109.713 61.8329 109.713 63.2126C109.713 64.5923 110.831 65.7108 112.211 65.7108Z" fill="#E5E5E5"/>
</g>
<defs>
<clipPath id="clip0_1129_8423">
<rect width="367.254" height="270" fill="white" transform="translate(0.373062 0.333252)"/>
</clipPath>
</defs>
</svg>
