<svg width="360" height="254" viewBox="0 0 360 254" fill="none" xmlns="http://www.w3.org/2000/svg">
<g clip-path="url(#clip0_1157_18958)">
<path d="M79.7728 25.4329H56.8149C54.6077 25.4349 52.4915 26.3133 50.9308 27.8753C49.3701 29.4374 48.4925 31.5553 48.4905 33.7644V58.6755C48.1969 58.6579 47.9034 58.6316 47.6142 58.5965C42.1753 58.0238 37.0044 55.9418 32.6844 52.5852C28.3645 49.2286 25.0675 44.7309 23.1649 39.5992C21.2624 34.4676 20.8301 28.906 21.9167 23.5416C23.0033 18.1771 25.5657 13.2232 29.3149 9.23829C33.0641 5.25339 37.8511 2.39599 43.1361 0.988262C48.421 -0.419468 53.9939 -0.321545 59.2262 1.27099C64.4585 2.86353 69.1423 5.88736 72.7495 10.0015C76.3566 14.1157 78.7436 19.1566 79.6415 24.5559C79.6896 24.8453 79.7335 25.1391 79.7728 25.4329Z" fill="#F6FAFD"/>
<path d="M350.799 24.5559H56.8149C54.3755 24.5586 52.0369 25.5296 50.312 27.256C48.5871 28.9823 47.6169 31.323 47.6142 33.7644V188.993C47.6169 191.434 48.5871 193.775 50.312 195.501C52.0369 197.228 54.3755 198.199 56.8149 198.201H350.799C353.239 198.199 355.577 197.228 357.302 195.501C359.027 193.775 359.997 191.434 360 188.993V33.7644C359.997 31.323 359.027 28.9823 357.302 27.256C355.577 25.5296 353.239 24.5586 350.799 24.5559ZM359.124 188.993C359.122 191.202 358.244 193.32 356.683 194.882C355.123 196.444 353.006 197.322 350.799 197.324H56.8149C54.6077 197.322 52.4915 196.444 50.9308 194.882C49.3701 193.32 48.4925 191.202 48.4905 188.993V33.7644C48.4925 31.5553 49.3701 29.4374 50.9308 27.8753C52.4915 26.3133 54.6077 25.4349 56.8149 25.4329H350.799C353.006 25.4349 355.123 26.3133 356.683 27.8753C358.244 29.4374 359.122 31.5553 359.124 33.7644V188.993Z" fill="#424242"/>
<path d="M336.341 49.7124H71.2732C71.157 49.7124 71.0455 49.6663 70.9634 49.584C70.8812 49.5018 70.835 49.3902 70.835 49.2739C70.835 49.1577 70.8812 49.0461 70.9634 48.9639C71.0455 48.8817 71.157 48.8354 71.2732 48.8354H336.341C336.457 48.8354 336.569 48.8817 336.651 48.9639C336.733 49.0461 336.779 49.1577 336.779 49.2739C336.779 49.3902 336.733 49.5018 336.651 49.584C336.569 49.6663 336.457 49.7124 336.341 49.7124Z" fill="#424242"/>
<path d="M146.193 179.346C146.077 179.346 145.966 179.3 145.883 179.217C145.801 179.135 145.755 179.024 145.755 178.907V34.6414C145.755 34.5251 145.801 34.4135 145.883 34.3313C145.966 34.2491 146.077 34.2029 146.193 34.2029C146.309 34.2029 146.421 34.2491 146.503 34.3313C146.585 34.4135 146.631 34.5251 146.631 34.6414V178.907C146.631 179.024 146.585 179.135 146.503 179.217C146.421 179.3 146.309 179.346 146.193 179.346Z" fill="#424242"/>
<path d="M212.351 179.346C212.234 179.346 212.123 179.3 212.041 179.217C211.959 179.135 211.912 179.024 211.912 178.907V34.6414C211.912 34.5251 211.959 34.4135 212.041 34.3313C212.123 34.2491 212.234 34.2029 212.351 34.2029C212.467 34.2029 212.578 34.2491 212.66 34.3313C212.743 34.4135 212.789 34.5251 212.789 34.6414V178.907C212.789 179.024 212.743 179.135 212.66 179.217C212.578 179.3 212.467 179.346 212.351 179.346Z" fill="#424242"/>
<path d="M278.508 179.346C278.392 179.346 278.28 179.3 278.198 179.217C278.116 179.135 278.07 179.024 278.07 178.907V34.6414C278.07 34.5251 278.116 34.4135 278.198 34.3313C278.28 34.2491 278.392 34.2029 278.508 34.2029C278.624 34.2029 278.736 34.2491 278.818 34.3313C278.9 34.4135 278.946 34.5251 278.946 34.6414V178.907C278.946 179.024 278.9 179.135 278.818 179.217C278.736 179.3 278.624 179.346 278.508 179.346Z" fill="#424242"/>
<path d="M103.658 94.9733H87.6485C87.1258 94.9727 86.6247 94.7646 86.255 94.3947C85.8854 94.0247 85.6775 93.5232 85.6769 93V74.0921C85.6775 73.569 85.8854 73.0674 86.255 72.6975C86.6247 72.3275 87.1258 72.1195 87.6485 72.1189H103.658C104.18 72.1195 104.682 72.3275 105.051 72.6975C105.421 73.0674 105.629 73.569 105.629 74.0921V93C105.629 93.5232 105.421 94.0247 105.051 94.3947C104.682 94.7646 104.18 94.9727 103.658 94.9733Z" fill="#246BFD"/>
<path d="M126.44 148.909H110.431C109.908 148.908 109.407 148.7 109.038 148.33C108.668 147.96 108.46 147.458 108.46 146.935V128.027C108.46 127.504 108.668 127.003 109.038 126.633C109.407 126.263 109.908 126.055 110.431 126.054H126.44C126.963 126.055 127.464 126.263 127.834 126.633C128.203 127.003 128.411 127.504 128.412 128.027V146.935C128.411 147.458 128.203 147.96 127.834 148.33C127.464 148.7 126.963 148.908 126.44 148.909Z" fill="#246BFD"/>
<path d="M178.14 106.374H162.13C161.608 106.374 161.107 106.165 160.737 105.796C160.367 105.426 160.159 104.924 160.159 104.401V85.493C160.159 84.9699 160.367 84.4683 160.737 84.0984C161.107 83.7284 161.608 83.5204 162.13 83.5198H178.14C178.662 83.5204 179.163 83.7284 179.533 84.0984C179.903 84.4683 180.111 84.9699 180.111 85.493V104.401C180.111 104.924 179.903 105.426 179.533 105.796C179.163 106.165 178.662 106.374 178.14 106.374Z" fill="#246BFD"/>
<path d="M245.173 85.7648H229.164C228.641 85.7642 228.14 85.5561 227.771 85.1861C227.401 84.8162 227.193 84.3147 227.193 83.7915V64.8836C227.193 64.3605 227.401 63.8589 227.771 63.489C228.14 63.1191 228.641 62.911 229.164 62.9104H245.173C245.696 62.911 246.197 63.1191 246.567 63.489C246.936 63.8589 247.144 64.3605 247.145 64.8836V83.7915C247.144 84.3147 246.936 84.8162 246.567 85.1862C246.197 85.5561 245.696 85.7642 245.173 85.7648Z" fill="#246BFD"/>
<path d="M306.95 85.7648H290.94C290.418 85.7642 289.916 85.5561 289.547 85.1861C289.177 84.8162 288.969 84.3147 288.969 83.7915V64.8836C288.969 64.3605 289.177 63.8589 289.547 63.489C289.916 63.1191 290.418 62.911 290.94 62.9104H306.95C307.472 62.911 307.973 63.1191 308.343 63.489C308.713 63.8589 308.921 64.3605 308.921 64.8836V83.7915C308.921 84.3147 308.713 84.8162 308.343 85.1862C307.973 85.5561 307.472 85.7642 306.95 85.7648Z" fill="#246BFD"/>
<path d="M335.428 91.0267H319.419C318.896 91.0261 318.395 90.818 318.025 90.4481C317.656 90.0782 317.448 89.5766 317.447 89.0535V70.1456C317.448 69.6225 317.656 69.1209 318.025 68.751C318.395 68.381 318.896 68.173 319.419 68.1724H335.428C335.951 68.173 336.452 68.381 336.821 68.751C337.191 69.1209 337.399 69.6225 337.399 70.1456V89.0535C337.399 89.5766 337.191 90.0782 336.821 90.4481C336.452 90.8181 335.951 91.0261 335.428 91.0267Z" fill="#4AAF57"/>
<path d="M322.722 124.791H306.713C306.19 124.791 305.689 124.582 305.319 124.213C304.95 123.843 304.742 123.341 304.741 122.818V103.91C304.742 103.387 304.95 102.885 305.319 102.515C305.689 102.145 306.19 101.937 306.713 101.937H322.722C323.245 101.937 323.746 102.145 324.116 102.515C324.485 102.885 324.693 103.387 324.694 103.91V122.818C324.693 123.341 324.485 123.843 324.116 124.213C323.746 124.582 323.245 124.791 322.722 124.791Z" fill="#4AAF57"/>
<path d="M268.394 117.775H252.385C251.862 117.775 251.361 117.566 250.991 117.197C250.622 116.827 250.414 116.325 250.413 115.802V96.894C250.414 96.3709 250.622 95.8693 250.991 95.4994C251.361 95.1294 251.862 94.9214 252.385 94.9208H268.394C268.917 94.9214 269.418 95.1294 269.788 95.4994C270.157 95.8693 270.365 96.3709 270.366 96.894V115.802C270.365 116.325 270.157 116.827 269.788 117.197C269.418 117.566 268.917 117.775 268.394 117.775Z" fill="#EA1E61"/>
<path d="M237.287 124.791H221.278C220.755 124.791 220.254 124.582 219.884 124.213C219.515 123.843 219.307 123.341 219.306 122.818V103.91C219.307 103.387 219.515 102.885 219.884 102.515C220.254 102.145 220.755 101.937 221.278 101.937H237.287C237.81 101.937 238.311 102.145 238.68 102.515C239.05 102.885 239.258 103.387 239.259 103.91V122.818C239.258 123.341 239.05 123.843 238.68 124.213C238.311 124.582 237.81 124.791 237.287 124.791Z" fill="#4AAF57"/>
<path d="M170.253 154.609H154.244C153.721 154.608 153.22 154.4 152.851 154.03C152.481 153.66 152.273 153.159 152.273 152.636V133.728C152.273 133.205 152.481 132.703 152.851 132.333C153.22 131.963 153.721 131.755 154.244 131.755H170.253C170.776 131.755 171.277 131.963 171.647 132.333C172.016 132.703 172.224 133.205 172.225 133.728V152.636C172.224 153.159 172.016 153.66 171.647 154.03C171.277 154.4 170.776 154.608 170.253 154.609Z" fill="#4AAF57"/>
<path d="M89.1995 129.615H73.1903C72.6676 129.614 72.1664 129.406 71.7968 129.036C71.4272 128.666 71.2193 128.165 71.2187 127.641V108.733C71.2193 108.21 71.4272 107.709 71.7968 107.339C72.1664 106.969 72.6676 106.761 73.1903 106.76H89.1995C89.7222 106.761 90.2234 106.969 90.593 107.339C90.9626 107.709 91.1705 108.21 91.1711 108.733V127.641C91.1705 128.165 90.9626 128.666 90.593 129.036C90.2234 129.406 89.7222 129.614 89.1995 129.615Z" fill="#EA1E61"/>
<path d="M134.327 94.9733H118.318C117.795 94.9727 117.294 94.7646 116.924 94.3947C116.554 94.0247 116.347 93.5232 116.346 93V74.0921C116.347 73.569 116.554 73.0674 116.924 72.6975C117.294 72.3275 117.795 72.1195 118.318 72.1189H134.327C134.849 72.1195 135.351 72.3275 135.72 72.6975C136.09 73.0674 136.298 73.569 136.298 74.0921V93C136.298 93.5232 136.09 94.0247 135.72 94.3947C135.351 94.7646 134.849 94.9727 134.327 94.9733Z" fill="#4AAF57"/>
<path d="M121.22 42.5344H96.2465C95.7817 42.5344 95.3359 42.3496 95.0073 42.0206C94.6786 41.6917 94.494 41.2455 94.494 40.7804C94.494 40.3152 94.6786 39.869 95.0073 39.5401C95.3359 39.2112 95.7817 39.0264 96.2465 39.0264H121.22C121.685 39.0264 122.13 39.2112 122.459 39.5401C122.788 39.869 122.972 40.3152 122.972 40.7804C122.972 41.2455 122.788 41.6917 122.459 42.0206C122.13 42.3496 121.685 42.5344 121.22 42.5344Z" fill="#009689"/>
<path d="M191.759 42.5344H166.785C166.32 42.5344 165.875 42.3496 165.546 42.0206C165.217 41.6917 165.033 41.2455 165.033 40.7804C165.033 40.3152 165.217 39.869 165.546 39.5401C165.875 39.2112 166.32 39.0264 166.785 39.0264H191.759C192.223 39.0264 192.669 39.2112 192.998 39.5401C193.326 39.869 193.511 40.3152 193.511 40.7804C193.511 41.2455 193.326 41.6917 192.998 42.0206C192.669 42.3496 192.223 42.5344 191.759 42.5344Z" fill="#009689"/>
<path d="M257.916 42.5344H232.943C232.478 42.5344 232.032 42.3496 231.703 42.0206C231.375 41.6917 231.19 41.2455 231.19 40.7804C231.19 40.3152 231.375 39.869 231.703 39.5401C232.032 39.2112 232.478 39.0264 232.943 39.0264H257.916C258.381 39.0264 258.827 39.2112 259.155 39.5401C259.484 39.869 259.668 40.3152 259.668 40.7804C259.668 41.2455 259.484 41.6917 259.155 42.0206C258.827 42.3496 258.381 42.5344 257.916 42.5344Z" fill="#009689"/>
<path d="M319.692 42.5344H294.719C294.254 42.5344 293.808 42.3496 293.48 42.0206C293.151 41.6917 292.966 41.2455 292.966 40.7804C292.966 40.3152 293.151 39.869 293.48 39.5401C293.808 39.2112 294.254 39.0264 294.719 39.0264H319.692C320.157 39.0264 320.603 39.2112 320.931 39.5401C321.26 39.869 321.445 40.3152 321.445 40.7804C321.445 41.2455 321.26 41.6917 320.931 42.0206C320.603 42.3496 320.157 42.5344 319.692 42.5344Z" fill="#009689"/>
<path d="M65.2852 170.967C64.6442 170.904 64.0247 170.701 63.4705 170.373C62.9162 170.044 62.4406 169.598 62.0772 169.066C61.7138 168.534 61.4714 167.928 61.3671 167.292C61.2628 166.656 61.2991 166.005 61.4735 165.384L50.243 154.921L56.1808 153.414L67.2242 162.378C68.2464 162.741 69.1003 163.466 69.6241 164.416C70.1479 165.366 70.3052 166.476 70.0662 167.534C69.8272 168.593 69.2085 169.527 68.3273 170.16C67.4462 170.792 66.3638 171.079 65.2852 170.967Z" fill="#FFB8B8"/>
<path d="M80.7927 248.301H86.1641L88.7193 227.565H80.7918L80.7927 248.301Z" fill="#FFB8B8"/>
<path d="M96.5233 253.292L79.6419 253.293L79.6416 246.765L90.0007 246.765C91.7305 246.765 93.3895 247.452 94.6127 248.676C95.836 249.901 96.5232 251.561 96.5233 253.292L96.5233 253.292Z" fill="#424242"/>
<path d="M43.9641 244.419L49.155 245.802L56.9541 226.422L49.2934 224.382L43.9641 244.419Z" fill="#FFB8B8"/>
<path d="M57.8825 253.294L41.5691 248.948L43.2468 242.64L53.2573 245.307C54.9289 245.752 56.3553 246.844 57.2227 248.342C58.0901 249.839 58.3275 251.621 57.8825 253.294Z" fill="#424242"/>
<path d="M87.6087 244.375H79.4125C78.8948 244.377 78.3951 244.185 78.0119 243.836C77.6287 243.488 77.3897 243.009 77.3418 242.493L72.3663 190.78C72.3298 190.4 72.1627 190.046 71.8937 189.776C71.6247 189.506 71.2704 189.339 70.8914 189.302C70.5125 189.265 70.1324 189.36 69.8164 189.573C69.5003 189.785 69.2678 190.101 69.1587 190.466L54.7121 238.789C54.5593 239.302 54.2143 239.737 53.749 240.002C53.2837 240.267 52.7341 240.342 52.2148 240.212L44.59 238.304C44.3239 238.237 44.0735 238.119 43.8534 237.955C43.6332 237.791 43.4476 237.585 43.3072 237.349C43.1669 237.114 43.0745 236.852 43.0354 236.581C42.9964 236.309 43.0114 236.032 43.0796 235.766C43.2041 235.279 55.5272 187.08 55.6348 186.585C58.4269 165.99 61.7673 160.471 63.5618 157.506C63.7104 157.261 63.8469 157.035 63.9698 156.822C64.1236 156.555 65.0706 153.908 65.6713 152.189C65.7493 151.91 65.8844 151.649 66.068 151.425C66.2517 151.2 66.4798 151.016 66.7382 150.884C74.2787 147.024 83.1011 149.696 85.6255 150.607C86.044 150.754 86.4035 151.033 86.6499 151.403C94.2228 162.835 90.5064 229.232 89.6845 242.427C89.6503 242.954 89.4167 243.45 89.0312 243.811C88.6457 244.173 88.1372 244.375 87.6087 244.375Z" fill="#424242"/>
<path d="M66.4572 113.389C72.4003 113.389 77.2181 108.567 77.2181 102.619C77.2181 96.6711 72.4003 91.8492 66.4572 91.8492C60.5141 91.8492 55.6963 96.6711 55.6963 102.619C55.6963 108.567 60.5141 113.389 66.4572 113.389Z" fill="#FFB8B8"/>
<path d="M65.317 154.28L65.2397 154.205C65.0947 154.065 50.7571 140.007 52.6126 127.008C53.4062 121.448 57.9009 117.895 65.6109 116.733C68.4433 116.312 71.3325 116.929 73.7472 118.469C76.1619 120.01 77.94 122.371 78.7546 125.118L86.378 151.202L65.317 154.28Z" fill="#009689"/>
<path d="M57.9788 164.279L47.7623 154.119C47.0638 153.42 46.5566 152.553 46.2896 151.602C46.0226 150.65 46.0047 149.646 46.2378 148.685L51.1836 128.55C51.3318 127.946 51.6021 127.38 51.9778 126.885C52.3535 126.391 52.8267 125.979 53.368 125.674C53.9093 125.37 54.5072 125.18 55.1247 125.117C55.7423 125.053 56.3663 125.117 56.9581 125.305C58.0862 125.669 59.0284 126.458 59.5853 127.505C60.1421 128.552 60.2698 129.775 59.9414 130.915L54.7344 148.629L63.1545 157.678L57.9788 164.279Z" fill="#009689"/>
<path d="M112.776 129.604C112.506 130.189 112.111 130.708 111.619 131.123C111.127 131.539 110.55 131.842 109.928 132.011C109.306 132.179 108.655 132.209 108.02 132.098C107.386 131.988 106.783 131.739 106.255 131.37L92.6165 138.445L93.2193 132.435L105.31 124.946C105.988 124.099 106.953 123.531 108.022 123.348C109.091 123.166 110.19 123.382 111.11 123.956C112.031 124.53 112.708 125.422 113.015 126.463C113.323 127.504 113.237 128.621 112.776 129.604H112.776Z" fill="#FFB8B8"/>
<path d="M104.766 134.077L91.4703 139.828C90.5853 140.207 89.6176 140.353 88.6603 140.25C87.7029 140.147 86.7881 139.8 86.0037 139.241L69.0968 127.117C68.5922 126.755 68.1672 126.293 67.848 125.76C67.5289 125.227 67.3224 124.635 67.2414 124.019C67.1603 123.403 67.2064 122.777 67.3768 122.179C67.5473 121.582 67.8384 121.026 68.2322 120.545C68.9889 119.632 70.071 119.05 71.2494 118.921C72.4277 118.793 73.6097 119.129 74.545 119.858L89.042 131.277L100.565 126.815L104.766 134.077Z" fill="#009689"/>
<path d="M68.2412 106.07C69.5687 104.406 72.0488 104.316 73.8724 103.218C76.2609 101.78 77.2485 98.5652 76.4787 95.8837C75.709 93.2022 73.439 91.1124 70.8363 90.1129C68.2337 89.1134 65.3381 89.1011 62.5925 89.5842C58.5047 90.3036 54.4801 92.2131 51.987 95.5342C49.4938 98.8553 48.8594 103.719 51.1188 107.204C52.1573 108.805 53.7604 110.127 54.175 111.991C54.7193 114.437 53.0046 116.797 51.1676 118.501C49.0747 120.442 46.6737 122.067 44.8401 124.255C43.0066 126.443 41.7839 129.432 42.6206 132.162C43.3216 134.45 45.3615 136.135 47.5984 136.979C49.8352 137.823 52.2715 137.945 54.6615 137.991C56.9824 138.037 59.4475 137.98 61.4026 136.728C63.4956 135.387 64.6131 132.844 64.6957 130.358C64.7782 127.872 63.9483 125.437 62.836 123.213C62.173 121.887 61.4021 120.603 60.9616 119.187C60.521 117.772 60.4447 116.166 61.1502 114.862C61.8918 113.492 63.3922 112.666 64.9199 112.365C64.9993 112.35 65.0833 112.336 65.1711 112.324C65.6058 112.267 66.0246 112.123 66.402 111.9C66.7795 111.677 67.1078 111.38 67.3672 111.026C67.6266 110.672 67.8116 110.27 67.9111 109.843C68.0105 109.415 68.0224 108.972 67.9459 108.54C67.7719 107.569 67.7869 106.64 68.2412 106.07Z" fill="#424242"/>
<path d="M211.717 248.76H206.345L203.79 228.024L211.717 228.025L211.717 248.76Z" fill="#A0616A"/>
<path d="M202.508 247.224H212.867V253.752H195.986C195.986 252.895 196.155 252.046 196.482 251.254C196.81 250.462 197.291 249.742 197.896 249.136C198.502 248.53 199.221 248.049 200.012 247.721C200.804 247.393 201.652 247.224 202.508 247.224Z" fill="#424242"/>
<path d="M250.69 242.671L245.805 244.904L234.872 227.106L242.083 223.809L250.69 242.671Z" fill="#A0616A"/>
<path d="M241.677 245.102L251.1 240.795L253.809 246.733L238.454 253.752C238.098 252.972 237.899 252.13 237.869 251.274C237.838 250.417 237.976 249.562 238.276 248.759C238.575 247.956 239.029 247.22 239.613 246.592C240.196 245.965 240.898 245.459 241.677 245.102Z" fill="#424242"/>
<path d="M235.048 178.845C235.563 178.457 235.986 177.961 236.289 177.392C236.591 176.823 236.765 176.194 236.799 175.551C236.832 174.907 236.724 174.263 236.482 173.666C236.24 173.069 235.871 172.531 235.399 172.092L241.713 157.754L233.692 159.114L228.925 172.522C228.241 173.364 227.889 174.428 227.936 175.512C227.983 176.596 228.426 177.626 229.181 178.405C229.935 179.184 230.95 179.66 232.031 179.741C233.112 179.822 234.186 179.503 235.048 178.845Z" fill="#A0616A"/>
<path d="M211.374 243.293H206.243C205.745 243.291 205.266 243.102 204.902 242.762C204.538 242.423 204.314 241.959 204.276 241.462L201.478 166.673C201.457 166.386 201.499 166.098 201.601 165.83C201.703 165.561 201.862 165.318 202.068 165.117C202.273 164.917 202.52 164.763 202.791 164.668C203.062 164.573 203.35 164.538 203.636 164.566L233.313 167.72C233.794 167.767 234.241 167.989 234.569 168.345C234.897 168.7 235.083 169.163 235.092 169.647L235.714 202.637C235.718 202.816 235.752 202.993 235.817 203.161L247.99 234.756C248.084 235 248.129 235.26 248.121 235.522C248.114 235.783 248.055 236.04 247.947 236.279C247.839 236.517 247.685 236.732 247.494 236.91C247.302 237.088 247.077 237.226 246.832 237.317L241.632 239.234C241.181 239.401 240.684 239.396 240.235 239.221C239.787 239.047 239.418 238.714 239.197 238.285L224.243 209.183C224.162 209.024 224.102 208.856 224.066 208.682L221.511 196.363C221.437 196.005 221.238 195.686 220.951 195.462C220.663 195.239 220.305 195.125 219.94 195.141C219.576 195.158 219.23 195.304 218.964 195.552C218.697 195.801 218.528 196.137 218.486 196.5L213.333 241.544C213.278 242.025 213.048 242.469 212.687 242.792C212.325 243.114 211.858 243.293 211.374 243.293Z" fill="#424242"/>
<path d="M213.929 108.195C219.872 108.195 224.69 103.373 224.69 97.4246C224.69 91.4765 219.872 86.6547 213.929 86.6547C207.986 86.6547 203.168 91.4765 203.168 97.4246C203.168 103.373 207.986 108.195 213.929 108.195Z" fill="#A0616A"/>
<path d="M221.309 173.511C214.012 173.431 206.888 171.271 200.773 167.285L200.668 167.213L200.679 167.086L204.795 119.107C204.937 117.48 205.663 115.958 206.839 114.825C208.014 113.691 209.561 113.022 211.191 112.941C216.526 112.696 223.691 113.005 227.527 115.865C233.324 120.186 236.118 126.693 235.192 133.717C233.273 148.283 235.447 167.933 235.702 170.125L235.72 170.283L235.576 170.35C231.107 172.43 226.238 173.509 221.309 173.511Z" fill="#246BFD"/>
<path d="M235.652 170.206C235.349 170.206 235.049 170.142 234.771 170.02C234.494 169.898 234.244 169.719 234.039 169.495L231.685 166.925C231.431 166.646 231.253 166.306 231.168 165.937C231.083 165.569 231.094 165.185 231.199 164.822L236.567 146.641L228.4 129.476C228.019 128.673 227.925 127.762 228.136 126.898C228.321 126.139 228.732 125.455 229.314 124.935C229.896 124.414 230.622 124.083 231.396 123.984C232.17 123.885 232.956 124.023 233.65 124.38C234.344 124.737 234.913 125.297 235.283 125.984L246.365 143.981C246.815 144.711 247.08 145.541 247.135 146.397C247.19 147.253 247.034 148.11 246.681 148.892L237.651 168.916C237.502 169.247 237.273 169.535 236.985 169.756C236.697 169.976 236.359 170.122 236.001 170.178C235.885 170.197 235.769 170.206 235.652 170.206Z" fill="#246BFD"/>
<path d="M159.802 135.475C160.319 135.86 160.914 136.127 161.545 136.256C162.176 136.386 162.827 136.376 163.454 136.226C164.08 136.077 164.666 135.791 165.171 135.391C165.675 134.99 166.086 134.483 166.373 133.906L181.9 135.922L178.332 128.604L164.135 127.812C163.134 127.393 162.015 127.355 160.989 127.706C159.963 128.057 159.102 128.773 158.568 129.718C158.034 130.662 157.864 131.77 158.092 132.831C158.319 133.892 158.928 134.833 159.802 135.475V135.475Z" fill="#A0616A"/>
<path d="M194.025 139.472C193.755 139.472 193.485 139.453 193.217 139.416L168.791 136.025C168.392 135.97 168.012 135.817 167.687 135.579C167.362 135.341 167.101 135.025 166.928 134.661C166.872 134.544 166.826 134.422 166.789 134.297H166.789C166.694 133.974 166.668 133.634 166.711 133.299C166.755 132.965 166.867 132.643 167.041 132.354L169.062 129C169.28 128.642 169.585 128.345 169.95 128.139C170.315 127.933 170.727 127.824 171.146 127.822H171.149L192.44 127.847L208.342 113.588C209.082 112.926 210.026 112.539 211.018 112.492C211.888 112.452 212.75 112.676 213.49 113.136C214.23 113.596 214.814 114.27 215.163 115.068C215.513 115.867 215.613 116.753 215.449 117.609C215.286 118.465 214.867 119.252 214.248 119.865L198.381 137.527C197.832 138.139 197.16 138.629 196.41 138.964C195.659 139.299 194.847 139.472 194.025 139.472Z" fill="#246BFD"/>
<path d="M215.153 107.006C216.136 104.728 216.968 101.695 215.082 100.084C213.988 99.15 212.412 99.148 210.979 99.0318C206.94 98.7044 202.783 96.8447 200.809 93.3035C198.836 89.7622 199.938 84.4965 203.662 82.8988C206.172 81.8218 209.05 82.5555 211.677 83.3012L219.566 85.5401C221.91 86.2054 224.371 86.939 226.059 88.698C228.75 91.5032 228.549 96.2453 226.411 99.4929C224.273 102.741 221.054 106.128 217.369 107.361L215.153 107.006Z" fill="#424242"/>
<path d="M323.99 253.895H0.52166C0.453026 253.895 0.385029 253.882 0.321562 253.855C0.258095 253.829 0.200411 253.791 0.151808 253.742C0.103206 253.694 0.0646432 253.636 0.038332 253.573C0.0120207 253.509 -0.00152588 253.441 -0.00152588 253.373C-0.00152588 253.304 0.0120207 253.236 0.038332 253.172C0.0646432 253.109 0.103206 253.051 0.151808 253.003C0.200411 252.954 0.258095 252.916 0.321562 252.89C0.385029 252.864 0.453026 252.85 0.52166 252.85H323.99C324.058 252.85 324.126 252.864 324.19 252.89C324.253 252.916 324.311 252.954 324.359 253.003C324.408 253.051 324.447 253.109 324.473 253.172C324.499 253.236 324.513 253.304 324.513 253.373C324.513 253.441 324.499 253.509 324.473 253.573C324.447 253.636 324.408 253.694 324.359 253.742C324.311 253.791 324.253 253.829 324.19 253.855C324.126 253.882 324.058 253.895 323.99 253.895Z" fill="#424242"/>
</g>
<defs>
<clipPath id="clip0_1157_18958">
<rect width="360" height="253.895" fill="white"/>
</clipPath>
</defs>
</svg>
