<svg width="360" height="292" viewBox="0 0 360 292" fill="none" xmlns="http://www.w3.org/2000/svg">
<g clip-path="url(#clip0_1157_19048)">
<path d="M62.5624 197.967H61.4174C61.2656 197.967 61.1201 197.907 61.0128 197.799C60.9054 197.692 60.8451 197.546 60.8449 197.394V196.246C60.8451 196.094 60.9054 195.948 61.0128 195.841C61.1201 195.733 61.2656 195.673 61.4174 195.673H62.5624C62.7142 195.673 62.8598 195.733 62.9671 195.841C63.0744 195.948 63.1348 196.094 63.135 196.246V197.394C63.1348 197.546 63.0744 197.692 62.9671 197.799C62.8598 197.907 62.7142 197.967 62.5624 197.967Z" fill="#E0E0E0"/>
<path d="M62.0115 196.703C61.9896 196.703 61.9678 196.701 61.9463 196.697C61.8969 196.689 61.8497 196.671 61.8073 196.644C61.7649 196.617 61.7282 196.582 61.6993 196.541C61.6703 196.5 61.6498 196.454 61.6387 196.405C61.6276 196.356 61.6263 196.305 61.6348 196.256L65.4094 174.246C65.4272 174.146 65.4834 174.058 65.566 174C65.6485 173.942 65.7505 173.919 65.8498 173.936C65.9492 173.953 66.0377 174.009 66.0962 174.091C66.1546 174.173 66.1782 174.276 66.1618 174.375L62.3872 196.385C62.3719 196.474 62.3258 196.555 62.2571 196.613C62.1884 196.671 62.1014 196.703 62.0115 196.703Z" fill="#E0E0E0"/>
<path d="M62.0105 196.703C61.9206 196.703 61.8336 196.671 61.7649 196.613C61.6961 196.555 61.6501 196.474 61.6348 196.385L57.8603 174.375C57.8439 174.276 57.8674 174.173 57.9259 174.091C57.9843 174.009 58.0729 173.953 58.1722 173.936C58.2715 173.919 58.3736 173.942 58.4561 174C58.5386 174.058 58.5949 174.146 58.6126 174.246L62.3872 196.256C62.3957 196.305 62.3943 196.356 62.3833 196.405C62.3722 196.454 62.3516 196.5 62.3227 196.541C62.2938 196.582 62.2571 196.617 62.2147 196.644C62.1723 196.671 62.125 196.689 62.0756 196.697C62.0542 196.701 62.0324 196.703 62.0105 196.703Z" fill="#E0E0E0"/>
<path d="M70.137 170.478C70.5049 167.866 69.1129 165.51 67.0276 165.215C64.9423 164.92 62.9537 166.798 62.5857 169.41C62.2754 171.613 63.2195 173.629 64.773 174.385L64.6846 175.013L66.5724 175.28L66.6609 174.652C68.3626 174.356 69.8267 172.681 70.137 170.478Z" fill="#F75555"/>
<path d="M61.3711 169.289C60.9194 166.691 58.8715 164.878 56.7967 165.24C54.7219 165.602 53.4063 168.002 53.8581 170.601C54.239 172.793 55.7562 174.42 57.4665 174.66L57.5751 175.285L59.4534 174.957L59.3448 174.333C60.8733 173.527 61.7521 171.481 61.3711 169.289Z" fill="#E0E0E0"/>
<path d="M61.9899 196.246C61.8887 196.246 61.7916 196.206 61.7201 196.134C61.6485 196.062 61.6083 195.965 61.6083 195.864V173.237C61.6078 173.187 61.6174 173.137 61.6363 173.09C61.6553 173.043 61.6834 173.001 61.7189 172.965C61.7543 172.929 61.7966 172.9 61.8431 172.881C61.8896 172.861 61.9395 172.851 61.9899 172.851C62.0403 172.851 62.0902 172.861 62.1368 172.881C62.1833 172.9 62.2255 172.929 62.261 172.965C62.2965 173.001 62.3245 173.043 62.3435 173.09C62.3625 173.137 62.372 173.187 62.3716 173.237V195.864C62.3716 195.965 62.3314 196.062 62.2598 196.134C62.1882 196.206 62.0912 196.246 61.9899 196.246Z" fill="#E0E0E0"/>
<path d="M65.5665 168.891C65.5665 166.253 63.8594 164.115 61.7534 164.115C59.6475 164.115 57.9404 166.253 57.9404 168.891C57.9404 171.116 59.1564 172.98 60.8002 173.511V174.145H62.7067V173.511C64.3505 172.98 65.5665 171.116 65.5665 168.891Z" fill="#246BFD"/>
<path d="M239.725 291.429L239.649 291.421L120.275 280.309L11.725 290.414C10.2383 290.552 8.73916 290.378 7.3234 289.903C5.90765 289.428 4.60641 288.662 3.5029 287.654C2.39938 286.646 1.51786 285.419 0.914685 284.05C0.311507 282.681 -5.42405e-05 281.201 -7.82839e-05 279.705V20.9985C-0.0110359 18.3153 0.983835 15.7257 2.78756 13.7425C4.59129 11.7593 7.07237 10.5271 9.73956 10.2899L120.275 0L120.352 0.0072672L239.725 11.1196L348.275 1.01473C349.761 0.876334 351.261 1.05031 352.676 1.52555C354.092 2.00078 355.393 2.76681 356.497 3.77466C357.6 4.78252 358.482 6.01002 359.085 7.37871C359.688 8.74739 360 10.2271 360 11.7234V270.43C360.011 273.113 359.016 275.703 357.212 277.686C355.409 279.669 352.928 280.901 350.26 281.139L239.725 291.429ZM120.275 278.647L120.352 278.654L239.725 289.767L350.108 279.491C352.364 279.29 354.464 278.248 355.99 276.57C357.516 274.892 358.358 272.7 358.349 270.43V11.7234C358.349 10.4573 358.085 9.20521 357.575 8.04708C357.064 6.88896 356.318 5.85029 355.385 4.99747C354.451 4.14465 353.35 3.49646 352.152 3.09433C350.954 2.69219 349.686 2.54496 348.428 2.66206L239.725 12.7815L239.649 12.7742L120.275 1.66187L9.89228 11.9373L9.81591 11.1136L9.89228 11.9373C7.63542 12.1381 5.53607 13.1807 4.00984 14.8588C2.48362 16.5369 1.6418 18.7281 1.65104 20.9986V279.705C1.65106 280.971 1.91468 282.223 2.42506 283.381C2.93543 284.54 3.68133 285.578 4.61507 286.431C5.54881 287.284 6.64985 287.932 7.8478 288.334C9.04575 288.736 10.3142 288.884 11.5722 288.766L120.275 278.647Z" fill="#9E9E9E"/>
<path d="M343.954 66.2118C343.954 58.8551 337.998 41.3981 330.652 41.3981C323.306 41.3981 317.35 58.8551 317.35 66.2118C317.353 69.7456 318.755 73.1339 321.249 75.6319C323.744 78.1299 327.126 79.5331 330.652 79.5331C334.178 79.5331 337.56 78.1299 340.055 75.6319C342.549 73.1339 343.951 69.7456 343.954 66.2118Z" fill="#424242"/>
<path d="M330.652 95.7287C330.612 95.7287 330.573 95.7126 330.544 95.684C330.516 95.6554 330.5 95.6166 330.5 95.5762V64.4596C330.5 64.4194 330.516 64.3808 330.545 64.3524C330.573 64.324 330.612 64.3081 330.652 64.3081C330.692 64.3081 330.731 64.324 330.759 64.3524C330.788 64.3808 330.804 64.4194 330.804 64.4596V95.5762C330.804 95.5962 330.8 95.616 330.793 95.6345C330.785 95.653 330.774 95.6698 330.76 95.684C330.745 95.6981 330.729 95.7094 330.71 95.717C330.692 95.7247 330.672 95.7287 330.652 95.7287Z" fill="#E0E0E0"/>
<path d="M330.652 70.2732C330.63 70.2733 330.609 70.2686 330.589 70.2595C330.569 70.2505 330.551 70.2372 330.537 70.2207L322.887 61.3799C322.861 61.3494 322.848 61.3096 322.851 61.2694C322.853 61.2291 322.872 61.1917 322.903 61.1652C322.933 61.1388 322.973 61.1255 323.013 61.1283C323.053 61.1311 323.09 61.1498 323.117 61.1802L330.767 70.0209C330.786 70.043 330.798 70.0701 330.803 70.0991C330.807 70.128 330.802 70.1575 330.79 70.1841C330.778 70.2106 330.759 70.2332 330.734 70.249C330.71 70.2648 330.681 70.2732 330.652 70.2733V70.2732Z" fill="#E0E0E0"/>
<path d="M330.652 75.3754C330.622 75.3754 330.593 75.3664 330.568 75.3497C330.543 75.3329 330.523 75.3091 330.512 75.2813C330.5 75.2534 330.497 75.2228 330.503 75.1932C330.509 75.1637 330.523 75.1365 330.545 75.1152L334.891 70.7591C334.906 70.745 334.922 70.7337 334.941 70.7261C334.959 70.7184 334.979 70.7145 334.999 70.7145C335.019 70.7145 335.039 70.7184 335.057 70.7261C335.076 70.7337 335.092 70.745 335.106 70.7591C335.121 70.7733 335.132 70.7901 335.139 70.8086C335.147 70.827 335.151 70.8469 335.151 70.8669C335.151 70.8869 335.147 70.9067 335.139 70.9252C335.132 70.9437 335.121 70.9605 335.106 70.9746L330.76 75.3307C330.746 75.3449 330.729 75.3562 330.71 75.3638C330.692 75.3715 330.672 75.3754 330.652 75.3754Z" fill="#E0E0E0"/>
<path d="M316.245 95.5266C316.245 94.0508 316.83 92.6354 317.872 91.5918C318.913 90.5482 320.325 89.9619 321.798 89.9619C323.271 89.9619 324.683 90.5482 325.725 91.5918C326.766 92.6354 327.351 94.0508 327.351 95.5266" fill="#E0E0E0"/>
<path d="M321.798 95.5266C321.758 95.5266 321.72 95.5108 321.692 95.4826C321.664 95.4544 321.648 95.4161 321.648 95.3762V92.4435C321.648 92.4036 321.664 92.3653 321.692 92.3371C321.72 92.3089 321.758 92.2931 321.798 92.2931C321.838 92.2931 321.876 92.3089 321.904 92.3371C321.932 92.3653 321.948 92.4036 321.948 92.4435V95.3762C321.948 95.4161 321.932 95.4544 321.904 95.4826C321.876 95.5108 321.838 95.5266 321.798 95.5266Z" fill="#E0E0E0"/>
<path d="M321.798 94.5189C321.762 94.5189 321.728 94.506 321.7 94.4826L319.9 92.9336C319.885 92.9207 319.872 92.905 319.863 92.8874C319.854 92.8698 319.849 92.8506 319.848 92.8309C319.846 92.8112 319.849 92.7914 319.855 92.7726C319.861 92.7539 319.871 92.7365 319.883 92.7215C319.896 92.7065 319.912 92.6942 319.929 92.6853C319.947 92.6764 319.966 92.671 319.986 92.6695C320.005 92.668 320.025 92.6704 320.044 92.6765C320.063 92.6827 320.08 92.6925 320.095 92.7053L321.896 94.2543C321.919 94.2743 321.936 94.301 321.944 94.3308C321.951 94.3605 321.95 94.3919 321.939 94.4207C321.928 94.4495 321.909 94.4744 321.884 94.4919C321.859 94.5095 321.829 94.5189 321.798 94.5189H321.798Z" fill="#E0E0E0"/>
<path d="M333.355 95.5266C333.355 94.0508 333.94 92.6354 334.981 91.5918C336.022 90.5482 337.435 89.9619 338.908 89.9619C340.38 89.9619 341.793 90.5482 342.834 91.5918C343.876 92.6354 344.461 94.0508 344.461 95.5266" fill="#E0E0E0"/>
<path d="M338.908 95.5266C338.868 95.5266 338.83 95.5108 338.802 95.4826C338.773 95.4544 338.758 95.4161 338.758 95.3762V92.4435C338.758 92.4036 338.773 92.3653 338.802 92.3371C338.83 92.3089 338.868 92.2931 338.908 92.2931C338.948 92.2931 338.986 92.3089 339.014 92.3371C339.042 92.3653 339.058 92.4036 339.058 92.4435V95.3762C339.058 95.4161 339.042 95.4544 339.014 95.4826C338.986 95.5108 338.948 95.5266 338.908 95.5266Z" fill="#E0E0E0"/>
<path d="M338.908 94.5188C338.872 94.5189 338.837 94.506 338.81 94.4825L337.009 92.9336C336.979 92.9075 336.96 92.8706 336.958 92.831C336.955 92.7913 336.968 92.7522 336.993 92.722C337.019 92.6918 337.056 92.6731 337.095 92.67C337.135 92.6669 337.174 92.6796 337.204 92.7053L339.005 94.2543C339.029 94.2743 339.045 94.301 339.053 94.3307C339.061 94.3605 339.059 94.3919 339.048 94.4207C339.038 94.4495 339.019 94.4743 338.993 94.4919C338.968 94.5094 338.938 94.5188 338.908 94.5188V94.5188Z" fill="#E0E0E0"/>
<path d="M168.995 45.1414C172.643 39.9083 177.064 24.5248 171.839 20.8665C166.613 17.2082 153.72 26.6603 150.072 31.8934C148.32 34.4081 147.636 37.5172 148.171 40.5368C148.707 43.5564 150.417 46.2395 152.926 47.9959C155.434 49.7523 158.537 50.4382 161.55 49.9029C164.564 49.3677 167.242 47.6549 168.995 45.1414Z" fill="#E0E0E0"/>
<path d="M144.896 59.5137C144.867 59.4936 144.848 59.4629 144.842 59.4283C144.835 59.3938 144.843 59.3582 144.863 59.3295L160.294 37.1952C160.314 37.1664 160.345 37.1468 160.379 37.1407C160.414 37.1346 160.449 37.1424 160.478 37.1625C160.507 37.1826 160.526 37.2133 160.532 37.2478C160.538 37.2824 160.531 37.3179 160.511 37.3467L145.08 59.481C145.06 59.5097 145.029 59.5293 144.995 59.5355C144.96 59.5416 144.925 59.5338 144.896 59.5137Z" fill="#E0E0E0"/>
<path d="M157.519 41.4065C157.504 41.3957 157.491 41.3816 157.481 41.3653C157.472 41.3489 157.466 41.3307 157.464 41.3119L156.406 31.2135C156.402 31.1786 156.413 31.1437 156.435 31.1164C156.457 31.0891 156.489 31.0718 156.524 31.0681C156.558 31.0644 156.593 31.0748 156.62 31.0969C156.648 31.119 156.665 31.151 156.669 31.1859L157.726 41.2842C157.729 41.3094 157.724 41.3349 157.713 41.3575C157.701 41.3802 157.684 41.399 157.662 41.4119C157.64 41.4248 157.615 41.4311 157.59 41.4302C157.565 41.4292 157.54 41.421 157.519 41.4065L157.519 41.4065Z" fill="#E0E0E0"/>
<path d="M154.989 45.0357C154.968 45.0207 154.951 44.9997 154.942 44.9754C154.932 44.951 154.93 44.9243 154.936 44.8988C154.941 44.8733 154.955 44.85 154.973 44.8319C154.992 44.8138 155.016 44.8016 155.042 44.7971L160.294 43.8631C160.311 43.86 160.329 43.8603 160.346 43.8639C160.363 43.8676 160.379 43.8746 160.393 43.8846C160.407 43.8945 160.42 43.9072 160.429 43.9219C160.438 43.9366 160.445 43.9529 160.448 43.9701C160.451 43.9873 160.45 44.0049 160.447 44.0219C160.443 44.0389 160.436 44.055 160.426 44.0693C160.416 44.0835 160.403 44.0957 160.388 44.105C160.374 44.1143 160.357 44.1206 160.34 44.1236L155.088 45.0575C155.071 45.0606 155.053 45.0602 155.036 45.0565C155.019 45.0527 155.003 45.0457 154.989 45.0357Z" fill="#E0E0E0"/>
<path d="M134.748 52.1955C135.481 51.1489 136.599 50.4365 137.855 50.2146C139.112 49.9926 140.405 50.2792 141.451 51.0115C142.497 51.7439 143.211 52.8621 143.435 54.1209C143.66 55.3797 143.377 56.6763 142.648 57.7262" fill="#E0E0E0"/>
<path d="M138.698 54.9609C138.67 54.9411 138.65 54.9108 138.644 54.8768C138.638 54.8427 138.646 54.8076 138.666 54.7792L140.12 52.6931C140.14 52.6649 140.17 52.6458 140.204 52.6399C140.238 52.634 140.273 52.6417 140.301 52.6615C140.329 52.6812 140.349 52.7113 140.355 52.7453C140.361 52.7792 140.353 52.8142 140.334 52.8425L138.879 54.9287C138.86 54.9571 138.829 54.9764 138.795 54.9825C138.761 54.9885 138.726 54.9808 138.698 54.9609Z" fill="#E0E0E0"/>
<path d="M139.198 54.244C139.172 54.2262 139.154 54.1998 139.146 54.1696L138.633 52.1708C138.629 52.1542 138.628 52.1369 138.63 52.1199C138.633 52.1029 138.638 52.0865 138.647 52.0717C138.656 52.0569 138.667 52.0439 138.681 52.0336C138.695 52.0232 138.71 52.0157 138.727 52.0114C138.744 52.0072 138.761 52.0062 138.778 52.0086C138.795 52.0111 138.811 52.0168 138.826 52.0256C138.841 52.0344 138.853 52.046 138.864 52.0598C138.874 52.0735 138.881 52.0892 138.886 52.1058L139.399 54.1046C139.405 54.1304 139.404 54.1576 139.394 54.1826C139.385 54.2076 139.368 54.2291 139.347 54.2443C139.325 54.2595 139.299 54.2676 139.272 54.2676C139.246 54.2675 139.22 54.2593 139.198 54.244Z" fill="#E0E0E0"/>
<path d="M146.919 60.7158C147.28 60.1944 147.741 59.7496 148.275 59.4069C148.808 59.0642 149.404 58.8303 150.028 58.7187C150.652 58.607 151.291 58.6198 151.91 58.7562C152.529 58.8926 153.115 59.15 153.635 59.5137C154.154 59.8774 154.597 60.3402 154.938 60.8756C155.278 61.411 155.51 62.0085 155.62 62.6339C155.73 63.2593 155.716 63.9003 155.579 64.5202C155.441 65.1401 155.183 65.7268 154.819 66.2465" fill="#E0E0E0"/>
<path d="M150.869 63.4811C150.84 63.4613 150.821 63.431 150.815 63.3969C150.809 63.3628 150.817 63.3278 150.836 63.2994L152.291 61.2132C152.311 61.1849 152.341 61.1655 152.375 61.1595C152.409 61.1534 152.444 61.1612 152.472 61.181C152.5 61.2008 152.52 61.2311 152.526 61.2652C152.532 61.2993 152.524 61.3343 152.504 61.3627L151.05 63.4489C151.03 63.4772 151 63.4966 150.966 63.5026C150.932 63.5087 150.897 63.5009 150.869 63.4811Z" fill="#E0E0E0"/>
<path d="M151.368 62.7643C151.343 62.7465 151.325 62.72 151.317 62.6898L150.804 60.6911C150.795 60.6577 150.801 60.6223 150.818 60.5926C150.836 60.563 150.864 60.5415 150.898 60.5329C150.931 60.5243 150.966 60.5293 150.996 60.5468C151.026 60.5642 151.047 60.5928 151.056 60.6261L151.569 62.6249C151.576 62.6507 151.574 62.6779 151.565 62.7029C151.556 62.7279 151.539 62.7494 151.517 62.7646C151.495 62.7798 151.469 62.7879 151.443 62.7879C151.416 62.7878 151.39 62.7796 151.368 62.7643Z" fill="#E0E0E0"/>
<path d="M243.845 159.291C246.78 161.992 249.696 164.712 252.592 167.452C251.849 167.493 251.077 167.526 250.285 167.551C249.166 167.588 248.002 167.605 246.78 167.605C233.377 167.605 226.574 165.4 220.003 163.266C213.762 161.243 207.867 159.332 195.765 159.332C183.658 159.332 177.763 161.243 171.526 163.266C164.95 165.4 158.147 167.605 144.745 167.605C131.337 167.605 124.539 165.4 117.963 163.266C111.866 161.288 106.1 159.419 94.5501 159.336C94.2776 159.332 94.0053 159.332 93.7246 159.332V151.059C94.0011 151.059 94.2776 151.059 94.5501 151.063C107.413 151.15 114.067 153.309 120.506 155.394C126.747 157.421 132.642 159.332 144.745 159.332C156.847 159.332 162.742 157.421 168.983 155.394C175.559 153.264 182.357 151.059 195.765 151.059C209.167 151.059 215.966 153.264 222.542 155.394C227.755 157.086 232.729 158.699 241.282 159.183C242.103 159.233 242.954 159.266 243.845 159.291Z" fill="#246BFD"/>
<path d="M348.824 159.332V167.605C335.417 167.605 328.618 165.4 322.043 163.266C315.802 161.243 309.907 159.332 297.804 159.332C285.697 159.332 279.803 161.243 273.561 163.266C273.223 163.377 272.88 163.485 272.538 163.597C271.952 163.787 271.357 163.977 270.755 164.163C268.476 161.926 266.189 159.707 263.894 157.508C264.534 157.351 265.153 157.185 265.764 157.016C267.584 156.511 269.289 155.957 271.023 155.394C277.599 153.264 284.397 151.059 297.804 151.059C311.211 151.059 318.01 153.264 324.586 155.394C330.827 157.421 336.721 159.332 348.824 159.332Z" fill="#246BFD"/>
<path d="M166.403 95.7086C143.296 78.8441 118.983 62.8525 94.1456 48.1804L92.899 47.4441V97.206H168.455L166.403 95.7086ZM94.5501 95.5514V50.3438C118.178 64.3499 141.314 79.5473 163.378 95.5514H94.5501ZM283.349 197.975C273.355 187.563 263.103 177.389 252.592 167.452C249.694 164.709 246.779 161.989 243.845 159.291C225.943 142.811 207.452 127.138 188.372 112.271L188.149 112.097H92.899V199.377H284.694L283.349 197.975ZM94.5501 197.723V113.752H187.583C205.981 128.093 223.881 143.237 241.282 159.183C244.304 161.95 247.304 164.74 250.285 167.551C260.703 177.363 270.878 187.42 280.81 197.723H94.5501ZM283.349 197.975C273.355 187.563 263.103 177.389 252.592 167.452C249.694 164.709 246.779 161.989 243.845 159.291C225.943 142.811 207.452 127.138 188.372 112.271L188.149 112.097H92.899V199.377H284.694L283.349 197.975ZM94.5501 197.723V113.752H187.583C205.981 128.093 223.881 143.237 241.282 159.183C244.304 161.95 247.304 164.74 250.285 167.551C260.703 177.363 270.878 187.42 280.81 197.723H94.5501ZM166.403 95.7086C143.296 78.8441 118.983 62.8525 94.1456 48.1804L92.899 47.4441V97.206H168.455L166.403 95.7086ZM94.5501 95.5514V50.3438C118.178 64.3499 141.314 79.5473 163.378 95.5514H94.5501ZM166.403 95.7086C143.296 78.8441 118.983 62.8525 94.1456 48.1804L92.899 47.4441V97.206H168.455L166.403 95.7086ZM94.5501 95.5514V50.3438C118.178 64.3499 141.314 79.5473 163.378 95.5514H94.5501ZM283.349 197.975C273.355 187.563 263.103 177.389 252.592 167.452C249.694 164.709 246.779 161.989 243.845 159.291C225.943 142.811 207.452 127.138 188.372 112.271L188.149 112.097H92.899V199.377H284.694L283.349 197.975ZM94.5501 197.723V113.752H187.583C205.981 128.093 223.881 143.237 241.282 159.183C244.304 161.95 247.304 164.74 250.285 167.551C260.703 177.363 270.878 187.42 280.81 197.723H94.5501ZM11.1763 214.269V215.923H76.3877V239.915H11.1763V241.569H78.0388V214.269H11.1763ZM92.899 256.461V273.226L94.5501 273.073V258.115H348.824V256.461H92.899ZM348.824 215.923V214.269H92.899V241.569H348.824V239.915H94.5501V215.923H348.824ZM194.629 95.5514C162.953 71.0652 129.501 48.9773 94.5501 29.471V12.7183L92.899 12.8713V29.7538L94.1704 31.1546C128.979 50.6078 162.295 72.6277 193.845 97.0323L194.068 97.206H348.824V95.5514H194.629ZM76.3877 95.5514H11.1763V97.206H78.0388V14.2529L76.3877 14.4059V95.5514ZM348.824 112.097H212.775L214.554 113.562C231.305 127.373 247.752 142.022 263.894 157.508C266.189 159.708 268.476 161.927 270.755 164.163C282.098 175.27 293.22 186.739 304.12 198.571L305.481 199.377H348.824V197.723H305.585C294.803 186.008 283.787 174.633 272.538 163.597C270.288 161.388 268.03 159.194 265.764 157.016C249.971 141.83 233.841 127.409 217.373 113.752H348.824V112.097ZM11.1763 256.461V258.115H76.3877V274.761L78.0388 274.608V256.461H11.1763ZM11.1763 112.097V113.752H76.3877V197.723H11.1763V199.377H78.0388V112.097H11.1763ZM166.403 95.7086C143.296 78.8441 118.983 62.8525 94.1456 48.1804L92.899 47.4441V97.206H168.455L166.403 95.7086ZM94.5501 95.5514V50.3438C118.178 64.3499 141.314 79.5473 163.378 95.5514H94.5501ZM283.349 197.975C273.355 187.563 263.103 177.389 252.592 167.452C249.694 164.709 246.779 161.989 243.845 159.291C225.943 142.811 207.452 127.138 188.372 112.271L188.149 112.097H92.899V199.377H284.694L283.349 197.975ZM94.5501 197.723V113.752H187.583C205.981 128.093 223.881 143.237 241.282 159.183C244.304 161.95 247.304 164.74 250.285 167.551C260.703 177.363 270.878 187.42 280.81 197.723H94.5501ZM166.403 95.7086C143.296 78.8441 118.983 62.8525 94.1456 48.1804L92.899 47.4441V97.206H168.455L166.403 95.7086ZM94.5501 95.5514V50.3438C118.178 64.3499 141.314 79.5473 163.378 95.5514H94.5501ZM283.349 197.975C273.355 187.563 263.103 177.389 252.592 167.452C249.694 164.709 246.779 161.989 243.845 159.291C225.943 142.811 207.452 127.138 188.372 112.271L188.149 112.097H92.899V199.377H284.694L283.349 197.975ZM94.5501 197.723V113.752H187.583C205.981 128.093 223.881 143.237 241.282 159.183C244.304 161.95 247.304 164.74 250.285 167.551C260.703 177.363 270.878 187.42 280.81 197.723H94.5501Z" fill="#424242"/>
<path d="M209.588 151.975C209.588 144.69 215.481 127.402 222.751 127.402C230.021 127.402 235.914 144.69 235.914 151.975C235.914 155.473 234.527 158.828 232.059 161.302C229.59 163.776 226.242 165.165 222.751 165.165C219.26 165.165 215.912 163.776 213.443 161.302C210.975 158.828 209.588 155.473 209.588 151.975Z" fill="#E0E0E0"/>
<path d="M222.751 184.066C222.737 184.066 222.723 184.063 222.709 184.058C222.696 184.052 222.684 184.044 222.674 184.034C222.664 184.024 222.656 184.012 222.651 183.999C222.645 183.986 222.643 183.972 222.643 183.958V138.48C222.643 138.452 222.654 138.424 222.674 138.404C222.695 138.383 222.722 138.372 222.751 138.372C222.78 138.372 222.807 138.383 222.827 138.404C222.848 138.424 222.859 138.452 222.859 138.48V183.958C222.859 183.972 222.856 183.986 222.851 183.999C222.845 184.012 222.837 184.024 222.827 184.034C222.817 184.044 222.805 184.052 222.792 184.058C222.779 184.063 222.765 184.066 222.751 184.066Z" fill="#424242"/>
<path d="M222.751 147.26C222.737 147.26 222.723 147.257 222.709 147.252C222.696 147.246 222.684 147.238 222.674 147.228L217.464 142.007C217.454 141.997 217.446 141.985 217.441 141.972C217.435 141.959 217.433 141.945 217.433 141.931C217.433 141.916 217.435 141.902 217.441 141.889C217.446 141.876 217.454 141.864 217.464 141.854C217.474 141.844 217.486 141.836 217.499 141.831C217.513 141.825 217.527 141.822 217.541 141.822C217.555 141.822 217.569 141.825 217.582 141.831C217.595 141.836 217.607 141.844 217.617 141.854L222.827 147.075C222.843 147.09 222.853 147.109 222.857 147.13C222.861 147.151 222.859 147.173 222.851 147.193C222.843 147.213 222.829 147.23 222.811 147.242C222.793 147.254 222.772 147.26 222.751 147.26Z" fill="#424242"/>
<path d="M222.751 156.298C222.729 156.298 222.709 156.292 222.691 156.28C222.673 156.268 222.659 156.251 222.651 156.231C222.643 156.212 222.641 156.19 222.645 156.169C222.649 156.148 222.659 156.128 222.674 156.113L231.399 147.37C231.409 147.36 231.421 147.352 231.434 147.346C231.448 147.341 231.462 147.338 231.476 147.338C231.49 147.338 231.504 147.341 231.517 147.346C231.53 147.352 231.542 147.36 231.552 147.37C231.562 147.38 231.57 147.392 231.576 147.405C231.581 147.418 231.584 147.432 231.584 147.447C231.584 147.461 231.581 147.475 231.576 147.488C231.57 147.501 231.562 147.513 231.552 147.523L222.827 156.267C222.817 156.277 222.805 156.285 222.792 156.29C222.779 156.296 222.765 156.298 222.751 156.298Z" fill="#424242"/>
<path d="M283.394 114.746C283.394 107.461 289.287 90.1741 296.557 90.1741C303.827 90.1741 309.72 107.461 309.72 114.746C309.718 118.243 308.33 121.596 305.862 124.068C303.393 126.54 300.046 127.929 296.557 127.929C293.067 127.929 289.72 126.54 287.252 124.068C284.784 121.596 283.396 118.243 283.394 114.746Z" fill="#246BFD"/>
<path d="M296.557 146.838C296.543 146.838 296.529 146.835 296.515 146.829C296.502 146.824 296.49 146.816 296.48 146.806C296.47 146.796 296.462 146.784 296.457 146.771C296.451 146.758 296.449 146.743 296.449 146.729V101.252C296.449 101.223 296.46 101.196 296.48 101.175C296.501 101.155 296.528 101.143 296.557 101.143C296.586 101.143 296.613 101.155 296.633 101.175C296.654 101.196 296.665 101.223 296.665 101.252V146.729C296.665 146.743 296.662 146.758 296.657 146.771C296.651 146.784 296.643 146.796 296.633 146.806C296.623 146.816 296.611 146.824 296.598 146.829C296.585 146.835 296.571 146.838 296.557 146.838Z" fill="#424242"/>
<path d="M296.557 110.032C296.543 110.032 296.529 110.029 296.515 110.023C296.502 110.018 296.49 110.01 296.48 110L291.27 104.779C291.25 104.759 291.239 104.731 291.239 104.702C291.239 104.674 291.25 104.646 291.27 104.626C291.291 104.605 291.318 104.594 291.347 104.594C291.376 104.594 291.403 104.605 291.423 104.626L296.633 109.846C296.648 109.862 296.659 109.881 296.663 109.902C296.667 109.923 296.665 109.945 296.657 109.965C296.649 109.985 296.635 110.001 296.617 110.013C296.599 110.025 296.578 110.032 296.557 110.032H296.557Z" fill="#424242"/>
<path d="M296.557 119.07C296.535 119.07 296.514 119.064 296.497 119.052C296.479 119.04 296.465 119.023 296.457 119.003C296.449 118.983 296.446 118.961 296.451 118.94C296.455 118.919 296.465 118.9 296.48 118.885L305.205 110.141C305.226 110.121 305.253 110.11 305.282 110.11C305.31 110.11 305.338 110.122 305.358 110.142C305.378 110.162 305.389 110.19 305.39 110.218C305.39 110.247 305.378 110.274 305.358 110.295L296.633 119.038C296.623 119.048 296.611 119.056 296.598 119.062C296.585 119.067 296.571 119.07 296.557 119.07Z" fill="#424242"/>
<path d="M121.786 118.469C121.786 111.184 127.679 93.8969 134.949 93.8969C142.219 93.8969 148.112 111.184 148.112 118.469C148.112 121.967 146.726 125.322 144.257 127.796C141.788 130.27 138.44 131.66 134.949 131.66C131.458 131.66 128.11 130.27 125.641 127.796C123.173 125.322 121.786 121.967 121.786 118.469Z" fill="#246BFD"/>
<path d="M134.949 150.56C134.935 150.56 134.921 150.558 134.908 150.552C134.895 150.547 134.883 150.539 134.873 150.529C134.863 150.519 134.855 150.507 134.849 150.493C134.844 150.48 134.841 150.466 134.841 150.452V104.975C134.841 104.946 134.852 104.918 134.873 104.898C134.893 104.878 134.92 104.866 134.949 104.866C134.978 104.866 135.005 104.878 135.026 104.898C135.046 104.918 135.057 104.946 135.057 104.975V150.452C135.057 150.466 135.055 150.48 135.049 150.493C135.044 150.507 135.036 150.519 135.026 150.529C135.016 150.539 135.004 150.547 134.991 150.552C134.977 150.558 134.963 150.56 134.949 150.56Z" fill="#424242"/>
<path d="M134.949 113.754C134.935 113.754 134.921 113.752 134.908 113.746C134.895 113.741 134.883 113.733 134.873 113.723L129.663 108.502C129.653 108.492 129.645 108.48 129.639 108.467C129.634 108.453 129.631 108.439 129.631 108.425C129.631 108.411 129.634 108.397 129.639 108.384C129.645 108.37 129.653 108.358 129.663 108.348C129.673 108.338 129.685 108.33 129.698 108.325C129.711 108.319 129.725 108.317 129.739 108.317C129.753 108.317 129.768 108.319 129.781 108.325C129.794 108.33 129.806 108.338 129.816 108.348L135.026 113.569C135.041 113.584 135.051 113.604 135.055 113.625C135.06 113.646 135.057 113.668 135.049 113.687C135.041 113.707 135.027 113.724 135.009 113.736C134.992 113.748 134.971 113.754 134.949 113.754Z" fill="#424242"/>
<path d="M134.949 122.793C134.928 122.793 134.907 122.786 134.889 122.774C134.871 122.763 134.857 122.746 134.849 122.726C134.841 122.706 134.839 122.684 134.843 122.663C134.847 122.642 134.858 122.623 134.873 122.608L143.598 113.864C143.618 113.844 143.645 113.833 143.674 113.833C143.703 113.833 143.73 113.844 143.751 113.864C143.771 113.885 143.782 113.912 143.782 113.941C143.782 113.97 143.771 113.997 143.751 114.018L135.026 122.761C135.016 122.771 135.004 122.779 134.991 122.785C134.978 122.79 134.963 122.793 134.949 122.793Z" fill="#424242"/>
<path d="M243.23 82.1261C235.754 82.1261 228.446 79.9045 222.229 75.7422C216.013 71.5799 211.168 65.6639 208.307 58.7423C205.446 51.8206 204.697 44.2043 206.156 36.8563C207.614 29.5083 211.215 22.7588 216.501 17.4612C221.788 12.1636 228.523 8.55592 235.856 7.09432C243.188 5.63272 250.789 6.38287 257.696 9.2499C264.603 12.1169 270.506 16.9721 274.66 23.2014C278.814 29.4307 281.031 36.7544 281.031 44.2463C281.019 54.2892 277.033 63.9174 269.947 71.0188C262.86 78.1202 253.252 82.1148 243.23 82.1261ZM243.23 6.87493C235.854 6.87493 228.644 9.06672 222.511 13.1731C216.378 17.2796 211.598 23.1162 208.776 29.9449C205.953 36.7736 205.215 44.2877 206.654 51.5371C208.093 58.7864 211.644 65.4454 216.86 70.6718C222.075 75.8983 228.72 79.4576 235.955 80.8996C243.189 82.3416 250.687 81.6015 257.502 78.7729C264.316 75.9444 270.14 71.1544 274.238 65.0087C278.336 58.863 280.523 51.6376 280.523 44.2463C280.512 34.3382 276.579 24.8392 269.588 17.8331C262.597 10.8271 253.117 6.88614 243.23 6.87495V6.87493Z" fill="#E0E0E0"/>
<path d="M243.23 41.4498C243.163 41.4498 243.098 41.423 243.051 41.3753C243.003 41.3276 242.976 41.263 242.976 41.1955V6.62068C242.976 6.55325 243.003 6.48859 243.051 6.44091C243.098 6.39324 243.163 6.36646 243.23 6.36646C243.297 6.36646 243.362 6.39324 243.409 6.44091C243.457 6.48859 243.484 6.55325 243.484 6.62068V41.1955C243.484 41.263 243.457 41.3276 243.409 41.3753C243.362 41.423 243.297 41.4498 243.23 41.4498Z" fill="#E0E0E0"/>
<path d="M280.777 44.5005H246.274C246.207 44.5005 246.143 44.4737 246.095 44.4261C246.047 44.3784 246.021 44.3137 246.021 44.2463C246.021 44.1789 246.047 44.1142 246.095 44.0665C246.143 44.0189 246.207 43.9921 246.274 43.9921H280.777C280.844 43.9921 280.909 44.0189 280.956 44.0665C281.004 44.1142 281.031 44.1789 281.031 44.2463C281.031 44.3137 281.004 44.3784 280.956 44.4261C280.909 44.4737 280.844 44.5005 280.777 44.5005Z" fill="#E0E0E0"/>
<path d="M240.186 44.5005H205.7C205.632 44.5005 205.568 44.4737 205.52 44.4261C205.473 44.3784 205.446 44.3137 205.446 44.2463C205.446 44.1789 205.473 44.1142 205.52 44.0665C205.568 44.0189 205.632 43.9921 205.7 43.9921H240.186C240.253 43.9921 240.318 44.0189 240.365 44.0665C240.413 44.1142 240.439 44.1789 240.439 44.2463C240.439 44.3137 240.413 44.3784 240.365 44.4261C240.318 44.4737 240.253 44.5005 240.186 44.5005Z" fill="#E0E0E0"/>
<path d="M243.23 82.1262C243.163 82.1262 243.098 82.0994 243.051 82.0517C243.003 82.004 242.976 81.9394 242.976 81.8719V47.2971C242.976 47.2297 243.003 47.165 243.051 47.1173C243.098 47.0696 243.163 47.0428 243.23 47.0428C243.297 47.0428 243.362 47.0696 243.409 47.1173C243.457 47.165 243.484 47.2297 243.484 47.2971V81.8719C243.484 81.9394 243.457 82.004 243.409 82.0517C243.362 82.0994 243.297 82.1262 243.23 82.1262Z" fill="#E0E0E0"/>
<path d="M245.467 42.4347C245.417 42.4347 245.368 42.4197 245.326 42.3918C245.284 42.3639 245.252 42.3242 245.233 42.2777C245.213 42.2313 245.208 42.1802 245.218 42.1308C245.228 42.0815 245.252 42.0362 245.288 42.0007L269.577 17.6601C269.625 17.6127 269.689 17.5862 269.756 17.5863C269.823 17.5864 269.888 17.6132 269.935 17.6608C269.983 17.7083 270.009 17.7728 270.009 17.84C270.01 17.9073 269.983 17.9718 269.936 18.0196L245.646 42.3602C245.623 42.3838 245.595 42.4026 245.564 42.4154C245.533 42.4282 245.5 42.4347 245.467 42.4347Z" fill="#E0E0E0"/>
<path d="M240.993 42.4347C240.96 42.4347 240.927 42.4282 240.896 42.4154C240.865 42.4026 240.838 42.3838 240.814 42.3602L216.524 18.0196C216.477 17.9718 216.451 17.9073 216.451 17.84C216.451 17.7728 216.478 17.7083 216.525 17.6608C216.572 17.6132 216.637 17.5864 216.704 17.5863C216.771 17.5862 216.835 17.6127 216.883 17.6601L241.173 42.0007C241.208 42.0362 241.232 42.0815 241.242 42.1308C241.252 42.1802 241.247 42.2313 241.228 42.2777C241.209 42.3242 241.176 42.3639 241.134 42.3918C241.093 42.4197 241.044 42.4347 240.993 42.4347Z" fill="#E0E0E0"/>
<path d="M269.756 70.907C269.723 70.907 269.69 70.9005 269.659 70.8877C269.629 70.8749 269.601 70.8561 269.577 70.8325L245.287 46.4919C245.24 46.4441 245.214 46.3796 245.214 46.3123C245.214 46.2451 245.241 46.1806 245.288 46.1331C245.336 46.0855 245.4 46.0587 245.467 46.0586C245.534 46.0585 245.599 46.085 245.646 46.1324L269.936 70.473C269.971 70.5085 269.995 70.5538 270.005 70.6031C270.015 70.6525 270.01 70.7036 269.991 70.75C269.972 70.7965 269.939 70.8362 269.897 70.8641C269.856 70.892 269.807 70.9069 269.756 70.9069V70.907Z" fill="#E0E0E0"/>
<path d="M216.704 70.907C216.654 70.907 216.605 70.8921 216.563 70.8642C216.521 70.8362 216.489 70.7965 216.469 70.7501C216.45 70.7036 216.445 70.6525 216.455 70.6032C216.465 70.5539 216.489 70.5086 216.524 70.473L240.814 46.1324C240.862 46.0848 240.926 46.058 240.993 46.058C241.061 46.058 241.125 46.0848 241.173 46.1324C241.22 46.1801 241.247 46.2448 241.247 46.3122C241.247 46.3796 241.22 46.4443 241.173 46.4919L216.883 70.8325C216.86 70.8562 216.832 70.875 216.801 70.8877C216.77 70.9005 216.737 70.9071 216.704 70.907Z" fill="#E0E0E0"/>
<path d="M243.23 70.3045C238.087 70.3045 233.06 68.7762 228.783 65.9129C224.507 63.0496 221.174 58.9798 219.206 54.2183C217.238 49.4568 216.723 44.2174 217.726 39.1625C218.729 34.1077 221.206 29.4646 224.843 25.8203C228.479 22.176 233.113 19.6942 238.157 18.6887C243.201 17.6832 248.43 18.1993 253.181 20.1716C257.933 22.1439 261.994 25.4838 264.851 29.7691C267.709 34.0543 269.234 39.0924 269.234 44.2463C269.226 51.1549 266.484 57.7784 261.609 62.6636C256.734 67.5488 250.124 70.2967 243.23 70.3045ZM243.23 18.6965C238.187 18.6965 233.258 20.1949 229.065 23.0024C224.872 25.8098 221.604 29.8002 219.675 34.4688C217.745 39.1374 217.24 44.2746 218.224 49.2308C219.208 54.187 221.636 58.7395 225.202 62.3127C228.767 65.8859 233.31 68.3193 238.256 69.3052C243.202 70.291 248.328 69.785 252.987 67.8512C257.646 65.9174 261.628 62.6426 264.43 58.441C267.231 54.2393 268.726 49.2996 268.726 44.2463C268.719 37.4724 266.03 30.9781 261.25 26.1883C256.47 21.3984 249.99 18.7041 243.23 18.6965Z" fill="#E0E0E0"/>
<path d="M243.23 47.297C244.911 47.297 246.274 45.9311 246.274 44.2463C246.274 42.5614 244.911 41.1956 243.23 41.1956C241.549 41.1956 240.186 42.5614 240.186 44.2463C240.186 45.9311 241.549 47.297 243.23 47.297Z" fill="#424242"/>
<path d="M231.444 95.777L228.77 95.8546L241.824 43.0529L244.25 43.7948L231.444 95.777Z" fill="#424242"/>
<path d="M255.016 95.777L257.691 95.8546L244.636 43.0529L242.21 43.7948L255.016 95.777Z" fill="#424242"/>
<path d="M247.289 14.2476H238.917V18.8236H247.289V14.2476Z" fill="#E0E0E0"/>
<path d="M242.723 15.2644H239.425V18.8236H242.723V15.2644Z" fill="white"/>
<path d="M246.782 15.2644H243.484V18.8236H246.782V15.2644Z" fill="white"/>
<path d="M243.103 23.781C241.825 23.7796 240.6 23.2702 239.697 22.3646C238.793 21.4591 238.285 20.2313 238.283 18.9507V18.8236C238.283 18.5203 238.404 18.2295 238.618 18.015C238.832 17.8006 239.122 17.6799 239.425 17.6796H246.782C247.085 17.6799 247.375 17.8006 247.589 18.015C247.803 18.2295 247.923 18.5203 247.923 18.8236V18.9507C247.922 20.2313 247.414 21.4591 246.51 22.3646C245.606 23.2702 244.381 23.7796 243.103 23.781Z" fill="#E0E0E0"/>
<path d="M246.976 15.3916H239.231C239.123 15.3916 239.016 15.3639 238.922 15.3111C238.828 15.2584 238.748 15.1823 238.691 15.0901C238.635 14.998 238.602 14.8928 238.597 14.7845C238.592 14.6763 238.615 14.5686 238.664 14.4717L240.186 11.421C240.238 11.3152 240.319 11.2262 240.419 11.1641C240.52 11.102 240.635 11.0693 240.753 11.0697H245.453C245.571 11.0693 245.687 11.102 245.787 11.1641C245.888 11.2262 245.968 11.3152 246.021 11.421L247.543 14.4717C247.591 14.5686 247.614 14.6763 247.609 14.7845C247.604 14.8928 247.572 14.998 247.515 15.0901C247.458 15.1823 247.379 15.2584 247.284 15.3111C247.19 15.3639 247.084 15.3916 246.976 15.3916H246.976Z" fill="#246BFD"/>
<path d="M269.868 24.4166H261.496V28.9927H269.868V24.4166Z" fill="#E0E0E0"/>
<path d="M265.302 25.4335H262.003V28.9927H265.302V25.4335Z" fill="white"/>
<path d="M269.361 25.4335H266.063V28.9927H269.361V25.4335Z" fill="white"/>
<path d="M265.682 33.9501C264.404 33.9486 263.179 33.4392 262.275 32.5337C261.372 31.6282 260.863 30.4004 260.862 29.1198V28.9927C260.862 28.6893 260.983 28.3986 261.197 28.1841C261.411 27.9696 261.701 27.849 262.004 27.8486H269.361C269.663 27.849 269.953 27.9696 270.168 28.1841C270.382 28.3986 270.502 28.6893 270.502 28.9927V29.1198C270.501 30.4004 269.993 31.6282 269.089 32.5337C268.185 33.4392 266.96 33.9486 265.682 33.9501Z" fill="#E0E0E0"/>
<path d="M263.332 21.493C263.261 21.4928 263.192 21.5124 263.132 21.5497C263.071 21.5869 263.023 21.6403 262.992 21.7038L261.469 24.7546C261.44 24.8127 261.427 24.8773 261.43 24.9422C261.432 25.0072 261.452 25.0703 261.486 25.1256C261.52 25.1809 261.568 25.2265 261.624 25.2582C261.681 25.2898 261.745 25.3065 261.81 25.3064H269.554C269.619 25.3065 269.683 25.2898 269.74 25.2582C269.796 25.2265 269.844 25.1809 269.878 25.1256C269.912 25.0703 269.932 25.0072 269.935 24.9422C269.938 24.8773 269.924 24.8127 269.895 24.7546L268.373 21.7038C268.341 21.6403 268.293 21.5869 268.233 21.5497C268.172 21.5124 268.103 21.4928 268.032 21.493H263.332Z" fill="#246BFD"/>
<path d="M278.747 47.297H270.375V51.8731H278.747V47.297Z" fill="#E0E0E0"/>
<path d="M274.181 48.314H270.883V51.8731H274.181V48.314Z" fill="white"/>
<path d="M278.24 48.314H274.942V51.8731H278.24V48.314Z" fill="white"/>
<path d="M274.561 56.8306C273.283 56.8291 272.058 56.3197 271.155 55.4142C270.251 54.5087 269.743 53.2809 269.741 52.0003V51.8731C269.742 51.5698 269.862 51.279 270.076 51.0646C270.29 50.8501 270.58 50.7295 270.883 50.7291H278.24C278.543 50.7295 278.833 50.8501 279.047 51.0646C279.261 51.279 279.381 51.5698 279.382 51.8731V52.0003C279.38 53.2809 278.872 54.5087 277.968 55.4142C277.065 56.3197 275.839 56.8291 274.561 56.8306Z" fill="#E0E0E0"/>
<path d="M278.434 48.441H270.689C270.581 48.441 270.475 48.4133 270.38 48.3606C270.286 48.3078 270.206 48.2317 270.149 48.1396C270.093 48.0474 270.06 47.9422 270.055 47.834C270.051 47.7257 270.073 47.6181 270.122 47.5212L271.644 44.4704C271.696 44.3646 271.777 44.2756 271.877 44.2135C271.978 44.1514 272.093 44.1187 272.211 44.1191H276.912C277.029 44.1187 277.145 44.1514 277.245 44.2135C277.346 44.2756 277.427 44.3646 277.479 44.4704L279.001 47.5212C279.049 47.6181 279.072 47.7257 279.067 47.834C279.062 47.9422 279.03 48.0474 278.973 48.1396C278.916 48.2317 278.837 48.3078 278.743 48.3606C278.648 48.4133 278.542 48.441 278.434 48.441H278.434Z" fill="#246BFD"/>
<path d="M269.361 68.6521H260.989V73.2282H269.361V68.6521Z" fill="#E0E0E0"/>
<path d="M264.794 69.6689H261.496V73.2281H264.794V69.6689Z" fill="white"/>
<path d="M268.853 69.6689H265.555V73.2281H268.853V69.6689Z" fill="white"/>
<path d="M265.175 78.1856C263.897 78.1841 262.672 77.6747 261.768 76.7692C260.864 75.8636 260.356 74.6359 260.354 73.3552V73.2281C260.355 72.9248 260.475 72.634 260.689 72.4196C260.903 72.2051 261.193 72.0844 261.496 72.0841H268.853C269.156 72.0844 269.446 72.2051 269.66 72.4196C269.874 72.634 269.995 72.9248 269.995 73.2281V73.3552C269.993 74.6359 269.485 75.8636 268.581 76.7692C267.678 77.6747 266.453 78.1841 265.175 78.1856Z" fill="#E0E0E0"/>
<path d="M269.047 69.7961H261.302C261.194 69.7961 261.088 69.7684 260.993 69.7157C260.899 69.6629 260.82 69.5868 260.763 69.4947C260.706 69.4025 260.674 69.2973 260.669 69.1891C260.664 69.0808 260.687 68.9732 260.735 68.8763L262.257 65.8255C262.31 65.7197 262.39 65.6307 262.491 65.5686C262.591 65.5065 262.707 65.4738 262.824 65.4742H267.525C267.643 65.4738 267.758 65.5065 267.859 65.5686C267.959 65.6307 268.04 65.7197 268.092 65.8255L269.614 68.8763C269.663 68.9732 269.686 69.0808 269.681 69.1891C269.676 69.2973 269.643 69.4025 269.587 69.4947C269.53 69.5868 269.45 69.6629 269.356 69.7157C269.261 69.7684 269.155 69.7961 269.047 69.7961H269.047Z" fill="#246BFD"/>
<path d="M216.592 28.9927H224.964V24.4166H216.592V28.9927Z" fill="#E0E0E0"/>
<path d="M221.159 28.9927H224.457V25.4335H221.159V28.9927Z" fill="white"/>
<path d="M217.1 28.9927H220.398V25.4335H217.1V28.9927Z" fill="white"/>
<path d="M220.778 33.9501C219.5 33.9486 218.275 33.4392 217.371 32.5337C216.468 31.6282 215.959 30.4004 215.958 29.1198V28.9927C215.958 28.6893 216.079 28.3986 216.293 28.1841C216.507 27.9696 216.797 27.849 217.1 27.8486H224.457C224.759 27.849 225.05 27.9696 225.264 28.1841C225.478 28.3986 225.598 28.6893 225.598 28.9927V29.1198C225.597 30.4004 225.089 31.6282 224.185 32.5337C223.281 33.4392 222.056 33.9486 220.778 33.9501Z" fill="#E0E0E0"/>
<path d="M224.651 25.5606H216.906C216.798 25.5606 216.691 25.533 216.597 25.4802C216.502 25.4274 216.423 25.3514 216.366 25.2592C216.309 25.167 216.277 25.0618 216.272 24.9536C216.267 24.8454 216.29 24.7377 216.339 24.6408L217.861 21.5901C217.913 21.4842 217.994 21.3952 218.094 21.3331C218.194 21.2711 218.31 21.2384 218.428 21.2388H223.128C223.246 21.2384 223.362 21.271 223.462 21.3331C223.562 21.3952 223.643 21.4842 223.696 21.5901L225.218 24.6408C225.266 24.7377 225.289 24.8454 225.284 24.9536C225.279 25.0618 225.247 25.167 225.19 25.2592C225.133 25.3514 225.054 25.4274 224.959 25.4802C224.865 25.533 224.759 25.5606 224.65 25.5606H224.651Z" fill="#246BFD"/>
<path d="M207.713 51.8732H216.085V47.2971H207.713V51.8732Z" fill="#E0E0E0"/>
<path d="M212.279 51.8732H215.577V48.314H212.279V51.8732Z" fill="white"/>
<path d="M208.22 51.8732H211.518V48.314H208.22V51.8732Z" fill="white"/>
<path d="M211.899 56.8306C210.621 56.8291 209.396 56.3197 208.492 55.4142C207.588 54.5087 207.08 53.2809 207.079 52.0003V51.8731C207.079 51.5698 207.199 51.279 207.413 51.0646C207.627 50.8501 207.918 50.7295 208.22 50.7291H215.577C215.88 50.7295 216.17 50.8501 216.384 51.0646C216.598 51.279 216.719 51.5698 216.719 51.8731V52.0003C216.718 53.2809 216.209 54.5087 215.306 55.4142C214.402 56.3197 213.177 56.8291 211.899 56.8306Z" fill="#E0E0E0"/>
<path d="M215.771 48.441H208.027C207.918 48.441 207.812 48.4133 207.718 48.3606C207.623 48.3078 207.544 48.2317 207.487 48.1396C207.43 48.0474 207.398 47.9422 207.393 47.834C207.388 47.7257 207.411 47.6181 207.459 47.5212L208.981 44.4704C209.034 44.3646 209.115 44.2756 209.215 44.2135C209.315 44.1514 209.431 44.1187 209.549 44.1191H214.249C214.367 44.1187 214.483 44.1514 214.583 44.2135C214.683 44.2756 214.764 44.3646 214.816 44.4704L216.338 47.5212C216.387 47.6181 216.41 47.7257 216.405 47.834C216.4 47.9422 216.368 48.0474 216.311 48.1396C216.254 48.2317 216.175 48.3078 216.08 48.3606C215.986 48.4133 215.879 48.441 215.771 48.441H215.771Z" fill="#246BFD"/>
<path d="M217.1 73.2281H225.472V68.6521H217.1V73.2281Z" fill="#E0E0E0"/>
<path d="M221.666 73.2281H224.964V69.669H221.666V73.2281Z" fill="white"/>
<path d="M217.607 73.2281H220.905V69.669H217.607V73.2281Z" fill="white"/>
<path d="M221.286 78.1856C220.008 78.1841 218.782 77.6747 217.879 76.7692C216.975 75.8636 216.467 74.6359 216.465 73.3552V73.2281C216.466 72.9248 216.586 72.634 216.8 72.4196C217.014 72.2051 217.304 72.0844 217.607 72.0841H224.964C225.267 72.0844 225.557 72.2051 225.771 72.4196C225.985 72.634 226.105 72.9248 226.106 73.2281V73.3552C226.104 74.6359 225.596 75.8636 224.692 76.7692C223.789 77.6747 222.564 78.1841 221.286 78.1856Z" fill="#E0E0E0"/>
<path d="M225.158 69.7961H217.413C217.305 69.7961 217.199 69.7684 217.104 69.7157C217.01 69.6629 216.93 69.5868 216.874 69.4947C216.817 69.4025 216.784 69.2973 216.78 69.1891C216.775 69.0808 216.797 68.9732 216.846 68.8763L218.368 65.8255C218.42 65.7197 218.501 65.6307 218.602 65.5686C218.702 65.5065 218.817 65.4738 218.935 65.4742H223.636C223.754 65.4738 223.869 65.5065 223.969 65.5686C224.07 65.6307 224.151 65.7197 224.203 65.8255L225.725 68.8763C225.774 68.9732 225.796 69.0808 225.791 69.1891C225.787 69.2973 225.754 69.4025 225.697 69.4947C225.641 69.5868 225.561 69.6629 225.467 69.7157C225.372 69.7684 225.266 69.7961 225.158 69.7961H225.158Z" fill="#246BFD"/>
<path d="M247.289 78.3127H238.917V82.8888H247.289V78.3127Z" fill="#E0E0E0"/>
<path d="M242.723 79.3296H239.425V82.8888H242.723V79.3296Z" fill="white"/>
<path d="M246.782 79.3296H243.484V82.8888H246.782V79.3296Z" fill="white"/>
<path d="M239.425 81.999C239.189 81.9993 238.964 82.0931 238.797 82.2599C238.631 82.4268 238.537 82.6529 238.537 82.8888V83.0159C238.536 83.6173 238.654 84.2128 238.883 84.7686C239.112 85.3243 239.448 85.8294 239.873 86.2548C240.297 86.6802 240.8 87.0177 241.355 87.248C241.909 87.4783 242.503 87.5968 243.103 87.5968C243.703 87.5968 244.298 87.4783 244.852 87.248C245.406 87.0177 245.91 86.6802 246.334 86.2548C246.758 85.8294 247.094 85.3243 247.324 84.7686C247.553 84.2128 247.67 83.6173 247.67 83.0159V82.8888C247.669 82.6529 247.576 82.4268 247.409 82.2599C247.243 82.0931 247.017 81.9993 246.782 81.999H239.425Z" fill="#E0E0E0"/>
<path d="M240.753 75.3892C240.682 75.3889 240.613 75.4085 240.553 75.4458C240.493 75.4831 240.444 75.5365 240.413 75.5999L238.891 78.6507C238.862 78.7088 238.848 78.7734 238.851 78.8384C238.854 78.9033 238.873 78.9664 238.907 79.0217C238.941 79.077 238.989 79.1227 239.046 79.1543C239.102 79.186 239.166 79.2026 239.231 79.2026H246.976C247.041 79.2026 247.104 79.186 247.161 79.1543C247.218 79.1227 247.265 79.077 247.299 79.0217C247.333 78.9664 247.353 78.9033 247.356 78.8384C247.359 78.7734 247.345 78.7088 247.316 78.6507L245.794 75.5999C245.762 75.5365 245.714 75.4831 245.654 75.4458C245.594 75.4085 245.524 75.3889 245.454 75.3892H240.753Z" fill="#246BFD"/>
<path d="M131.414 141.757C131.49 141.757 131.563 141.727 131.617 141.673C131.67 141.619 131.701 141.546 131.701 141.47C131.701 141.394 131.67 141.321 131.617 141.267C131.563 141.214 131.49 141.183 131.414 141.183H128.695V140.036H131.414C131.49 140.036 131.563 140.006 131.617 139.952C131.67 139.898 131.701 139.825 131.701 139.749C131.701 139.673 131.67 139.6 131.617 139.546C131.563 139.492 131.49 139.462 131.414 139.462H108.227C108.152 139.462 108.079 139.492 108.025 139.546C107.971 139.6 107.941 139.673 107.941 139.749C107.941 139.825 107.971 139.898 108.025 139.952C108.079 140.006 108.152 140.036 108.227 140.036H110.947V141.183H108.227C108.152 141.183 108.079 141.214 108.025 141.267C107.971 141.321 107.941 141.394 107.941 141.47C107.941 141.546 107.971 141.619 108.025 141.673C108.079 141.727 108.152 141.757 108.227 141.757H110.947V142.904H108.227C108.152 142.904 108.079 142.935 108.025 142.988C107.971 143.042 107.941 143.115 107.941 143.191C107.941 143.267 107.971 143.34 108.025 143.394C108.079 143.448 108.152 143.478 108.227 143.478H110.947V144.626H108.514C108.362 144.626 108.216 144.686 108.109 144.794C108.001 144.901 107.941 145.047 107.941 145.199C107.941 145.351 108.001 145.497 108.109 145.605C108.216 145.713 108.362 145.773 108.514 145.773H110.83C110.813 145.819 110.804 145.868 110.804 145.916V149.932C110.804 150.047 110.849 150.156 110.93 150.237C111.01 150.317 111.119 150.363 111.233 150.363C111.347 150.363 111.456 150.317 111.537 150.237C111.617 150.156 111.663 150.047 111.663 149.932V145.916C111.662 145.868 111.653 145.819 111.636 145.773H128.005C127.989 145.819 127.98 145.868 127.979 145.916V149.932C127.979 150.047 128.024 150.156 128.105 150.237C128.185 150.317 128.295 150.363 128.409 150.363C128.522 150.363 128.632 150.317 128.712 150.237C128.793 150.156 128.838 150.047 128.838 149.932V145.916C128.837 145.868 128.829 145.819 128.812 145.773H131.128C131.28 145.773 131.425 145.713 131.533 145.605C131.64 145.497 131.701 145.351 131.701 145.199C131.701 145.047 131.64 144.901 131.533 144.794C131.425 144.686 131.28 144.626 131.128 144.626H128.695V143.478H131.414C131.49 143.478 131.563 143.448 131.617 143.394C131.67 143.34 131.701 143.267 131.701 143.191C131.701 143.115 131.67 143.042 131.617 142.988C131.563 142.935 131.49 142.904 131.414 142.904H128.695V141.757H131.414ZM111.519 140.036H128.122V141.183H111.519V140.036ZM128.122 144.626H111.519V143.478H128.122V144.626ZM128.122 142.904H111.519V141.757H128.122V142.904Z" fill="#424242"/>
<path d="M220.867 176.09C220.943 176.09 221.016 176.06 221.069 176.006C221.123 175.952 221.153 175.879 221.153 175.803C221.153 175.727 221.123 175.654 221.069 175.6C221.016 175.546 220.943 175.516 220.867 175.516H218.148V174.369H220.867C220.943 174.369 221.016 174.339 221.069 174.285C221.123 174.231 221.153 174.158 221.153 174.082C221.153 174.006 221.123 173.933 221.069 173.879C221.016 173.825 220.943 173.795 220.867 173.795H197.68C197.604 173.795 197.531 173.825 197.478 173.879C197.424 173.933 197.394 174.006 197.394 174.082C197.394 174.158 197.424 174.231 197.478 174.285C197.531 174.339 197.604 174.369 197.68 174.369H200.4V175.516H197.68C197.604 175.516 197.531 175.546 197.478 175.6C197.424 175.654 197.394 175.727 197.394 175.803C197.394 175.879 197.424 175.952 197.478 176.006C197.531 176.06 197.604 176.09 197.68 176.09H200.4V177.237H197.68C197.604 177.237 197.531 177.268 197.478 177.321C197.424 177.375 197.394 177.448 197.394 177.524C197.394 177.6 197.424 177.673 197.478 177.727C197.531 177.781 197.604 177.811 197.68 177.811H200.4V178.958H197.966C197.815 178.958 197.669 179.019 197.562 179.127C197.454 179.234 197.394 179.38 197.394 179.532C197.394 179.684 197.454 179.83 197.562 179.938C197.669 180.045 197.815 180.106 197.966 180.106H200.283C200.266 180.152 200.257 180.2 200.257 180.249V184.265C200.256 184.322 200.267 184.378 200.289 184.43C200.31 184.483 200.342 184.53 200.382 184.571C200.422 184.611 200.469 184.643 200.521 184.664C200.573 184.686 200.629 184.697 200.686 184.697C200.742 184.697 200.798 184.686 200.851 184.664C200.903 184.643 200.95 184.611 200.99 184.571C201.03 184.53 201.062 184.483 201.083 184.43C201.105 184.378 201.115 184.322 201.115 184.265V180.249C201.115 180.2 201.106 180.152 201.089 180.106H217.458C217.441 180.152 217.432 180.2 217.432 180.249V184.265C217.432 184.379 217.477 184.489 217.558 184.57C217.638 184.65 217.747 184.696 217.861 184.696C217.975 184.696 218.084 184.65 218.165 184.57C218.246 184.489 218.291 184.379 218.291 184.265V180.249C218.29 180.2 218.281 180.152 218.264 180.106H220.581C220.733 180.106 220.878 180.045 220.986 179.938C221.093 179.83 221.153 179.684 221.153 179.532C221.153 179.38 221.093 179.234 220.986 179.127C220.878 179.019 220.733 178.958 220.581 178.958H218.148V177.811H220.867C220.943 177.811 221.016 177.781 221.069 177.727C221.123 177.673 221.153 177.6 221.153 177.524C221.153 177.448 221.123 177.375 221.069 177.321C221.016 177.268 220.943 177.237 220.867 177.237H218.148V176.09L220.867 176.09ZM200.972 174.369H217.575V175.516H200.972V174.369ZM217.575 178.958H200.972V177.811H217.575V178.958ZM217.575 177.237H200.972V176.09H217.575V177.237Z" fill="#424242"/>
<path d="M293.022 138.448C293.098 138.448 293.171 138.418 293.224 138.364C293.278 138.31 293.308 138.237 293.308 138.161C293.308 138.085 293.278 138.012 293.224 137.958C293.171 137.904 293.098 137.874 293.022 137.874H290.302V136.727H293.022C293.098 136.727 293.171 136.696 293.224 136.643C293.278 136.589 293.308 136.516 293.308 136.44C293.308 136.364 293.278 136.291 293.224 136.237C293.171 136.183 293.098 136.153 293.022 136.153H269.835C269.759 136.153 269.686 136.183 269.633 136.237C269.579 136.291 269.549 136.364 269.549 136.44C269.549 136.516 269.579 136.589 269.633 136.643C269.686 136.696 269.759 136.727 269.835 136.727H272.554V137.874H269.835C269.759 137.874 269.686 137.904 269.633 137.958C269.579 138.012 269.549 138.085 269.549 138.161C269.549 138.237 269.579 138.31 269.633 138.364C269.686 138.418 269.759 138.448 269.835 138.448H272.554V139.595H269.835C269.759 139.595 269.686 139.625 269.633 139.679C269.579 139.733 269.549 139.806 269.549 139.882C269.549 139.958 269.579 140.031 269.633 140.085C269.686 140.139 269.759 140.169 269.835 140.169H272.554V141.316H270.121C269.97 141.317 269.825 141.377 269.718 141.485C269.611 141.593 269.55 141.738 269.55 141.89C269.55 142.042 269.611 142.188 269.718 142.295C269.825 142.403 269.97 142.463 270.121 142.464H272.438C272.421 142.51 272.412 142.558 272.411 142.607V146.623C272.411 146.737 272.457 146.847 272.537 146.928C272.618 147.008 272.727 147.054 272.841 147.054C272.955 147.054 273.064 147.008 273.144 146.928C273.225 146.847 273.27 146.737 273.27 146.623V142.607C273.27 142.558 273.261 142.51 273.244 142.464H289.613C289.596 142.51 289.587 142.558 289.587 142.607V146.623C289.587 146.737 289.632 146.847 289.713 146.928C289.793 147.008 289.902 147.054 290.016 147.054C290.13 147.054 290.239 147.008 290.32 146.928C290.4 146.847 290.446 146.737 290.446 146.623V142.607C290.445 142.558 290.436 142.51 290.419 142.464H292.736C292.811 142.464 292.886 142.449 292.955 142.421C293.025 142.392 293.088 142.35 293.142 142.296C293.195 142.243 293.237 142.18 293.266 142.11C293.295 142.04 293.31 141.966 293.31 141.89C293.31 141.815 293.295 141.74 293.266 141.67C293.237 141.6 293.195 141.537 293.142 141.484C293.088 141.431 293.025 141.388 292.955 141.36C292.886 141.331 292.811 141.316 292.736 141.316H290.302V140.169H293.022C293.098 140.169 293.171 140.139 293.224 140.085C293.278 140.031 293.308 139.958 293.308 139.882C293.308 139.806 293.278 139.733 293.224 139.679C293.171 139.625 293.098 139.595 293.022 139.595H290.302V138.448H293.022ZM273.127 136.727H289.73V137.874H273.127V136.727ZM289.73 141.316H273.127V140.169H289.73V141.316ZM289.73 139.595H273.127V138.448H289.73V139.595Z" fill="#424242"/>
<path d="M184.352 210.575C184.352 203.219 178.396 185.761 171.05 185.761C163.704 185.761 157.748 203.219 157.748 210.575C157.751 214.109 159.153 217.497 161.647 219.995C164.142 222.493 167.524 223.897 171.05 223.897C174.576 223.897 177.958 222.493 180.453 219.995C182.947 217.497 184.349 214.109 184.352 210.575Z" fill="#E0E0E0"/>
<path d="M171.05 240.092C171.01 240.092 170.971 240.076 170.942 240.047C170.914 240.019 170.898 239.98 170.898 239.94V208.823C170.898 208.803 170.902 208.783 170.909 208.764C170.917 208.746 170.928 208.729 170.942 208.715C170.956 208.7 170.973 208.689 170.992 208.681C171.01 208.674 171.03 208.67 171.05 208.67C171.07 208.67 171.09 208.674 171.108 208.681C171.127 208.689 171.144 208.7 171.158 208.715C171.172 208.729 171.183 208.746 171.191 208.764C171.198 208.783 171.202 208.803 171.202 208.823V239.94C171.202 239.98 171.186 240.019 171.158 240.047C171.129 240.076 171.09 240.092 171.05 240.092Z" fill="#E0E0E0"/>
<path d="M171.05 214.637C171.028 214.637 171.007 214.632 170.987 214.623C170.967 214.614 170.949 214.601 170.935 214.584L163.285 205.743C163.259 205.713 163.246 205.673 163.249 205.633C163.252 205.593 163.27 205.555 163.301 205.529C163.331 205.503 163.371 205.489 163.411 205.492C163.451 205.495 163.488 205.513 163.515 205.544L171.165 214.384C171.184 214.406 171.196 214.434 171.201 214.463C171.205 214.491 171.2 214.521 171.188 214.548C171.176 214.574 171.157 214.597 171.132 214.612C171.108 214.628 171.079 214.637 171.05 214.637Z" fill="#E0E0E0"/>
<path d="M171.05 219.739C171.02 219.739 170.991 219.73 170.965 219.713C170.94 219.696 170.921 219.673 170.909 219.645C170.898 219.617 170.895 219.586 170.901 219.557C170.907 219.527 170.921 219.5 170.942 219.479L175.289 215.123C175.318 215.094 175.357 215.078 175.397 215.078C175.437 215.078 175.476 215.094 175.504 215.123C175.533 215.151 175.549 215.19 175.549 215.23C175.549 215.271 175.533 215.31 175.504 215.338L171.158 219.694C171.143 219.708 171.127 219.72 171.108 219.727C171.09 219.735 171.07 219.739 171.05 219.739Z" fill="#E0E0E0"/>
<path d="M57.4825 66.2118C57.4825 58.8551 51.5272 41.3981 44.181 41.3981C36.8347 41.3981 30.8794 58.8551 30.8794 66.2118C30.8816 69.7456 32.2839 73.1339 34.7782 75.6319C37.2725 78.1299 40.6546 79.5331 44.181 79.5331C47.7074 79.5331 51.0894 78.1299 53.5837 75.6319C56.078 73.1339 57.4804 69.7456 57.4825 66.2118Z" fill="#424242"/>
<path d="M44.181 95.7287C44.1406 95.7287 44.1019 95.7126 44.0734 95.684C44.0449 95.6554 44.0289 95.6166 44.0289 95.5762V64.4596C44.0291 64.4194 44.0452 64.3808 44.0737 64.3524C44.1022 64.324 44.1408 64.3081 44.181 64.3081C44.2212 64.3081 44.2597 64.324 44.2882 64.3524C44.3167 64.3808 44.3329 64.4194 44.3331 64.4596V95.5762C44.3331 95.5962 44.3292 95.616 44.3215 95.6345C44.3139 95.653 44.3027 95.6698 44.2885 95.684C44.2744 95.6981 44.2576 95.7094 44.2392 95.717C44.2207 95.7247 44.201 95.7287 44.181 95.7287Z" fill="#E0E0E0"/>
<path d="M44.1811 70.2732C44.1593 70.2733 44.1377 70.2686 44.1178 70.2595C44.098 70.2505 44.0803 70.2372 44.0661 70.2207L36.416 61.3799C36.3897 61.3494 36.3766 61.3096 36.3795 61.2694C36.3824 61.2291 36.4012 61.1917 36.4316 61.1652C36.462 61.1388 36.5017 61.1255 36.5418 61.1283C36.582 61.1311 36.6194 61.1498 36.6459 61.1802L44.2959 70.0209C44.315 70.043 44.3274 70.0701 44.3315 70.0991C44.3357 70.128 44.3315 70.1575 44.3194 70.1841C44.3073 70.2106 44.2878 70.2332 44.2633 70.249C44.2388 70.2648 44.2102 70.2732 44.1811 70.2733V70.2732Z" fill="#E0E0E0"/>
<path d="M44.181 75.3754C44.1509 75.3754 44.1215 75.3664 44.0965 75.3497C44.0715 75.3329 44.052 75.3091 44.0405 75.2813C44.029 75.2534 44.026 75.2228 44.0318 75.1932C44.0377 75.1637 44.0522 75.1365 44.0734 75.1152L48.4203 70.7591C48.4344 70.745 48.4512 70.7337 48.4697 70.7261C48.4881 70.7184 48.5079 70.7145 48.5279 70.7145C48.5478 70.7145 48.5676 70.7184 48.5861 70.7261C48.6045 70.7337 48.6213 70.745 48.6354 70.7591C48.6495 70.7733 48.6607 70.7901 48.6684 70.8086C48.676 70.827 48.68 70.8469 48.68 70.8669C48.68 70.8869 48.676 70.9067 48.6684 70.9252C48.6607 70.9437 48.6495 70.9605 48.6354 70.9746L44.2885 75.3307C44.2744 75.3449 44.2577 75.3562 44.2392 75.3638C44.2208 75.3715 44.201 75.3754 44.181 75.3754Z" fill="#E0E0E0"/>
<path d="M29.7741 95.5266C29.7741 94.0508 30.3591 92.6354 31.4005 91.5918C32.442 90.5482 33.8544 89.9619 35.3272 89.9619C36.7999 89.9619 38.2124 90.5482 39.2538 91.5918C40.2952 92.6354 40.8802 94.0508 40.8802 95.5266" fill="#E0E0E0"/>
<path d="M35.3272 95.5266C35.2874 95.5266 35.2492 95.5108 35.221 95.4826C35.1929 95.4544 35.1771 95.4161 35.1771 95.3762V92.4435C35.1771 92.4036 35.1929 92.3653 35.221 92.3371C35.2492 92.3089 35.2874 92.2931 35.3272 92.2931C35.367 92.2931 35.4051 92.3089 35.4333 92.3371C35.4614 92.3653 35.4772 92.4036 35.4772 92.4435V95.3762C35.4772 95.4161 35.4614 95.4544 35.4333 95.4826C35.4051 95.5108 35.367 95.5266 35.3272 95.5266Z" fill="#E0E0E0"/>
<path d="M35.3271 94.5189C35.2912 94.5189 35.2565 94.506 35.2294 94.4826L33.4284 92.9336C33.4135 92.9207 33.4012 92.905 33.3923 92.8874C33.3834 92.8698 33.378 92.8506 33.3765 92.8309C33.375 92.8112 33.3774 92.7914 33.3835 92.7726C33.3897 92.7539 33.3995 92.7365 33.4123 92.7215C33.4251 92.7065 33.4408 92.6942 33.4584 92.6853C33.4759 92.6764 33.4951 92.671 33.5148 92.6695C33.5344 92.668 33.5542 92.6704 33.5729 92.6765C33.5916 92.6827 33.609 92.6925 33.6239 92.7053L35.4249 94.2543C35.4482 94.2743 35.4648 94.301 35.4724 94.3308C35.4801 94.3605 35.4785 94.3919 35.4679 94.4207C35.4572 94.4495 35.438 94.4744 35.4128 94.4919C35.3877 94.5095 35.3577 94.5189 35.3271 94.5189H35.3271Z" fill="#E0E0E0"/>
<path d="M46.8835 95.5266C46.8835 94.0508 47.4686 92.6354 48.51 91.5918C49.5514 90.5482 50.9638 89.9619 52.4366 89.9619C53.9094 89.9619 55.3218 90.5482 56.3632 91.5918C57.4046 92.6354 57.9897 94.0508 57.9897 95.5266" fill="#E0E0E0"/>
<path d="M52.4366 95.5266C52.3968 95.5266 52.3586 95.5108 52.3305 95.4826C52.3023 95.4544 52.2865 95.4161 52.2865 95.3762V92.4435C52.2865 92.4036 52.3023 92.3653 52.3305 92.3371C52.3586 92.3089 52.3968 92.2931 52.4366 92.2931C52.4764 92.2931 52.5146 92.3089 52.5427 92.3371C52.5709 92.3653 52.5867 92.4036 52.5867 92.4435V95.3762C52.5867 95.4161 52.5709 95.4544 52.5427 95.4826C52.5146 95.5108 52.4764 95.5266 52.4366 95.5266Z" fill="#E0E0E0"/>
<path d="M52.4365 94.5188C52.4007 94.5189 52.366 94.506 52.3388 94.4825L50.5378 92.9336C50.5079 92.9075 50.4894 92.8706 50.4865 92.831C50.4836 92.7913 50.4965 92.7522 50.5223 92.722C50.5481 92.6918 50.5849 92.6731 50.6244 92.67C50.6639 92.6669 50.7031 92.6796 50.7334 92.7053L52.5344 94.2543C52.5576 94.2743 52.5742 94.301 52.5819 94.3307C52.5896 94.3605 52.588 94.3919 52.5773 94.4207C52.5667 94.4495 52.5475 94.4743 52.5223 94.4919C52.4971 94.5094 52.4672 94.5188 52.4365 94.5188V94.5188Z" fill="#E0E0E0"/>
<path d="M336.936 210.162C336.936 202.805 330.981 185.348 323.635 185.348C316.289 185.348 310.333 202.805 310.333 210.162C310.335 213.695 311.738 217.084 314.232 219.582C316.726 222.08 320.108 223.483 323.635 223.483C327.161 223.483 330.543 222.08 333.038 219.582C335.532 217.084 336.934 213.695 336.936 210.162Z" fill="#246BFD"/>
<path d="M323.635 239.678C323.594 239.678 323.556 239.662 323.527 239.634C323.499 239.605 323.483 239.566 323.483 239.526V208.409C323.483 208.389 323.486 208.369 323.494 208.351C323.502 208.332 323.513 208.315 323.527 208.301C323.541 208.287 323.558 208.275 323.576 208.268C323.595 208.26 323.615 208.256 323.635 208.256C323.655 208.256 323.675 208.26 323.693 208.268C323.712 208.275 323.728 208.287 323.743 208.301C323.757 208.315 323.768 208.332 323.776 208.351C323.783 208.369 323.787 208.389 323.787 208.409V239.526C323.787 239.566 323.771 239.605 323.742 239.634C323.714 239.662 323.675 239.678 323.635 239.678Z" fill="#E0E0E0"/>
<path d="M323.635 214.223C323.613 214.223 323.591 214.219 323.572 214.209C323.552 214.2 323.534 214.187 323.52 214.171L315.87 205.33C315.844 205.299 315.831 205.26 315.834 205.219C315.837 205.179 315.855 205.142 315.886 205.115C315.916 205.089 315.956 205.076 315.996 205.078C316.036 205.081 316.073 205.1 316.1 205.13L323.75 213.971C323.769 213.993 323.781 214.02 323.785 214.049C323.789 214.078 323.785 214.107 323.773 214.134C323.761 214.161 323.742 214.183 323.717 214.199C323.693 214.215 323.664 214.223 323.635 214.223V214.223Z" fill="#E0E0E0"/>
<path d="M323.635 219.325C323.605 219.325 323.575 219.316 323.55 219.3C323.525 219.283 323.506 219.259 323.494 219.231C323.483 219.203 323.48 219.173 323.486 219.143C323.491 219.114 323.506 219.086 323.527 219.065L327.874 214.709C327.888 214.695 327.905 214.684 327.923 214.676C327.942 214.668 327.962 214.664 327.982 214.664C328.002 214.664 328.021 214.668 328.04 214.676C328.058 214.684 328.075 214.695 328.089 214.709C328.103 214.723 328.114 214.74 328.122 214.758C328.13 214.777 328.134 214.797 328.134 214.817C328.134 214.837 328.13 214.857 328.122 214.875C328.114 214.894 328.103 214.91 328.089 214.924L323.742 219.281C323.728 219.295 323.711 219.306 323.693 219.314C323.675 219.321 323.655 219.325 323.635 219.325Z" fill="#E0E0E0"/>
<path d="M128.138 212.494H125.56C125.368 212.494 125.183 212.417 125.047 212.281C124.911 212.145 124.835 211.96 124.835 211.767V208.377C124.835 208.184 124.911 208 125.047 207.863C125.183 207.727 125.368 207.65 125.56 207.65H128.138C128.33 207.65 128.514 207.727 128.65 207.863C128.786 208 128.862 208.184 128.863 208.377V211.767C128.862 211.96 128.786 212.145 128.65 212.281C128.514 212.417 128.33 212.494 128.138 212.494Z" fill="#424242"/>
<path d="M149.888 240.102H136.677C136.314 240.102 135.965 239.957 135.709 239.7C135.452 239.443 135.308 239.094 135.307 238.73V213.059C135.308 212.695 135.452 212.346 135.709 212.089C135.965 211.832 136.314 211.687 136.677 211.687H149.888C150.251 211.687 150.599 211.832 150.856 212.089C151.113 212.346 151.257 212.695 151.257 213.059V238.73C151.257 239.094 151.113 239.443 150.856 239.7C150.599 239.957 150.251 240.102 149.888 240.102Z" fill="#424242"/>
<path d="M141.993 240.102H119.115C118.752 240.102 118.404 239.957 118.147 239.7C117.891 239.443 117.746 239.094 117.746 238.73V213.059C117.746 212.695 117.891 212.346 118.147 212.089C118.404 211.832 118.752 211.687 119.115 211.687H141.993C142.356 211.687 142.705 211.832 142.961 212.089C143.218 212.346 143.362 212.695 143.363 213.059V238.73C143.362 239.094 143.218 239.443 142.961 239.7C142.705 239.957 142.356 240.102 141.993 240.102Z" fill="#246BFD"/>
<path d="M125.721 212.494H123.143C122.951 212.494 122.767 212.417 122.631 212.281C122.495 212.145 122.418 211.96 122.418 211.767V208.377C122.418 208.184 122.495 208 122.631 207.863C122.767 207.727 122.951 207.65 123.143 207.65H125.721C125.913 207.65 126.097 207.727 126.233 207.863C126.369 208 126.446 208.184 126.446 208.377V211.767C126.446 211.96 126.369 212.145 126.233 212.281C126.097 212.417 125.913 212.494 125.721 212.494Z" fill="#246BFD"/>
<path d="M129.104 224.361H126.043C125.936 224.36 125.834 224.318 125.758 224.242C125.683 224.167 125.64 224.064 125.64 223.957V219.275C125.64 219.168 125.683 219.065 125.758 218.99C125.834 218.914 125.936 218.871 126.043 218.871H129.104C129.211 218.871 129.313 218.914 129.389 218.99C129.464 219.065 129.507 219.168 129.507 219.275V223.957C129.507 224.064 129.464 224.167 129.389 224.242C129.313 224.318 129.211 224.36 129.104 224.361Z" fill="white"/>
<path d="M135.065 224.361H132.004C131.898 224.36 131.795 224.318 131.72 224.242C131.644 224.167 131.602 224.064 131.602 223.957V219.275C131.602 219.168 131.644 219.065 131.72 218.99C131.795 218.914 131.898 218.871 132.004 218.871H135.065C135.172 218.871 135.275 218.914 135.35 218.99C135.426 219.065 135.468 219.168 135.468 219.275V223.957C135.468 224.064 135.426 224.167 135.35 224.242C135.275 224.318 135.172 224.36 135.065 224.361Z" fill="white"/>
<path d="M129.104 232.918H126.043C125.936 232.917 125.834 232.875 125.758 232.799C125.683 232.724 125.64 232.621 125.64 232.514V227.832C125.64 227.725 125.683 227.622 125.758 227.547C125.834 227.471 125.936 227.428 126.043 227.428H129.104C129.211 227.428 129.313 227.471 129.389 227.547C129.464 227.622 129.507 227.725 129.507 227.832V232.514C129.507 232.621 129.464 232.724 129.389 232.799C129.313 232.875 129.211 232.917 129.104 232.918Z" fill="white"/>
<path d="M135.065 232.918H132.004C131.898 232.917 131.795 232.875 131.72 232.799C131.644 232.724 131.602 232.621 131.602 232.514V227.832C131.602 227.725 131.644 227.622 131.72 227.547C131.795 227.471 131.898 227.428 132.004 227.428H135.065C135.172 227.428 135.275 227.471 135.35 227.547C135.426 227.622 135.468 227.725 135.468 227.832V232.514C135.468 232.621 135.426 232.724 135.35 232.799C135.275 232.875 135.172 232.917 135.065 232.918Z" fill="white"/>
<path d="M36.4375 132.026H33.3971C33.1704 132.025 32.953 131.935 32.7927 131.774C32.6324 131.614 32.5422 131.396 32.542 131.169V124.123C32.5422 123.896 32.6324 123.678 32.7927 123.517C32.953 123.357 33.1704 123.266 33.3971 123.266H36.4375C36.6642 123.266 36.8816 123.357 37.0419 123.517C37.2022 123.678 37.2924 123.896 37.2927 124.123V131.169C37.2924 131.396 37.2022 131.614 37.0419 131.774C36.8816 131.935 36.6642 132.025 36.4375 132.026Z" fill="#424242"/>
<path d="M48.4093 197.723H32.827C32.3988 197.722 31.9882 197.552 31.6854 197.248C31.3826 196.945 31.2122 196.533 31.2118 196.104V133.073C31.2122 132.644 31.3826 132.232 31.6854 131.929C31.9882 131.626 32.3988 131.455 32.827 131.454H48.4093C48.8375 131.455 49.2481 131.626 49.5509 131.929C49.8537 132.232 50.024 132.644 50.0245 133.073V196.104C50.024 196.533 49.8537 196.945 49.5509 197.248C49.2481 197.552 48.8375 197.722 48.4093 197.723Z" fill="#424242"/>
<path d="M39.0979 197.723H23.5156C23.0874 197.722 22.6768 197.552 22.374 197.248C22.0712 196.945 21.9009 196.533 21.9004 196.104V133.073C21.9009 132.644 22.0712 132.232 22.374 131.929C22.6768 131.626 23.0874 131.455 23.5156 131.454H39.0979C39.5262 131.455 39.9367 131.626 40.2395 131.929C40.5423 132.232 40.7127 132.644 40.7131 133.073V196.104C40.7127 196.533 40.5423 196.945 40.2395 197.248C39.9367 197.552 39.5262 197.722 39.0979 197.723Z" fill="#246BFD"/>
<path d="M33.5871 132.026H30.5467C30.3199 132.025 30.1026 131.935 29.9423 131.774C29.782 131.614 29.6918 131.396 29.6915 131.169V124.123C29.6918 123.896 29.782 123.678 29.9423 123.517C30.1026 123.357 30.3199 123.266 30.5467 123.266H33.5871C33.8138 123.266 34.0312 123.357 34.1915 123.517C34.3518 123.678 34.442 123.896 34.4422 124.123V131.169C34.442 131.396 34.3518 131.614 34.1915 131.774C34.0312 131.935 33.8138 132.025 33.5871 132.026Z" fill="#246BFD"/>
<path d="M29.5965 145.736H25.986C25.86 145.736 25.7393 145.686 25.6502 145.597C25.5612 145.508 25.5111 145.387 25.5109 145.26V139.738C25.5111 139.612 25.5612 139.491 25.6502 139.401C25.7393 139.312 25.86 139.262 25.986 139.262H29.5965C29.7225 139.262 29.8432 139.312 29.9323 139.401C30.0214 139.491 30.0714 139.612 30.0716 139.738V145.26C30.0714 145.386 30.0214 145.508 29.9323 145.597C29.8432 145.686 29.7225 145.736 29.5965 145.736Z" fill="white"/>
<path d="M36.6276 145.736H33.017C32.8911 145.736 32.7703 145.686 32.6813 145.597C32.5922 145.508 32.5421 145.387 32.5419 145.26V139.738C32.5421 139.612 32.5922 139.491 32.6813 139.401C32.7703 139.312 32.8911 139.262 33.017 139.262H36.6275C36.7535 139.262 36.8742 139.312 36.9633 139.401C37.0524 139.491 37.1025 139.612 37.1026 139.738V145.26C37.1025 145.386 37.0524 145.508 36.9633 145.597C36.8743 145.686 36.7535 145.736 36.6276 145.736Z" fill="white"/>
<path d="M29.5965 155.829H25.986C25.86 155.829 25.7393 155.779 25.6502 155.689C25.5612 155.6 25.5111 155.479 25.5109 155.353V149.83C25.5111 149.704 25.5612 149.583 25.6502 149.494C25.7393 149.405 25.86 149.355 25.986 149.354H29.5965C29.7225 149.355 29.8432 149.405 29.9323 149.494C30.0214 149.583 30.0714 149.704 30.0716 149.83V155.353C30.0714 155.479 30.0214 155.6 29.9323 155.689C29.8432 155.779 29.7225 155.829 29.5965 155.829Z" fill="white"/>
<path d="M36.6276 155.829H33.017C32.8911 155.829 32.7703 155.779 32.6813 155.689C32.5922 155.6 32.5421 155.479 32.5419 155.353V149.83C32.5421 149.704 32.5922 149.583 32.6813 149.494C32.7703 149.405 32.8911 149.355 33.017 149.354H36.6275C36.7535 149.355 36.8742 149.405 36.9633 149.494C37.0524 149.583 37.1025 149.704 37.1026 149.83V155.353C37.1025 155.479 37.0524 155.6 36.9633 155.689C36.8743 155.779 36.7535 155.829 36.6276 155.829Z" fill="white"/>
<path d="M29.5965 165.922H25.986C25.86 165.921 25.7393 165.871 25.6502 165.782C25.5612 165.693 25.5111 165.572 25.5109 165.445V159.923C25.5111 159.797 25.5612 159.676 25.6502 159.587C25.7393 159.497 25.86 159.447 25.986 159.447H29.5965C29.7225 159.447 29.8432 159.497 29.9323 159.587C30.0214 159.676 30.0714 159.797 30.0716 159.923V165.445C30.0714 165.572 30.0214 165.693 29.9323 165.782C29.8432 165.871 29.7225 165.921 29.5965 165.922Z" fill="white"/>
<path d="M36.6276 165.922H33.017C32.8911 165.921 32.7703 165.871 32.6813 165.782C32.5922 165.693 32.5421 165.572 32.5419 165.445V159.923C32.5421 159.797 32.5922 159.676 32.6813 159.587C32.7703 159.497 32.8911 159.447 33.017 159.447H36.6275C36.7535 159.447 36.8742 159.497 36.9633 159.587C37.0524 159.676 37.1025 159.797 37.1026 159.923V165.445C37.1025 165.572 37.0524 165.693 36.9633 165.782C36.8743 165.871 36.7535 165.921 36.6276 165.922Z" fill="white"/>
<path d="M29.5965 176.014H25.986C25.86 176.014 25.7393 175.964 25.6502 175.875C25.5612 175.785 25.5111 175.664 25.5109 175.538V170.016C25.5111 169.89 25.5612 169.769 25.6502 169.679C25.7393 169.59 25.86 169.54 25.986 169.54H29.5965C29.7225 169.54 29.8432 169.59 29.9323 169.679C30.0214 169.769 30.0714 169.89 30.0716 170.016V175.538C30.0714 175.664 30.0214 175.785 29.9323 175.875C29.8432 175.964 29.7225 176.014 29.5965 176.014Z" fill="white"/>
<path d="M36.6276 176.014H33.017C32.8911 176.014 32.7703 175.964 32.6813 175.875C32.5922 175.785 32.5421 175.664 32.5419 175.538V170.016C32.5421 169.89 32.5922 169.769 32.6813 169.679C32.7703 169.59 32.8911 169.54 33.017 169.54H36.6275C36.7535 169.54 36.8742 169.59 36.9633 169.679C37.0524 169.769 37.1025 169.89 37.1026 170.016V175.538C37.1025 175.664 37.0524 175.785 36.9633 175.875C36.8743 175.964 36.7535 176.014 36.6276 176.014Z" fill="white"/>
<path d="M29.5965 186.107H25.986C25.86 186.107 25.7393 186.056 25.6502 185.967C25.5612 185.878 25.5111 185.757 25.5109 185.631V180.108C25.5111 179.982 25.5612 179.861 25.6502 179.772C25.7393 179.683 25.86 179.632 25.986 179.632H29.5965C29.7225 179.632 29.8432 179.683 29.9323 179.772C30.0214 179.861 30.0714 179.982 30.0716 180.108V185.631C30.0714 185.757 30.0214 185.878 29.9323 185.967C29.8432 186.056 29.7225 186.107 29.5965 186.107Z" fill="white"/>
<path d="M36.6276 186.107H33.017C32.8911 186.107 32.7703 186.056 32.6813 185.967C32.5922 185.878 32.5421 185.757 32.5419 185.631V180.108C32.5421 179.982 32.5922 179.861 32.6813 179.772C32.7703 179.683 32.8911 179.632 33.017 179.632H36.6275C36.7535 179.632 36.8742 179.683 36.9633 179.772C37.0524 179.861 37.1025 179.982 37.1026 180.108V185.631C37.1025 185.757 37.0524 185.878 36.9633 185.967C36.8743 186.056 36.7535 186.107 36.6276 186.107Z" fill="white"/>
<path d="M278.265 212.58H275.687C275.495 212.58 275.311 212.504 275.175 212.367C275.039 212.231 274.962 212.047 274.962 211.854V208.463C274.962 208.271 275.039 208.086 275.175 207.95C275.311 207.814 275.495 207.737 275.687 207.737H278.265C278.457 207.737 278.642 207.814 278.778 207.95C278.913 208.086 278.99 208.271 278.99 208.463V211.854C278.99 212.047 278.913 212.231 278.778 212.367C278.642 212.504 278.457 212.58 278.265 212.58Z" fill="#424242"/>
<path d="M300.016 240.189H286.804C286.441 240.188 286.093 240.044 285.836 239.786C285.579 239.529 285.435 239.18 285.435 238.816V213.146C285.435 212.782 285.579 212.433 285.836 212.176C286.093 211.918 286.441 211.774 286.804 211.773H300.016C300.379 211.774 300.727 211.918 300.983 212.176C301.24 212.433 301.385 212.782 301.385 213.146V238.816C301.385 239.18 301.24 239.529 300.983 239.786C300.727 240.044 300.379 240.188 300.016 240.189Z" fill="#424242"/>
<path d="M292.121 240.189H269.243C268.88 240.188 268.532 240.044 268.275 239.786C268.018 239.529 267.874 239.18 267.873 238.816V213.146C267.874 212.782 268.018 212.433 268.275 212.176C268.532 211.918 268.88 211.774 269.243 211.773H292.121C292.484 211.774 292.832 211.918 293.089 212.176C293.346 212.433 293.49 212.782 293.49 213.146V238.816C293.49 239.18 293.346 239.529 293.089 239.786C292.832 240.044 292.484 240.188 292.121 240.189Z" fill="#246BFD"/>
<path d="M275.848 212.58H273.271C273.078 212.58 272.894 212.504 272.758 212.367C272.622 212.231 272.546 212.047 272.546 211.854V208.463C272.546 208.271 272.622 208.086 272.758 207.95C272.894 207.814 273.078 207.737 273.271 207.737H275.848C276.041 207.737 276.225 207.814 276.361 207.95C276.497 208.086 276.573 208.271 276.573 208.463V211.854C276.573 212.047 276.497 212.231 276.361 212.367C276.225 212.504 276.041 212.58 275.848 212.58Z" fill="#246BFD"/>
<path d="M279.232 224.447H276.171C276.064 224.447 275.961 224.405 275.886 224.329C275.81 224.253 275.768 224.151 275.768 224.044V219.362C275.768 219.255 275.81 219.152 275.886 219.076C275.961 219.001 276.064 218.958 276.171 218.958H279.232C279.339 218.958 279.441 219.001 279.516 219.076C279.592 219.152 279.634 219.255 279.635 219.362V224.044C279.634 224.151 279.592 224.253 279.516 224.329C279.441 224.405 279.339 224.447 279.232 224.447Z" fill="white"/>
<path d="M285.193 224.447H282.132C282.025 224.447 281.923 224.405 281.847 224.329C281.772 224.253 281.729 224.151 281.729 224.044V219.362C281.729 219.255 281.772 219.152 281.847 219.076C281.923 219.001 282.025 218.958 282.132 218.958H285.193C285.3 218.958 285.402 219.001 285.478 219.076C285.553 219.152 285.596 219.255 285.596 219.362V224.044C285.596 224.151 285.553 224.253 285.478 224.329C285.402 224.405 285.3 224.447 285.193 224.447Z" fill="white"/>
<path d="M279.232 233.004H276.171C276.064 233.004 275.961 232.962 275.886 232.886C275.81 232.81 275.768 232.708 275.768 232.601V227.919C275.768 227.812 275.81 227.709 275.886 227.633C275.961 227.558 276.064 227.515 276.171 227.515H279.232C279.339 227.515 279.441 227.558 279.516 227.633C279.592 227.709 279.634 227.812 279.635 227.919V232.601C279.634 232.708 279.592 232.81 279.516 232.886C279.441 232.962 279.339 233.004 279.232 233.004Z" fill="white"/>
<path d="M285.193 233.004H282.132C282.025 233.004 281.923 232.962 281.847 232.886C281.772 232.81 281.729 232.708 281.729 232.601V227.919C281.729 227.812 281.772 227.709 281.847 227.633C281.923 227.558 282.025 227.515 282.132 227.515H285.193C285.3 227.515 285.402 227.558 285.478 227.633C285.553 227.709 285.596 227.812 285.596 227.919V232.601C285.596 232.708 285.553 232.81 285.478 232.886C285.402 232.962 285.3 233.004 285.193 233.004Z" fill="white"/>
</g>
<defs>
<clipPath id="clip0_1157_19048">
<rect width="360" height="291.429" fill="white"/>
</clipPath>
</defs>
</svg>
