<svg width="60" height="60" viewBox="0 0 60 60" fill="none" xmlns="http://www.w3.org/2000/svg">
<path d="M0 30C0 13.4315 13.4315 0 30 0C46.5685 0 60 13.4315 60 30C60 46.5685 46.5685 60 30 60C13.4315 60 0 46.5685 0 30Z" fill="url(#paint0_linear_444_1119)"/>
<g clip-path="url(#clip0_444_1119)">
<path d="M51.0097 26.5806C51.1512 26.4339 51.2823 26.2777 51.4022 26.113C51.6537 25.7084 51.5723 25.2725 51.1933 24.9039C50.693 24.4171 50.0693 24.145 49.4207 23.9267C47.5863 23.3095 45.6863 23.0975 43.7628 23.0228C42.2268 22.9572 40.6879 23.0243 39.1636 23.2234C37.7207 23.417 36.2944 23.686 34.9821 24.3605C34.7353 24.486 34.5067 24.6438 34.3022 24.8297C33.8396 25.2532 33.6518 25.7987 34.244 26.3935C34.2965 26.4363 34.3425 26.4865 34.3804 26.5425C33.6895 26.2909 33.0107 26.0142 32.5765 25.3856C32.4657 25.2326 32.4082 25.0479 32.4129 24.8596C32.4175 24.6712 32.4839 24.4895 32.602 24.3421C32.8914 23.9689 33.2718 23.6752 33.7073 23.4886C34.7354 22.9789 35.8396 22.7113 36.9601 22.4996C39.2109 22.0962 41.4991 21.9353 43.7847 22.0199C45.5234 22.0521 47.2554 22.2442 48.9584 22.5939C50.0208 22.8213 51.0687 23.103 52.0183 23.6539C52.3447 23.824 52.6255 24.0691 52.8373 24.3688C52.9493 24.5293 53.0061 24.7215 52.9991 24.9167C52.9921 25.1119 52.9217 25.2996 52.7984 25.4518C52.3485 26.0262 51.7076 26.3043 51.0097 26.5806Z" fill="white"/>
<path d="M8.96118 26.5327C8.37287 26.3685 7.8317 26.0692 7.3814 25.659C6.87193 25.1604 6.87193 24.5978 7.38707 24.1C7.88737 23.6167 8.51391 23.3481 9.15779 23.1203C10.7996 22.5393 12.5088 22.291 14.2352 22.136C15.9458 21.9841 17.6655 21.9594 19.3799 22.0621C21.2519 22.1724 23.1078 22.4028 24.9099 22.9463C25.606 23.1294 26.2666 23.4265 26.8644 23.8254C27.2261 24.085 27.5605 24.3753 27.5781 24.8729C27.5862 25.0681 27.5267 25.2601 27.4095 25.417C26.9973 25.9742 26.3883 26.2491 25.7727 26.5102C25.7499 26.5199 25.7169 26.5065 25.6893 26.5039C25.7002 26.4774 25.7137 26.452 25.7295 26.4282C25.7712 26.3757 25.8166 26.326 25.8608 26.2756C26.0308 26.1085 26.1271 25.8813 26.1288 25.6437C26.1304 25.4062 26.0373 25.1777 25.8696 25.0082C25.5124 24.5839 25.0333 24.3364 24.5355 24.1269C23.5332 23.7289 22.4861 23.4531 21.417 23.3055C19.9431 23.0751 18.4517 22.9732 16.96 23.0009C14.9769 23.0307 13.0101 23.2063 11.096 23.7608C10.3755 23.9697 9.6721 24.2236 9.0639 24.6804C8.91882 24.7862 8.78875 24.911 8.67717 25.0513C8.52838 25.2224 8.4499 25.4429 8.45735 25.6689C8.4648 25.8949 8.55762 26.1099 8.71736 26.271C8.79608 26.3604 8.87963 26.4454 8.96118 26.5327Z" fill="white"/>
<path d="M47.4521 34.5685C47.851 34.093 47.795 33.7814 47.2999 33.4684C46.776 33.1617 46.1975 32.9582 45.596 32.8688C43.6687 32.5032 41.6866 32.5313 39.7705 32.9516C39.7557 32.9536 39.7412 32.9579 39.7277 32.9644C39.2287 33.2635 38.7781 33.0083 38.32 32.8431C38.2863 32.8275 38.2542 32.8087 38.2241 32.787C38.2577 32.7592 38.2943 32.7352 38.3332 32.7153C38.8244 32.5337 39.3323 32.4006 39.8498 32.3178C41.4184 32.0525 43.0154 31.9937 44.5996 32.1427C45.6174 32.2031 46.6205 32.414 47.5757 32.7683C47.8435 32.8657 48.09 33.0131 48.3021 33.2024C48.5952 33.4795 48.6002 33.7892 48.3157 34.0761C48.0652 34.2978 47.7712 34.4655 47.4521 34.5685Z" fill="white"/>
<path d="M17.1134 32.0933C18.5254 32.0872 19.9287 32.1796 21.2914 32.5872C21.4602 32.6206 21.6214 32.6846 21.767 32.7759C21.6384 32.8928 21.4605 32.9023 21.3144 32.98C21.1745 33.0478 21.0219 33.0859 20.8664 33.0918C20.7108 33.0978 20.5557 33.0715 20.411 33.0146C19.4196 32.7457 18.3955 32.6141 17.3678 32.6235C16.0812 32.6083 14.806 32.6979 13.5687 33.082C13.1746 33.1793 12.8091 33.3672 12.5014 33.6306C12.2109 33.907 12.1993 34.1399 12.4531 34.4468C12.4748 34.473 12.4918 34.5028 12.5109 34.5309C12.4701 34.5545 12.4404 34.5233 12.4072 34.5102C12.1378 34.4166 11.891 34.2682 11.6826 34.0745C11.6164 34.0215 11.5632 33.9541 11.5274 33.8775C11.4915 33.8009 11.4738 33.7172 11.4757 33.6327C11.4776 33.5482 11.499 33.4654 11.5383 33.3904C11.5776 33.3155 11.6337 33.2505 11.7023 33.2006C12.0608 32.9045 12.483 32.6942 12.9364 32.5859C13.9671 32.293 15.0305 32.1284 16.1021 32.0958C16.439 32.0796 16.7762 32.0933 17.1134 32.0933Z" fill="white"/>
<path d="M47.516 26.0104C47.2074 25.7857 46.858 25.6221 46.4871 25.5287C45.3541 25.2136 44.1828 25.0555 43.0063 25.0588C41.5146 25.0636 40.3501 25.1517 39.2112 25.4467C38.7268 25.5724 38.242 25.7159 37.8539 26.0552C37.5244 26.3434 37.5371 26.6631 37.8804 26.9376C38.0432 27.0694 38.2252 27.1759 38.4202 27.2533C38.4518 27.2655 38.501 27.2779 38.4869 27.3256C38.4811 27.3463 38.4449 27.3618 38.4194 27.3728C38.3714 27.3939 38.3214 27.4103 38.2722 27.4282C36.6649 28.0196 35.0559 28.607 33.4526 29.2082C33.3821 29.2458 33.3006 29.2575 33.2223 29.2413C33.144 29.2251 33.0739 29.1819 33.0245 29.1194C32.0805 28.1725 31.1252 27.2367 30.1823 26.2885C30.0354 26.1407 29.958 26.1439 29.8119 26.2911C28.8597 27.2504 27.8941 28.1977 26.9399 29.1544C26.8983 29.2053 26.8399 29.24 26.775 29.2524C26.7102 29.2648 26.643 29.254 26.5853 29.222C26.2385 29.0823 25.8849 28.957 25.5347 28.8283C24.2501 28.3558 22.966 27.8823 21.6824 27.408C21.6224 27.3858 21.522 27.3914 21.5146 27.3232C21.5066 27.2468 21.6077 27.248 21.6647 27.2203C21.8409 27.1377 22.0059 27.0333 22.1559 26.9097C22.225 26.8634 22.2818 26.8011 22.3214 26.7281C22.361 26.6552 22.3822 26.5738 22.3832 26.491C22.3842 26.4081 22.3649 26.3263 22.3271 26.2524C22.2892 26.1786 22.2339 26.115 22.1659 26.067C21.9241 25.867 21.6453 25.7158 21.3452 25.6219C20.4866 25.3299 19.5909 25.1589 18.6844 25.1141C17.0321 24.9952 15.3881 25.0439 13.7732 25.4555C13.2862 25.5511 12.8279 25.7567 12.4337 26.0564C12.1222 26.3188 12.1199 26.6464 12.4262 26.9097C12.7108 27.1416 13.0424 27.3097 13.3985 27.4025C15.244 27.941 17.0895 28.4791 18.9351 29.0167C21.017 29.6273 23.1003 30.233 25.185 30.8341C25.3608 30.8849 25.3769 30.9444 25.2937 31.0916C25.0844 31.4527 24.9276 31.8415 24.828 32.2462C24.8172 32.2961 24.7925 32.3419 24.7566 32.3784C24.7207 32.4148 24.6751 32.4404 24.6252 32.4521C22.9955 33.0484 21.3668 33.6474 19.7389 34.2491C19.6488 34.2841 19.5492 34.2868 19.4572 34.2569C18.0293 33.8578 16.5229 33.8237 15.0781 34.1576C14.8282 34.2097 14.589 34.3037 14.3709 34.4356C14.0248 34.6456 14.0228 34.9076 14.3619 35.1221C14.5198 35.2231 14.6927 35.2988 14.8743 35.3464C16.2994 35.7339 17.8021 35.7421 19.2314 35.3702C20.9585 34.9091 22.6668 34.3804 24.382 33.8744C24.5655 33.8203 24.6355 33.8226 24.6557 34.049C24.8128 35.8121 25.6178 37.219 27.1395 38.149C28.8905 39.2185 30.7337 39.2831 32.5487 38.3263C34.2731 37.4173 35.1816 35.9331 35.3501 34.0064C35.3654 33.8292 35.4228 33.8201 35.5722 33.864C37.1298 34.3221 38.6939 34.7584 40.2463 35.2336C41.7008 35.6727 43.2424 35.7458 44.7323 35.4463C45.0518 35.3973 45.3588 35.288 45.6367 35.1241C45.9779 34.9076 45.9783 34.6509 45.6322 34.4387C45.5248 34.3705 45.409 34.3163 45.2877 34.2776C43.7861 33.8317 42.1891 33.8113 40.6764 34.2184C40.5001 34.2744 40.3101 34.27 40.1366 34.206C39.3751 33.9153 38.6072 33.6409 37.8419 33.36C37.0271 33.0608 36.2126 32.7612 35.3986 32.4611C35.3019 32.4253 35.2093 32.3948 35.1801 32.2684C35.0779 31.8493 34.9157 31.4469 34.6984 31.0736C34.628 30.9487 34.6435 30.8851 34.7984 30.8417C35.5395 30.6318 36.2771 30.4096 37.0164 30.1941C38.6114 29.7294 40.2064 29.2656 41.8016 28.8028C43.2603 28.3816 44.7184 27.9586 46.176 27.5338C46.6502 27.3957 47.1293 27.266 47.5244 26.9492C47.9036 26.6436 47.8991 26.3143 47.516 26.0104ZM31.1532 37.3787C30.6252 37.5381 30.0694 37.5856 29.5217 37.5181C28.974 37.4507 28.4467 37.2697 27.9739 36.987C27.5011 36.7043 27.0934 36.3262 26.777 35.877C26.4607 35.4279 26.2428 34.9178 26.1376 34.3798C26.0913 34.138 26.0707 33.8922 26.0762 33.6462C26.0721 33.139 26.1698 32.6361 26.3636 32.1669C26.5573 31.6977 26.8433 31.2715 27.2047 30.9132C28.0899 30.0238 28.9871 29.1463 29.8748 28.2595C29.971 28.1631 30.0249 28.1579 30.125 28.2568C31.0235 29.1541 31.9395 30.0344 32.8266 30.9422C34.863 33.0259 33.9492 36.5177 31.1532 37.3787Z" fill="white"/>
<path d="M31.7106 36.2846C31.1118 36.7981 29.7149 37.041 28.6024 36.4897C28.0161 36.2047 27.5333 35.746 27.2207 35.1769C26.908 34.6078 26.7809 33.9564 26.8569 33.3125C27.6642 35.6274 29.2802 36.6276 31.7106 36.2846Z" fill="white"/>
</g>
<defs>
<linearGradient id="paint0_linear_444_1119" x1="60" y1="60" x2="-11.3946" y2="39.2998" gradientUnits="userSpaceOnUse">
<stop stop-color="#246BFD"/>
<stop offset="1" stop-color="#6F9EFF"/>
</linearGradient>
<clipPath id="clip0_444_1119">
<rect width="46" height="17" fill="white" transform="translate(7 22)"/>
</clipPath>
</defs>
</svg>
