<svg width="380" height="163" viewBox="0 0 380 163" fill="none" xmlns="http://www.w3.org/2000/svg">
<g opacity="0.25">
<g opacity="0.5">
<path d="M-34.0322 142.529C-18.0799 124.961 0.847236 111.014 19.7103 96.7644C21.5957 95.2609 19.8904 91.6859 17.5434 92.5C-6.74371 100.5 -25.4915 116.772 -41.3286 136.363C-44.843 140.576 -37.7292 146.623 -34.0322 142.529Z" fill="white"/>
<path d="M-16.0012 171.772C-3.87159 162.892 8.6556 154.4 21 145.79C27.1723 141.485 32.7963 136.824 38.9685 132.519C44.9901 128.245 51.0211 124.758 55.6033 118.901C60.8973 111.947 53.1297 104.306 46.0377 105.027C38.6443 105.812 32.1066 109.879 25.6234 113.463C18.4189 117.358 11.6985 121.307 5.01962 126.192C-7.53006 135.319 -18.4576 146.148 -28.5581 157.904C-36.5775 166.854 -25.8255 178.901 -16.0012 171.772Z" fill="white"/>
<path d="M-29.9184 230.015C-18.4937 217.82 -5.86695 207.575 7.24392 197.384C13.2014 192.809 19.3736 188.504 25.5459 184.199C31.8688 179.862 41.4012 173.582 44.7908 166.561C47.8565 160.239 44.9396 153.929 37.7644 152.777C29.9545 151.603 19.6175 156.321 12.833 159.969C4.66972 164.54 -3.02236 170.586 -10.1117 176.504C-23.7838 187.759 -35.3305 202.343 -45.6397 216.82C-52.1747 226.085 -38.0019 238.664 -29.9184 230.015Z" fill="white"/>
<path d="M96.937 143.66C108.499 140.256 132.969 132.375 122.31 115.583C113.959 102.238 93.2569 109.319 81.7689 113.809C68.9567 118.739 56.2597 125.691 47.8714 136.611C40.9709 145.638 51.0466 156.726 60.6362 155.159C72.9704 153.166 84.9233 147.159 96.937 143.66Z" fill="white"/>
<path d="M-31.7231 103.765C-21.3472 94.7861 -9.65056 87.5736 0.32785 78.2064C2.68779 75.972 0.726181 71.1914 -2.67562 72.2299C-16.8215 76.8131 -27.6399 86.6739 -37.4806 97.4294C-41.027 101.491 -35.9684 107.503 -31.7231 103.765Z" fill="white"/>
<path d="M43.6856 95.4459C55.1 89.8685 69.5377 84.4357 78.612 75.2607C81.3278 72.4781 79.1513 67.4282 75.0827 68.2935C62.3926 70.8346 50.0257 80.0797 39.137 86.6479C33.526 89.8887 37.8598 98.4174 43.6856 95.4459Z" fill="white"/>
</g>
<g opacity="0.5">
<path d="M414.114 88.8765C398.161 106.444 379.234 120.392 360.371 134.641C358.486 136.145 360.191 139.72 362.538 138.906C386.825 130.906 405.573 114.634 421.41 95.0427C424.924 90.8302 417.811 84.7827 414.114 88.8765Z" fill="white"/>
<path d="M396.083 59.6342C383.953 68.5138 371.426 77.0055 359.081 85.6158C352.909 89.921 347.285 94.5821 341.113 98.8872C335.091 103.16 329.06 106.648 324.478 112.505C319.184 119.459 326.952 127.1 334.044 126.379C341.437 125.594 347.975 121.526 354.458 117.943C361.663 114.048 368.383 110.099 375.062 105.213C387.611 96.0868 398.539 85.2577 408.64 73.5019C416.659 64.5513 405.907 52.5048 396.083 59.6342Z" fill="white"/>
<path d="M410 1.39066C398.575 13.5855 385.948 23.8309 372.838 34.0218C366.88 38.5963 360.708 42.9014 354.536 47.2066C348.213 51.5438 338.68 57.8236 335.291 64.8446C332.225 71.1667 335.142 77.4767 342.317 78.6285C350.127 79.8027 360.464 75.0844 367.248 71.4366C375.412 66.8655 383.104 60.8195 390.193 54.9018C403.865 43.6466 415.412 29.0632 425.721 14.5855C432.256 5.32051 418.083 -7.25858 410 1.39066Z" fill="white"/>
<path d="M431.463 -45.0706C421.861 -42.0835 412.175 -40.9688 402.646 -36.8948C393.72 -32.9491 384.88 -29.3368 379.692 -21.1457C377.127 -18.3951 374.981 -15.8913 373.577 -12.1275C371.739 -6.69652 375.002 -1.72032 379.863 0.396223C383.325 1.86499 386.618 1.79481 389.997 1.39119C400.529 2.77414 409.609 -3.4095 418.42 -9.37835C427.77 -15.7768 432.712 -24.3878 439.493 -33.2328C443.601 -38.3589 437.966 -47.0833 431.463 -45.0706Z" fill="white"/>
<path d="M339.226 18.1735C331.323 21.7443 323.602 25.4338 316.128 29.5432C309.764 32.9443 305.085 38.3493 301.718 44.7355C299.592 48.8103 301.65 54.0428 306.61 54.4057C308.998 54.5277 312.884 53.5438 313.82 53.5022C319.438 53.2527 321.707 53.5576 327.049 50.5316C334.642 46.2394 341.686 41.5913 349 36.7284C359.879 29.3747 351.846 12.3397 339.226 18.1735Z" fill="white"/>
<path d="M283.144 87.7462C271.583 91.1498 247.113 99.031 257.771 115.823C266.122 129.167 286.825 122.087 298.313 117.597C311.125 112.667 323.822 105.714 332.21 94.7951C339.111 85.7674 329.035 74.6796 319.445 76.2464C307.111 78.2393 295.158 84.2463 283.144 87.7462Z" fill="white"/>
<path d="M411.805 127.64C401.429 136.62 389.732 143.832 379.754 153.199C377.394 155.434 379.355 160.214 382.757 159.176C396.903 154.593 407.721 144.732 417.562 133.976C421.108 129.915 416.05 123.903 411.805 127.64Z" fill="white"/>
<path d="M336.396 135.96C324.981 141.537 310.544 146.97 301.469 156.145C298.754 158.928 300.93 163.978 304.999 163.112C317.689 160.571 330.056 151.326 340.944 144.758C346.555 141.517 342.222 132.988 336.396 135.96Z" fill="white"/>
<path d="M331.894 -13.3436C325.174 -9.39441 318.335 -5.26244 312.935 0.453488C310.1 3.41884 311.35 9.29584 316.095 9.38932C326.22 9.59878 335.297 5.62091 343.666 0.533692C350.505 -3.59827 359.918 -9.69526 358.964 -18.6276C358.56 -22.0069 354.7 -23.8636 351.655 -23.3734C344.627 -22.3514 337.893 -16.9819 331.894 -13.3436Z" fill="white"/>
<path d="M273.636 23.774C266.111 26.1618 261.984 29.717 256.735 35.4009C253.545 38.9145 255.182 44.3939 260.023 44.9394C267.619 45.8444 273.268 45.7455 280.363 42.8191C287.308 39.9247 292.134 36.6935 297.479 31.4617C301.003 28.0347 299.022 21.6831 293.911 21.3524C286.714 20.8354 280.859 21.4504 273.636 23.774Z" fill="white"/>
</g>
</g>
</svg>
