<svg width="60" height="60" viewBox="0 0 60 60" fill="none" xmlns="http://www.w3.org/2000/svg">
<rect width="60" height="60" rx="30" fill="#FF981F" fill-opacity="0.12"/>
<path d="M22.125 26.5C21.2597 26.5 20.4138 26.2434 19.6944 25.7627C18.9749 25.2819 18.4142 24.5987 18.083 23.7992C17.7519 22.9998 17.6653 22.1201 17.8341 21.2715C18.0029 20.4228 18.4196 19.6433 19.0314 19.0314C19.6433 18.4196 20.4228 18.0029 21.2715 17.8341C22.1201 17.6653 22.9998 17.7519 23.7992 18.083C24.5987 18.4142 25.2819 18.9749 25.7627 19.6944C26.2434 20.4138 26.5 21.2597 26.5 22.125H24.75C24.75 21.6058 24.596 21.0983 24.3076 20.6666C24.0192 20.235 23.6092 19.8985 23.1295 19.6998C22.6499 19.5011 22.1221 19.4492 21.6129 19.5504C21.1037 19.6517 20.636 19.9017 20.2688 20.2688C19.9017 20.636 19.6517 21.1037 19.5504 21.6129C19.4492 22.1221 19.5011 22.6499 19.6998 23.1295C19.8985 23.6092 20.235 24.0192 20.6666 24.3076C21.0983 24.596 21.6058 24.75 22.125 24.75V26.5ZM37.875 26.5V24.75C38.3942 24.75 38.9017 24.596 39.3334 24.3076C39.7651 24.0192 40.1015 23.6092 40.3002 23.1295C40.4989 22.6499 40.5508 22.1221 40.4496 21.6129C40.3483 21.1037 40.0983 20.636 39.7312 20.2688C39.364 19.9017 38.8963 19.6517 38.3871 19.5504C37.8779 19.4492 37.3501 19.5011 36.8705 19.6998C36.3908 19.8985 35.9808 20.235 35.6924 20.6666C35.404 21.0983 35.25 21.6058 35.25 22.125H33.5C33.5 21.2597 33.7566 20.4138 34.2373 19.6944C34.7181 18.9749 35.4013 18.4142 36.2008 18.083C37.0002 17.7519 37.8799 17.6653 38.7285 17.8341C39.5772 18.0029 40.3567 18.4196 40.9686 19.0314C41.5804 19.6433 41.9971 20.4228 42.1659 21.2715C42.3347 22.1201 42.2481 22.9998 41.917 23.7992C41.5858 24.5987 41.0251 25.2819 40.3056 25.7627C39.5862 26.2434 38.7403 26.5 37.875 26.5ZM22.125 42.25C20.9647 42.25 19.8519 41.7891 19.0314 40.9686C18.2109 40.1481 17.75 39.0353 17.75 37.875C17.75 36.7147 18.2109 35.6019 19.0314 34.7814C19.8519 33.9609 20.9647 33.5 22.125 33.5V35.25C21.6058 35.25 21.0983 35.404 20.6666 35.6924C20.235 35.9808 19.8985 36.3908 19.6998 36.8705C19.5011 37.3501 19.4492 37.8779 19.5504 38.3871C19.6517 38.8963 19.9017 39.364 20.2688 39.7312C20.636 40.0983 21.1037 40.3483 21.6129 40.4496C22.1221 40.5508 22.6499 40.4989 23.1295 40.3002C23.6092 40.1015 24.0192 39.7651 24.3076 39.3334C24.596 38.9017 24.75 38.3942 24.75 37.875H26.5C26.4988 39.035 26.0375 40.1471 25.2173 40.9673C24.3971 41.7875 23.285 42.2488 22.125 42.25ZM37.875 42.25C36.715 42.2488 35.6029 41.7875 34.7827 40.9673C33.9625 40.1471 33.5012 39.035 33.5 37.875H35.25C35.25 38.3942 35.404 38.9017 35.6924 39.3334C35.9808 39.7651 36.3908 40.1015 36.8705 40.3002C37.3501 40.4989 37.8779 40.5508 38.3871 40.4496C38.8963 40.3483 39.364 40.0983 39.7312 39.7312C40.0983 39.364 40.3483 38.8963 40.4496 38.3871C40.5508 37.8779 40.4989 37.3501 40.3002 36.8705C40.1015 36.3908 39.7651 35.9808 39.3334 35.6924C38.9017 35.404 38.3942 35.25 37.875 35.25V33.5C39.0353 33.5 40.1481 33.9609 40.9686 34.7814C41.7891 35.6019 42.25 36.7147 42.25 37.875C42.25 39.0353 41.7891 40.1481 40.9686 40.9686C40.1481 41.7891 39.0353 42.25 37.875 42.25Z" fill="#FF981F"/>
<path d="M33.5001 32.2628V27.7373L38.4937 22.7436C38.5773 22.6629 38.6439 22.5664 38.6898 22.4596C38.7356 22.3529 38.7598 22.238 38.7608 22.1219C38.7618 22.0057 38.7396 21.8905 38.6957 21.7829C38.6517 21.6754 38.5867 21.5777 38.5045 21.4955C38.4224 21.4134 38.3247 21.3484 38.2171 21.3044C38.1096 21.2604 37.9944 21.2383 37.8782 21.2393C37.762 21.2403 37.6472 21.2644 37.5405 21.3103C37.4337 21.3562 37.3371 21.4228 37.2564 21.5064L33.3189 25.4439C33.0986 24.7359 32.6576 24.1169 32.0604 23.6773C31.4632 23.2377 30.7411 23.0006 29.9996 23.0006C29.2581 23.0006 28.536 23.2377 27.9388 23.6773C27.3417 24.1169 26.9007 24.7359 26.6803 25.4439L22.7437 21.5064C22.5796 21.3423 22.3571 21.2502 22.1251 21.2502C21.893 21.2502 21.6705 21.3423 21.5064 21.5064C21.3424 21.6705 21.2502 21.893 21.2502 22.125C21.2502 22.357 21.3424 22.5795 21.5064 22.7436L26.5001 27.7373V32.2628L21.5064 37.2564C21.3424 37.4205 21.2502 37.643 21.2502 37.875C21.2502 38.107 21.3424 38.3296 21.5064 38.4936C21.6705 38.6577 21.893 38.7498 22.1251 38.7498C22.3571 38.7498 22.5796 38.6577 22.7437 38.4936L26.6812 34.5561C26.9015 35.2641 27.3425 35.8832 27.9397 36.3227C28.5369 36.7623 29.259 36.9994 30.0005 36.9994C30.742 36.9994 31.4641 36.7623 32.0613 36.3227C32.6585 35.8832 33.0994 35.2641 33.3198 34.5561L37.2573 38.4936C37.4223 38.653 37.6434 38.7412 37.8728 38.7392C38.1022 38.7372 38.3217 38.6452 38.4839 38.483C38.6461 38.3207 38.7382 38.1013 38.7401 37.8719C38.7421 37.6424 38.6539 37.4214 38.4946 37.2564L33.5001 32.2628ZM31.7501 33.5C31.7501 33.9641 31.5657 34.4093 31.2375 34.7374C30.9093 35.0656 30.4642 35.25 30.0001 35.25C29.5359 35.25 29.0908 35.0656 28.7626 34.7374C28.4344 34.4093 28.2501 33.9641 28.2501 33.5V26.5C28.2501 26.0359 28.4344 25.5908 28.7626 25.2626C29.0908 24.9344 29.5359 24.75 30.0001 24.75C30.4642 24.75 30.9093 24.9344 31.2375 25.2626C31.5657 25.5908 31.7501 26.0359 31.7501 26.5V33.5Z" fill="#FF981F"/>
</svg>
