<svg width="60" height="61" viewBox="0 0 60 61" fill="none" xmlns="http://www.w3.org/2000/svg">
<rect y="0.5" width="60" height="60" rx="30" fill="#00BCD3" fill-opacity="0.2"/>
<g clip-path="url(#clip0_2966_18153)">
<path d="M16.5776 30.9855C16.3122 31.1387 16.1186 31.3911 16.0394 31.6871C15.9601 31.9831 16.0016 32.2984 16.1548 32.5638L21.29 41.4589C21.3659 41.5903 21.4669 41.7055 21.5873 41.7978C21.7077 41.8902 21.8451 41.958 21.9917 41.9972C22.1383 42.0365 22.2912 42.0465 22.4417 42.0267C22.5921 42.0068 22.7372 41.9576 22.8686 41.8817L43.4223 30.0153C43.5537 29.9394 43.6689 29.8383 43.7613 29.7179C43.8537 29.5975 43.9214 29.4601 43.9607 29.3135C43.9999 29.1669 44.0099 29.014 43.9901 28.8636C43.9703 28.7131 43.921 28.568 43.8451 28.4366L38.7099 19.5416C38.634 19.4102 38.533 19.295 38.4126 19.2026C38.2922 19.1102 38.1548 19.0425 38.0082 19.0032C37.8616 18.9639 37.7087 18.9539 37.5582 18.9738C37.4078 18.9936 37.2627 19.0429 37.1313 19.1188L16.5776 30.9855ZM18.7339 32.409L37.2861 21.6979L41.266 28.5915L39.929 29.3634L38.4375 26.7793L37.4367 27.3572L38.9283 29.9411L37.3981 30.8247L35.9063 28.2406L34.9055 28.8185L36.3974 31.4024L34.8689 32.2849L33.377 29.7008L32.3763 30.2787L33.8681 32.8626L32.3379 33.7463L30.2648 30.1558L29.2641 30.7335L31.3372 34.3239L29.8067 35.2076L28.3149 32.6235L27.3142 33.2014L28.806 35.7852L27.2775 36.6675L25.7859 34.0837L24.7852 34.6616L26.2768 37.2454L24.7466 38.1288L23.2547 35.545L22.254 36.1229L23.7459 38.7067L22.7138 39.3026L18.7339 32.409Z" fill="#00BCD3"/>
</g>
<defs>
<clipPath id="clip0_2966_18153">
<rect width="28" height="28" fill="white" transform="translate(16 16.5)"/>
</clipPath>
</defs>
</svg>
