<svg width="110" height="110" viewBox="0 0 110 110" fill="none" xmlns="http://www.w3.org/2000/svg">
<rect width="110" height="110" rx="55" fill="#00BCD3" fill-opacity="0.2"/>
<g clip-path="url(#clip0_2808_14070)">
<path d="M31.9902 55.8321C31.5353 56.0948 31.2034 56.5275 31.0675 57.0349C30.9315 57.5423 31.0027 58.0829 31.2654 58.5378L40.0686 73.7865C40.1986 74.0118 40.3718 74.2092 40.5783 74.3676C40.7847 74.5259 41.0203 74.6421 41.2716 74.7094C41.5229 74.7767 41.785 74.7938 42.0429 74.7598C42.3008 74.7258 42.5495 74.6414 42.7748 74.5113L78.0097 54.1689C78.235 54.0388 78.4324 53.8656 78.5908 53.6592C78.7491 53.4528 78.8653 53.2172 78.9326 52.9659C78.9999 52.7146 79.017 52.4525 78.983 52.1945C78.9491 51.9366 78.8646 51.6879 78.7345 51.4626L69.9313 36.214C69.8012 35.9887 69.628 35.7912 69.4216 35.6329C69.2152 35.4745 68.9796 35.3584 68.7283 35.2911C68.477 35.2238 68.2149 35.2066 67.9569 35.2406C67.699 35.2746 67.4503 35.3591 67.225 35.4892L31.9902 55.8321ZM35.6866 58.2724L67.4905 39.9105L74.3132 51.7281L72.0212 53.0514L69.4642 48.6215L67.7487 49.6122L70.3057 54.0417L67.6825 55.5565L65.125 51.1266L63.4095 52.1173L65.967 56.5468L63.3466 58.0597L60.7892 53.6298L59.0737 54.6205L61.6311 59.05L59.0079 60.5649L55.454 54.4098L53.7385 55.4001L57.2924 61.5551L54.6687 63.07L52.1113 58.6401L50.3958 59.6308L52.9532 64.0602L50.3329 65.5727L47.7759 61.1433L46.0604 62.134L48.6174 66.5634L45.9942 68.0778L43.4367 63.6484L41.7212 64.6391L44.2786 69.0686L42.5094 70.09L35.6866 58.2724Z" fill="#00BCD3"/>
</g>
<defs>
<clipPath id="clip0_2808_14070">
<rect width="48" height="48" fill="white" transform="translate(31 31)"/>
</clipPath>
</defs>
</svg>
