<svg width="40" height="50" viewBox="0 0 40 50" fill="none" xmlns="http://www.w3.org/2000/svg">
<rect x="3" y="2" width="35" height="35" rx="17.5" fill="#B3F7FF"/>
<g clip-path="url(#clip0_3417_15225)">
<path d="M13.852 19.7402C13.7206 19.8161 13.6247 19.9411 13.5854 20.0877C13.5461 20.2343 13.5667 20.3905 13.6426 20.522L16.186 24.9275C16.2235 24.9926 16.2736 25.0497 16.3332 25.0954C16.3929 25.1412 16.4609 25.1747 16.5335 25.1942C16.6061 25.2136 16.6819 25.2186 16.7564 25.2087C16.8309 25.1989 16.9027 25.1745 16.9678 25.1369L27.1477 19.2597C27.2128 19.2221 27.2699 19.1721 27.3156 19.1124C27.3614 19.0528 27.3949 18.9847 27.4144 18.9121C27.4338 18.8395 27.4388 18.7638 27.4289 18.6893C27.4191 18.6148 27.3947 18.5429 27.3571 18.4778L24.8138 14.0723C24.7762 14.0072 24.7261 13.9501 24.6665 13.9044C24.6069 13.8586 24.5388 13.8251 24.4662 13.8056C24.3936 13.7862 24.3179 13.7812 24.2433 13.791C24.1688 13.8009 24.097 13.8253 24.0319 13.8629L13.852 19.7402ZM14.92 20.4453L24.1086 15.1402L26.0798 18.5545L25.4176 18.9369L24.6788 17.657L24.1832 17.9432L24.9219 19.2229L24.164 19.6606L23.4252 18.3807L22.9295 18.667L23.6684 19.9467L22.9113 20.3838L22.1725 19.104L21.6768 19.3902L22.4157 20.6699L21.6578 21.1076L20.631 19.3293L20.1354 19.6154L21.1622 21.3937L20.4042 21.8314L19.6653 20.5515L19.1696 20.8377L19.9085 22.1175L19.1515 22.5544L18.4127 21.2747L17.9171 21.5609L18.6558 22.8407L17.898 23.2782L17.1591 21.9985L16.6634 22.2847L17.4023 23.5644L16.8911 23.8595L14.92 20.4453Z" fill="#00BCD3"/>
</g>
<circle cx="20" cy="20" r="18.5" stroke="#00BCD3" stroke-width="3"/>
<path d="M20 50L15.3812 41.3043L13 38L27 38L20 50Z" fill="#00BCD3"/>
<defs>
<clipPath id="clip0_3417_15225">
<rect width="13.8679" height="13.8679" fill="white" transform="translate(13.5659 12.5664)"/>
</clipPath>
</defs>
</svg>
