<svg width="380" height="181" viewBox="0 0 380 181" fill="none" xmlns="http://www.w3.org/2000/svg">
<g opacity="0.5">
<path opacity="0.25" d="M430.421 -27.3159C426.685 -24.0534 422.643 -21.0735 418.011 -18.5177C406.933 -12.4166 393.109 -12.4165 382.031 -5.75013C349.951 13.5425 350.116 48.2761 338.025 79.4764C319.015 128.521 285.922 119.499 241.644 123.939C207.408 127.366 168.022 144.445 167.739 184.844C167.562 211.203 197.131 228.658 174.303 248.01C161.481 258.881 138.688 252.132 123.98 257.02C103.65 263.769 92.419 276.23 83.474 291L430.398 290.293L430.421 -27.3159ZM354.324 56.0851C355.868 52.4456 356.81 48.5941 358.354 44.9429C359.768 41.6097 361.324 38.3354 362.668 34.9668C365.343 28.2415 368.16 21.846 372.603 16.0748C378.448 8.47786 387.205 -1.87513 397.811 -0.756208C398.377 -0.697319 398.884 -0.0259819 398.896 0.515814C398.908 4.66171 394.995 7.5356 392.19 10.0326C387.44 14.2491 382.773 18.7013 378.366 23.2712C373.322 28.5124 369.138 34.1188 366.51 40.9384C365.308 44.0478 364.365 47.2986 362.962 50.3255C361.548 53.3761 359.439 55.6022 357.058 57.9578C356.445 58.5585 355.655 58.4407 355.137 58.0049C354.489 57.7104 353.958 56.9449 354.324 56.0851ZM276.128 136.871C278.391 133.668 283.954 132.549 287.383 134.339C288.503 134.916 289.469 135.905 290.082 137.071C291.838 139.168 291.426 142.325 289.175 143.962C286.806 145.693 282.964 146.353 280.159 145.481C276.505 144.339 273.535 140.534 276.128 136.871ZM183.013 190.744C179.43 183.324 181.044 174.514 186.018 168.166C189.306 163.961 193.619 160.145 197.532 156.505C201.021 153.266 204.733 150.251 208.74 147.66C216.495 142.643 225.216 139.156 234.349 137.684C243.895 136.141 253.618 137.154 263.188 137.814C264.143 137.884 264.909 138.249 265.486 138.791C268.869 140.617 268.091 144.986 265.51 147.271C262.269 150.133 257.743 150.216 253.819 151.535C249.328 153.043 245.227 155.728 241.491 158.614C232.982 165.186 226.088 173.737 219.04 181.781C213.796 187.765 208.174 195.573 200.455 198.53C193.337 201.239 186.195 197.34 183.013 190.744ZM158.888 228.423C153.137 234.17 143.803 234.17 138.052 228.423C132.3 222.675 132.3 213.347 138.052 207.599C143.803 201.851 153.137 201.851 158.888 207.599C164.639 213.347 164.639 222.675 158.888 228.423ZM309.716 92.6679C297.059 105.318 276.541 105.318 263.883 92.6679C251.226 80.0182 251.226 59.5125 263.883 46.8628C276.541 34.2131 297.059 34.2131 309.716 46.8628C322.374 59.5125 322.374 80.0182 309.716 92.6679ZM335.974 36.4509C331.366 41.0562 323.906 41.0562 319.31 36.4509C314.702 31.8457 314.702 24.3901 319.31 19.7966C323.918 15.1914 331.378 15.1914 335.974 19.7966C340.57 24.3901 340.57 31.8574 335.974 36.4509Z" fill="white"/>
<path opacity="0.25" d="M123.148 -27.6696C124.735 -26.0822 124.735 -23.5116 123.148 -21.9331C121.562 -20.3457 118.993 -20.3457 117.416 -21.9331C115.829 -23.5206 115.829 -26.0912 117.416 -27.6696C119.002 -29.2571 121.562 -29.2571 123.148 -27.6696ZM114.225 -67.8523C108.772 -62.3954 108.772 -53.5381 114.225 -48.0812C119.678 -42.6243 128.529 -42.6243 133.982 -48.0812C139.436 -53.5381 139.436 -62.3954 133.982 -67.8523C128.529 -73.3092 119.687 -73.3182 114.225 -67.8523ZM214.842 -109C209.569 -100.278 205.495 -91.4567 190.659 -87.4159C170.766 -82.0041 150.675 -91.4838 130.819 -90.3203C66.1292 -86.514 119.372 -21.9331 92.6828 8.94122C71.0866 33.9347 35.6187 19.395 20.5032 52.7678C11.1562 73.3958 10.2819 95.6743 -1.8682 115.698C-12.9908 134.026 -28.0793 151.109 -50 154.158V130.959C-49.6845 130.977 -49.36 130.986 -49.0536 130.986C-41.969 131.013 -35.6776 126.982 -30.5129 122.49C-22.2746 115.328 -15.1721 106.678 -8.95277 97.7309C-5.81609 93.221 -2.9408 88.7653 -1.34542 83.4617C-0.624348 81.0625 2.28699 68.6514 1.03413 65.2059C-0.209728 61.7965 -3.85117 59.6137 -7.42049 60.4525C-14.6943 62.1573 -13.6668 71.673 -15.9833 77.0578C-19.6968 85.6986 -27.4844 92.1837 -36.1914 95.3947C-40.8604 97.1175 -45.6375 98.4163 -49.991 100.545V-109H169.982C161.735 -106.312 153.1 -104.409 144.528 -103.76C142.32 -103.597 142.23 -100.522 143.987 -99.9713C146.169 -98.4109 148.638 -98.3297 151.216 -97.6984C153.019 -97.2564 170.226 -93.9011 176.382 -93.5493C184.007 -93.1073 193.228 -94.2799 199.114 -99.5564C201.241 -101.469 203.17 -103.796 203.062 -106.817C203.034 -107.557 202.89 -108.287 202.683 -109H214.842ZM10.6244 40.9791C8.96596 35.7477 3.47677 33.8986 -1.03897 36.8932C-2.98587 38.183 -4.70743 40.2034 -4.83362 42.6026C-4.95981 42.8191 -5.06798 43.0536 -5.14009 43.3152C-6.75349 48.6729 -1.02094 52.3529 3.73816 51.929C9.22735 51.4329 12.2559 46.1293 10.6244 40.9791Z" fill="white"/>
</g>
</svg>
