<svg width="380" height="349" viewBox="0 0 380 349" fill="none" xmlns="http://www.w3.org/2000/svg">
<g opacity="0.5">
<path opacity="0.1" d="M242.831 51.6392L371.137 128.01V257.138L242.831 180.076V51.6392Z" fill="white"/>
<path opacity="0.2" d="M498.993 51.7163L370.691 128.007V257L498.993 180.018V51.7163Z" fill="white"/>
<path opacity="0.3" d="M242.831 52.062L371.137 -25L499.442 52.062V52.6384L371.137 129.7L242.831 52.6384V52.062Z" fill="white"/>
<path opacity="0.1" d="M-109 124.893L19.3056 201.263V330.392L-109 253.33V124.893Z" fill="white"/>
<path opacity="0.2" d="M147.162 124.97L18.8596 201.26V330.253L147.162 253.272V124.97Z" fill="white"/>
<path opacity="0.3" d="M-109 125.316L19.3056 48.2539L147.611 125.316V125.892L19.3056 202.954L-109 125.892V125.316Z" fill="white"/>
<path opacity="0.1" d="M210 116.955L263.498 148.798V202.639L210 170.507V116.955Z" fill="white"/>
<path opacity="0.2" d="M316.808 116.987L263.312 148.797V202.581L316.808 170.483V116.987Z" fill="white"/>
<path opacity="0.3" d="M210 117.131L263.498 85L316.995 117.131V117.372L263.498 149.503L210 117.372V117.131Z" fill="white"/>
<path opacity="0.1" d="M233.951 289.316L287.449 321.159V375L233.951 342.868V289.316Z" fill="white"/>
<path opacity="0.2" d="M340.759 289.348L287.263 321.158V374.942L340.759 342.844V289.348Z" fill="white"/>
<path opacity="0.3" d="M233.951 289.492L287.449 257.361L340.947 289.492V289.733L287.449 321.864L233.951 289.733V289.492Z" fill="white"/>
</g>
</svg>
