<svg width="48" height="48" viewBox="0 0 48 48" fill="none" xmlns="http://www.w3.org/2000/svg">
<rect width="48" height="48" rx="24" fill="#F54336" fill-opacity="0.2"/>
<path d="M35.2962 13.6125C27.9277 16.3764 20.0723 16.3764 12.7037 13.6125C11.3562 13.1071 10 14.3682 10 16.1248V33.6193C10 35.3775 11.3169 36.6386 12.7033 36.1333C20.0708 33.37 27.8889 33.37 35.2958 36.1332C36.6044 36.6436 38 35.3803 38 33.5756V16.1248C38 14.3682 36.6437 13.1071 35.2962 13.6125ZM15.6 22.2498C14.8256 22.2498 14.2 21.4678 14.2 20.4998C14.2 19.5318 14.8269 18.7498 15.6 18.7498C16.3735 18.7498 17 19.5335 17 20.4998C17 21.4661 16.3744 22.2498 15.6 22.2498ZM30.7506 31.2514C28.5237 30.7975 26.2663 30.5623 24 30.5623C21.7928 30.5623 19.5944 30.7834 17.4244 31.2147C16.8057 31.3375 16.3696 30.4934 16.734 29.8563L18.8856 26.1069C19.0169 25.881 19.2269 25.7498 19.45 25.7498C19.6731 25.7498 19.8838 25.8833 20.0157 26.1093L21.4358 28.5435L25.5177 20.9364C25.6494 20.6475 25.8681 20.4998 26.1 20.4998C26.3319 20.4998 26.5528 20.6459 26.6823 20.8894L31.4554 29.9184C31.7919 30.5568 31.3544 31.3717 30.7506 31.2514Z" fill="#F54336"/>
</svg>
