<svg width="354" height="132" viewBox="0 0 354 132" fill="none" xmlns="http://www.w3.org/2000/svg">
<g clip-path="url(#clip0_1155_18516)">
<path d="M338.683 35.5679C339.772 34.4286 340.781 33.2156 341.704 31.9373C343.639 28.7954 343.013 25.4104 340.096 22.5489C336.246 18.7691 331.446 16.656 326.455 14.961C312.338 10.169 297.716 8.52283 282.914 7.94281C271.093 7.43337 259.25 7.95448 247.52 9.50026C236.416 11.0037 225.439 13.0923 215.34 18.3292C213.441 19.3037 211.682 20.5292 210.108 21.9727C206.548 25.2612 205.103 29.4963 209.66 34.1147C210.064 34.4471 210.418 34.8371 210.71 35.2721C205.393 33.3186 200.169 31.1695 196.828 26.2888C195.975 25.1012 195.533 23.6671 195.568 22.2046C195.604 20.7421 196.115 19.3312 197.024 18.1865C199.251 15.2888 202.179 13.0079 205.53 11.5593C213.442 7.602 221.939 5.52368 230.562 3.88006C247.884 0.747355 265.493 -0.501388 283.082 0.155559C296.463 0.405191 309.791 1.897 322.897 4.61185C331.072 6.37764 339.137 8.56528 346.445 12.8428C348.957 14.1633 351.118 16.0664 352.747 18.3935C353.61 19.64 354.047 21.1325 353.993 22.6482C353.939 24.1639 353.397 25.6215 352.448 26.8033C348.986 31.2634 344.054 33.4227 338.683 35.5679Z" fill="white"/>
<path d="M15.0925 35.195C10.5652 33.9205 6.40051 31.5965 2.9351 28.4109C-0.98561 24.5398 -0.98561 20.1709 2.97874 16.3062C6.82887 12.5534 11.6505 10.4674 16.6056 8.69905C29.2405 4.18746 42.3938 2.25962 55.6793 1.05584C68.844 -0.123445 82.0782 -0.315177 95.2714 0.482246C109.677 1.33878 123.96 3.12773 137.828 7.34737C143.186 8.76927 148.269 11.0764 152.869 14.1739C155.653 16.1892 158.226 18.4437 158.362 22.3071C158.424 23.8226 157.966 25.3137 157.065 26.5319C153.892 30.8583 149.205 32.9932 144.468 35.0201C144.293 35.096 144.038 34.9918 143.827 34.9712C143.91 34.7656 144.014 34.5687 144.136 34.3835C144.457 33.9758 144.806 33.59 145.146 33.199C146.454 31.9013 147.196 30.137 147.209 28.2925C147.221 26.448 146.504 24.6736 145.214 23.3579C142.465 20.0629 138.778 18.1415 134.947 16.5146C127.234 13.4243 119.175 11.2828 110.948 10.1369C99.6054 8.34769 88.1285 7.5563 76.6484 7.77178C61.3877 8.00328 46.2516 9.36653 31.521 13.6723C25.9768 15.2941 20.5636 17.2657 15.8831 20.8127C14.7666 21.6344 13.7656 22.6029 12.9069 23.6922C11.7619 25.0212 11.1579 26.7333 11.2153 28.4882C11.2726 30.243 11.9869 31.9119 13.2162 33.163C13.822 33.8575 14.465 34.5172 15.0925 35.195Z" fill="white"/>
<path d="M311.307 97.5894C314.377 93.8971 313.946 91.4779 310.136 89.0472C306.104 86.6662 301.652 85.0855 297.023 84.3916C282.191 81.5525 266.937 81.7713 252.192 85.0347C252.078 85.0501 251.967 85.0835 251.863 85.1337C248.023 87.4564 244.555 85.4745 241.03 84.1923C240.77 84.0708 240.523 83.9248 240.292 83.7563C240.55 83.5406 240.832 83.3538 241.131 83.1994C244.911 81.7898 248.82 80.756 252.802 80.1128C264.874 78.0535 277.164 77.5964 289.355 78.7534C297.188 79.2227 304.907 80.8599 312.258 83.611C314.319 84.3677 316.216 85.5118 317.849 86.9818C320.104 89.1334 320.142 91.5384 317.953 93.7659C316.025 95.4876 313.763 96.7896 311.307 97.5894Z" fill="white"/>
<path d="M77.829 78.3728C88.6954 78.3252 99.495 79.0428 109.981 82.2079C111.281 82.4673 112.521 82.9638 113.642 83.6727C112.652 84.5807 111.283 84.654 110.159 85.2572C109.082 85.7836 107.908 86.0795 106.711 86.1257C105.514 86.172 104.32 85.9678 103.206 85.526C95.5768 83.4384 87.696 82.4166 79.7874 82.4895C69.8862 82.3712 60.0722 83.067 50.5508 86.0494C47.518 86.8053 44.7046 88.2643 42.3372 90.3089C40.1016 92.4554 40.0118 94.2637 41.9651 96.6468C42.1319 96.85 42.2628 97.0815 42.4104 97.3001C42.096 97.4827 41.8675 97.2409 41.6121 97.1393C39.5388 96.4124 37.6396 95.2599 36.0359 93.7556C35.5259 93.3444 35.1172 92.8212 34.8411 92.2264C34.565 91.6317 34.4291 90.9813 34.4437 90.3256C34.4583 89.6698 34.6232 89.0262 34.9255 88.4444C35.2278 87.8626 35.6595 87.3583 36.1873 86.9703C38.9461 84.671 42.1954 83.038 45.6843 82.1976C53.6166 79.9234 61.7999 78.6451 70.0466 78.3921C72.639 78.266 75.234 78.3728 77.829 78.3728Z" fill="white"/>
<path d="M311.799 31.1374C309.423 29.3927 306.735 28.123 303.88 27.3974C295.162 24.9507 286.148 23.7229 277.094 23.7488C265.614 23.7861 256.652 24.4703 247.888 26.7608C244.16 27.737 240.429 28.8507 237.443 31.4859C234.907 33.7237 235.004 36.2058 237.647 38.3369C238.899 39.3609 240.3 40.1875 241.801 40.7882C242.043 40.8833 242.422 40.9798 242.314 41.3502C242.269 41.5109 241.991 41.6305 241.794 41.7167C241.425 41.88 241.04 42.0074 240.661 42.1463C228.292 46.7389 215.91 51.2993 203.572 55.9678C203.029 56.2598 202.402 56.3508 201.799 56.2247C201.197 56.0986 200.658 55.7635 200.277 55.2785C193.012 47.9259 185.661 40.6595 178.405 33.2967C177.274 32.1495 176.679 32.174 175.554 33.3173C168.226 40.7663 160.796 48.1214 153.452 55.5499C153.132 55.9454 152.682 56.2149 152.183 56.3109C151.684 56.4069 151.167 56.3232 150.724 56.0746C148.054 54.9904 145.333 54.0168 142.638 53.0175C132.752 49.3488 122.87 45.6727 112.992 41.9894C112.53 41.817 111.758 41.8608 111.701 41.3309C111.64 40.738 112.417 40.747 112.856 40.5322C114.212 39.8907 115.482 39.0805 116.636 38.1208C117.168 37.761 117.605 37.2771 117.91 36.7108C118.215 36.1445 118.378 35.5126 118.385 34.8692C118.393 34.2259 118.245 33.5903 117.953 33.0169C117.662 32.4436 117.236 31.9496 116.713 31.5772C114.852 30.024 112.707 28.8501 110.397 28.1215C103.79 25.8537 96.897 24.5264 89.9211 24.1784C77.2054 23.2549 64.5539 23.6331 52.1256 26.829C48.3779 27.5712 44.8509 29.1677 41.8176 31.4949C39.4202 33.5321 39.4023 36.0759 41.7598 38.1208C43.9498 39.9212 46.502 41.2264 49.2419 41.9469C63.4446 46.1284 77.6473 50.3065 91.85 54.4811C107.872 59.2216 123.904 63.9253 139.947 68.5921C141.3 68.9869 141.424 69.4486 140.784 70.5919C139.173 73.3959 137.966 76.4143 137.199 79.5572C137.117 79.9443 136.926 80.3 136.65 80.583C136.374 80.8659 136.023 81.0646 135.639 81.1558C123.098 85.7857 110.563 90.4367 98.0359 95.1086C97.3422 95.3802 96.5759 95.4016 95.8682 95.169C84.8791 92.0708 73.2868 91.8058 62.1681 94.3987C60.2447 94.803 58.4041 95.5328 56.7253 96.5567C54.0623 98.1875 54.0469 100.222 56.656 101.888C57.8714 102.671 59.2022 103.259 60.5998 103.629C71.5669 106.638 83.131 106.702 94.1305 103.814C107.421 100.234 120.568 96.1284 133.768 92.1995C135.179 91.7789 135.718 91.7969 135.874 93.555C137.083 107.245 143.277 118.169 154.988 125.391C168.464 133.695 182.648 134.197 196.616 126.767C209.886 119.709 216.878 108.184 218.174 93.2245C218.292 91.8483 218.734 91.7776 219.883 92.1184C231.87 95.6757 243.907 99.0633 255.854 102.753C267.047 106.163 278.91 106.73 290.377 104.404C292.835 104.024 295.198 103.175 297.336 101.903C299.962 100.222 299.965 98.2286 297.302 96.5811C296.475 96.0513 295.584 95.6307 294.65 95.3298C283.095 91.8681 270.804 91.7091 259.164 94.8706C257.807 95.3049 256.344 95.2709 255.009 94.7742C249.15 92.5171 243.24 90.3861 237.35 88.2049C231.08 85.8822 224.812 83.5557 218.547 81.2253C217.803 80.9475 217.091 80.7108 216.866 79.7296C216.08 76.4751 214.831 73.3507 213.159 70.4517C212.617 69.482 212.736 68.9882 213.929 68.6512C219.632 67.0217 225.308 65.2958 230.997 63.6226C243.272 60.0147 255.547 56.4137 267.823 52.8195C279.048 49.5494 290.269 46.2652 301.487 42.9668C305.136 41.8942 308.823 40.8872 311.863 38.4269C314.781 36.0541 314.747 33.4973 311.799 31.1374ZM185.877 119.409C181.813 120.647 177.536 121.016 173.321 120.492C169.106 119.968 165.048 118.563 161.41 116.368C157.771 114.173 154.633 111.237 152.199 107.749C149.764 104.262 148.088 100.301 147.278 96.1233C146.922 94.2464 146.763 92.3372 146.805 90.4272C146.774 86.4894 147.526 82.5847 149.017 78.9412C150.508 75.2978 152.709 71.9885 155.49 69.2068C162.302 62.3005 169.207 55.4868 176.038 48.6011C176.779 47.8526 177.193 47.8128 177.963 48.5806C184.878 55.5473 191.928 62.3828 198.754 69.4319C214.425 85.6108 207.394 112.724 185.877 119.409Z" fill="white"/>
<path d="M190.163 110.917C185.554 114.904 174.805 116.791 166.243 112.509C161.731 110.297 158.016 106.735 155.61 102.316C153.204 97.8976 152.226 92.8394 152.81 87.8397C159.023 105.814 171.459 113.581 190.163 110.917Z" fill="white"/>
</g>
<defs>
<clipPath id="clip0_1155_18516">
<rect width="354" height="132" fill="white"/>
</clipPath>
</defs>
</svg>
