<svg width="320" height="119" viewBox="0 0 320 119" fill="none" xmlns="http://www.w3.org/2000/svg">
<g clip-path="url(#clip0_1155_18516)">
<path d="M306.154 32.0651C307.138 31.038 308.051 29.9444 308.885 28.792C310.634 25.9595 310.068 22.9079 307.431 20.3282C303.951 16.9207 299.612 15.0157 295.1 13.4876C282.339 9.16758 269.122 7.68351 255.741 7.16061C245.056 6.70134 234.351 7.17113 223.747 8.56467C213.709 9.92004 203.787 11.8029 194.658 16.5241C192.941 17.4027 191.351 18.5074 189.928 19.8088C186.71 22.7734 185.404 26.5914 189.523 30.7549C189.889 31.0546 190.208 31.4062 190.472 31.7984C185.666 30.0372 180.944 28.0998 177.923 23.6998C177.153 22.6292 176.753 21.3363 176.785 20.0178C176.817 18.6994 177.279 17.4274 178.101 16.3954C180.114 13.7831 182.76 11.7269 185.79 10.4209C192.942 6.85336 200.623 4.97973 208.418 3.49798C224.076 0.673798 239.993 -0.451963 255.893 0.140285C267.989 0.365332 280.037 1.71022 291.885 4.1577C299.275 5.74959 306.565 7.72177 313.17 11.578C315.441 12.7685 317.395 14.4842 318.868 16.5821C319.647 17.7058 320.042 19.0513 319.993 20.4177C319.945 21.7842 319.455 23.0982 318.597 24.1636C315.467 28.1845 311.009 30.1312 306.154 32.0651Z" fill="white"/>
<path d="M13.643 31.7288C9.55043 30.5798 5.78577 28.4847 2.6532 25.6128C-0.890947 22.123 -0.890947 18.1844 2.69264 14.7003C6.17299 11.3171 10.5315 9.43653 15.0107 7.84232C26.4321 3.77506 38.3221 2.03708 50.3316 0.951856C62.2318 -0.111287 74.195 -0.284137 86.1211 0.434752C99.1433 1.20693 112.054 2.81969 124.59 6.62377C129.433 7.90563 134.029 9.98556 138.187 12.778C140.703 14.5948 143.029 16.6273 143.152 20.1102C143.208 21.4764 142.794 22.8207 141.979 23.9189C139.112 27.8192 134.875 29.7439 130.593 31.5711C130.434 31.6395 130.204 31.5456 130.013 31.5271C130.088 31.3417 130.182 31.1642 130.292 30.9972C130.582 30.6297 130.898 30.2819 131.205 29.9294C132.388 28.7595 133.058 27.169 133.07 25.5061C133.081 23.8433 132.433 22.2436 131.267 21.0575C128.782 18.087 125.449 16.3548 121.986 14.8882C115.014 12.1022 107.729 10.1716 100.292 9.13856C90.0388 7.52557 79.6642 6.81212 69.2867 7.00638C55.4917 7.21508 41.8094 8.44407 28.4936 12.3258C23.4819 13.7879 18.5885 15.5653 14.3576 18.763C13.3483 19.5037 12.4435 20.3769 11.6673 21.3589C10.6322 22.557 10.0863 24.1005 10.1381 25.6825C10.1899 27.2645 10.8356 28.7691 11.9469 29.8969C12.4944 30.523 13.0757 31.1178 13.643 31.7288Z" fill="white"/>
<path d="M281.408 87.9785C284.183 84.6498 283.793 82.4689 280.349 80.2776C276.704 78.131 272.68 76.706 268.496 76.0804C255.088 73.5209 241.299 73.7182 227.971 76.6602C227.867 76.6741 227.766 76.7042 227.672 76.7494C224.201 78.8434 221.067 77.0567 217.88 75.9007C217.645 75.7913 217.422 75.6596 217.213 75.5077C217.447 75.3132 217.701 75.1449 217.971 75.0057C221.388 73.7349 224.922 72.8029 228.522 72.223C239.434 70.3665 250.544 69.9545 261.564 70.9975C268.645 71.4206 275.622 72.8965 282.267 75.3767C284.13 76.0589 285.845 77.0903 287.321 78.4155C289.359 80.3552 289.394 82.5234 287.415 84.5315C285.673 86.0836 283.627 87.2574 281.408 87.9785Z" fill="white"/>
<path d="M70.354 70.6543C80.1767 70.6114 89.939 71.2583 99.4183 74.1117C100.593 74.3455 101.714 74.7931 102.727 75.4323C101.833 76.2508 100.595 76.3169 99.5784 76.8607C98.6053 77.3353 97.5438 77.6019 96.4618 77.6437C95.3797 77.6854 94.3009 77.5013 93.2941 77.103C86.3972 75.221 79.2733 74.2998 72.1243 74.3656C63.174 74.2589 54.3026 74.8862 45.6957 77.5749C42.9541 78.2563 40.411 79.5716 38.271 81.4149C36.2501 83.35 36.1689 84.9801 37.9346 87.1285C38.0854 87.3117 38.2037 87.5204 38.3371 87.7175C38.0529 87.8822 37.8464 87.6642 37.6156 87.5726C35.7413 86.9172 34.0245 85.8783 32.5749 84.5222C32.1139 84.1514 31.7444 83.6797 31.4948 83.1436C31.2453 82.6074 31.1224 82.0211 31.1356 81.4299C31.1488 80.8387 31.2979 80.2585 31.5711 79.734C31.8444 79.2095 32.2347 78.7548 32.7117 78.405C35.2056 76.3322 38.1428 74.8601 41.2966 74.1024C48.467 72.0521 55.8644 70.8997 63.319 70.6716C65.6625 70.558 68.0082 70.6543 70.354 70.6543Z" fill="white"/>
<path d="M281.852 28.0708C279.705 26.498 277.274 25.3533 274.694 24.6992C266.813 22.4934 258.665 21.3865 250.48 21.4099C240.103 21.4435 232.002 22.0603 224.079 24.1253C220.709 25.0053 217.337 26.0093 214.637 28.385C212.345 30.4024 212.433 32.6401 214.822 34.5613C215.954 35.4844 217.22 36.2296 218.577 36.7711C218.796 36.8569 219.139 36.9439 219.041 37.2778C219 37.4227 218.749 37.5305 218.571 37.6082C218.237 37.7555 217.889 37.8703 217.547 37.9955C206.366 42.1358 195.173 46.2471 184.02 50.4558C183.529 50.7191 182.962 50.801 182.417 50.6874C181.873 50.5737 181.385 50.2716 181.042 49.8344C174.474 43.2059 167.829 36.6552 161.27 30.0175C160.248 28.9833 159.709 29.0053 158.693 30.036C152.069 36.7514 145.352 43.3822 138.714 50.079C138.424 50.4356 138.018 50.6786 137.567 50.7651C137.116 50.8517 136.648 50.7762 136.247 50.5521C133.834 49.5747 131.375 48.697 128.939 47.7961C120.002 44.4886 111.069 41.1746 102.14 37.854C101.722 37.6987 101.024 37.7381 100.973 37.2604C100.917 36.7259 101.62 36.734 102.017 36.5404C103.243 35.962 104.39 35.2316 105.433 34.3665C105.915 34.0421 106.31 33.6059 106.585 33.0953C106.861 32.5848 107.008 32.0151 107.015 31.4351C107.022 30.8551 106.888 30.2821 106.624 29.7652C106.361 29.2484 105.976 28.803 105.503 28.4673C103.821 27.0671 101.882 26.0088 99.7941 25.3519C93.821 23.3075 87.5904 22.1109 81.2845 21.7971C69.7901 20.9647 58.3537 21.3055 47.1192 24.1867C43.7314 24.8558 40.5431 26.2951 37.8011 28.3931C35.634 30.2296 35.6178 32.523 37.7489 34.3665C39.7286 35.9896 42.0357 37.1662 44.5124 37.8158C57.351 41.5854 70.1896 45.352 83.0282 49.1155C97.511 53.3892 112.004 57.6296 126.506 61.8368C127.729 62.1927 127.841 62.6089 127.262 63.6397C125.806 66.1675 124.715 68.8886 124.022 71.722C123.947 72.071 123.775 72.3917 123.525 72.6468C123.276 72.9019 122.959 73.0809 122.611 73.1632C111.275 77.3371 99.9442 81.53 88.6199 85.7418C87.9929 85.9867 87.3001 86.006 86.6605 85.7963C76.7267 83.0032 66.2479 82.7643 56.1971 85.1018C54.4584 85.4663 52.7946 86.1243 51.277 87.0473C48.8698 88.5175 48.8558 90.3517 51.2144 91.8531C52.3131 92.5599 53.5161 93.0896 54.7794 93.423C64.6932 96.1355 75.1466 96.1931 85.0897 93.59C97.1038 90.3621 108.988 86.6612 120.92 83.1192C122.196 82.7401 122.683 82.7563 122.824 84.3412C123.916 96.6833 129.516 106.531 140.102 113.042C152.283 120.528 165.105 120.98 177.732 114.282C189.727 107.919 196.048 97.5297 197.219 84.0432C197.326 82.8027 197.725 82.7389 198.765 83.0461C209.6 86.2531 220.481 89.307 231.28 92.6334C241.398 95.7073 252.122 96.2189 262.487 94.1221C264.709 93.7795 266.845 93.014 268.779 91.8671C271.152 90.3517 271.155 88.5546 268.747 87.0693C268 86.5917 267.195 86.2125 266.35 85.9412C255.905 82.8205 244.795 82.6771 234.272 85.5273C233.046 85.9188 231.724 85.8882 230.517 85.4404C225.22 83.4056 219.878 81.4844 214.554 79.518C208.885 77.4241 203.22 75.3267 197.557 73.2258C196.884 72.9754 196.24 72.762 196.037 71.8774C195.326 68.9435 194.197 66.1267 192.686 63.5133C192.196 62.6391 192.304 62.1939 193.382 61.8901C198.537 60.4211 203.668 58.8651 208.811 57.3567C219.907 54.1042 231.003 50.8578 242.099 47.6176C252.247 44.6695 262.39 41.7087 272.53 38.7352C275.829 37.7682 279.162 36.8604 281.91 34.6424C284.548 32.5033 284.517 30.1983 281.852 28.0708ZM168.024 107.649C164.351 108.765 160.484 109.098 156.674 108.625C152.864 108.153 149.196 106.886 145.907 104.908C142.618 102.929 139.781 100.282 137.581 97.1376C135.38 93.9937 133.865 90.423 133.132 86.6566C132.811 84.9645 132.667 83.2434 132.705 81.5215C132.677 77.9715 133.357 74.4513 134.704 71.1667C136.052 67.8821 138.042 64.8987 140.556 62.391C146.714 56.1648 152.955 50.0222 159.13 43.8146C159.8 43.1399 160.175 43.1039 160.871 43.7961C167.121 50.0767 173.494 56.239 179.664 62.5939C193.831 77.1794 187.474 101.622 168.024 107.649Z" fill="white"/>
<path d="M171.899 99.9935C167.733 103.588 158.016 105.289 150.276 101.429C146.198 99.434 142.839 96.2233 140.664 92.2397C138.489 88.256 137.605 83.696 138.134 79.1887C143.75 95.3929 154.991 102.395 171.899 99.9935Z" fill="white"/>
</g>
<defs>
<clipPath id="clip0_1155_18516">
<rect width="320" height="119" fill="white"/>
</clipPath>
</defs>
</svg>
