<svg width="110" height="110" viewBox="0 0 110 110" fill="none" xmlns="http://www.w3.org/2000/svg">
<rect width="110" height="110" rx="55" fill="#4AAF57" fill-opacity="0.2"/>
<g clip-path="url(#clip0_2032_5200)">
<path d="M55 78.9996V53.3996M55 54.9996V64.5996M55 54.9996C55 51.6048 53.6514 48.3491 51.2509 45.9486C48.8505 43.5482 45.5947 42.1996 42.2 42.1996H32.6V51.7996C32.6 55.1944 33.9485 58.4501 36.349 60.8506C38.7495 63.251 42.0052 64.5996 45.4 64.5996H55M55 78.9996L67.8 66.1996M55 88.5996L42.2 75.7996M55 54.9996H64.6C67.9947 54.9996 71.2505 53.651 73.6509 51.2506C76.0514 48.8501 77.4 45.5944 77.4 42.1996V32.5996H67.8C64.4052 32.5996 61.1495 33.9482 58.749 36.3486C56.3485 38.7491 55 42.0048 55 45.3996V54.9996Z" stroke="#4AAF57" stroke-width="3.2"/>
</g>
<defs>
<clipPath id="clip0_2032_5200">
<rect width="48" height="48" fill="white" transform="translate(31 31)"/>
</clipPath>
</defs>
</svg>
