<svg width="32" height="32" viewBox="0 0 32 32" fill="none" xmlns="http://www.w3.org/2000/svg">
<path fill-rule="evenodd" clip-rule="evenodd" d="M16 4.66699C9.75063 4.66699 4.66663 9.75099 4.66663 16.0003C4.66663 22.2497 9.75063 27.3337 16 27.3337C22.2493 27.3337 27.3333 22.2497 27.3333 16.0003C27.3333 9.75099 22.2493 4.66699 16 4.66699M16 29.3337C8.64796 29.3337 2.66663 23.3523 2.66663 16.0003C2.66663 8.64833 8.64796 2.66699 16 2.66699C23.352 2.66699 29.3333 8.64833 29.3333 16.0003C29.3333 23.3523 23.352 29.3337 16 29.3337" fill="#F5F5F5"/>
<path fill-rule="evenodd" clip-rule="evenodd" d="M21.2642 17.3522C20.5269 17.3522 19.9242 16.7562 19.9242 16.0189C19.9242 15.2815 20.5149 14.6855 21.2509 14.6855H21.2642C22.0015 14.6855 22.5975 15.2815 22.5975 16.0189C22.5975 16.7562 22.0015 17.3522 21.2642 17.3522" fill="#F5F5F5"/>
<path fill-rule="evenodd" clip-rule="evenodd" d="M15.918 17.3522C15.1807 17.3522 14.5793 16.7562 14.5793 16.0189C14.5793 15.2815 15.1687 14.6855 15.906 14.6855H15.918C16.6553 14.6855 17.2513 15.2815 17.2513 16.0189C17.2513 16.7562 16.6553 17.3522 15.918 17.3522" fill="#F5F5F5"/>
<path fill-rule="evenodd" clip-rule="evenodd" d="M10.5729 17.3522C9.83558 17.3522 9.23291 16.7562 9.23291 16.0189C9.23291 15.2815 9.82358 14.6855 10.5609 14.6855H10.5729C11.3102 14.6855 11.9062 15.2815 11.9062 16.0189C11.9062 16.7562 11.3102 17.3522 10.5729 17.3522" fill="#F5F5F5"/>
</svg>
