<svg width="63" height="73" viewBox="0 0 63 73" fill="none" xmlns="http://www.w3.org/2000/svg">
<path opacity="0.4" d="M56.1819 25.7011C54.5452 25.7011 52.3773 25.6649 49.6781 25.6649C43.0953 25.6649 37.6826 20.2165 37.6826 13.5719V1.91387C37.6826 0.99675 36.9504 0.25 36.0423 0.25H16.8681C7.91998 0.25 0.6875 7.59425 0.6875 16.5951V55.6545C0.6875 65.0976 8.26455 72.75 17.6147 72.75H46.1677C55.0836 72.75 62.3125 65.4529 62.3125 56.4447V27.3324C62.3125 26.4116 61.5839 25.6685 60.6722 25.6721C59.1395 25.683 57.3018 25.7011 56.1819 25.7011Z" fill="#246BFD"/>
<path opacity="0.4" d="M46.3045 2.30598C45.2206 1.17861 43.3284 1.95436 43.3284 3.51673V13.0759C43.3284 17.0851 46.6307 20.3839 50.64 20.3839C53.1666 20.4129 56.6756 20.4201 59.6554 20.4129C61.1815 20.4092 61.9572 18.5859 60.8987 17.4839C57.0744 13.5072 50.2267 6.38048 46.3045 2.30598Z" fill="#246BFD"/>
<path fill-rule="evenodd" clip-rule="evenodd" d="M20.5304 34.2804H32.801C34.2909 34.2804 35.5016 33.0733 35.5016 31.5834C35.5016 30.0936 34.2909 28.8828 32.801 28.8828H20.5304C19.0405 28.8828 17.8334 30.0936 17.8334 31.5834C17.8334 33.0733 19.0405 34.2804 20.5304 34.2804ZM20.5307 52.3844H40.2652C41.7551 52.3844 42.9659 51.1773 42.9659 49.6874C42.9659 48.1975 41.7551 46.9868 40.2652 46.9868H20.5307C19.0409 46.9868 17.8337 48.1975 17.8337 49.6874C17.8337 51.1773 19.0409 52.3844 20.5307 52.3844Z" fill="#246BFD"/>
</svg>
