<svg width="380" height="181" viewBox="0 0 380 181" fill="none" xmlns="http://www.w3.org/2000/svg">
<g opacity="0.5">
<g opacity="0.25">
<path d="M151.45 190.57C151.215 190.335 150.981 190.088 150.746 189.853C150.707 189.554 150.746 189.215 150.629 188.955C149.092 185.555 149.04 182.337 152.192 179.862C154.758 177.843 157.65 177.83 160.242 179.836C163.421 182.298 163.369 185.516 161.871 188.916C161.753 189.189 161.779 189.515 161.74 189.814C161.493 190.075 161.245 190.322 160.998 190.583C157.806 191.872 154.628 191.833 151.45 190.57Z" fill="white"/>
<path d="M182.96 185.073C182.947 188.525 179.782 191.56 176.343 191.404C173.06 191.248 170.233 188.291 170.246 185.021C170.259 181.569 173.438 178.534 176.864 178.69C180.146 178.847 182.973 181.817 182.96 185.073Z" fill="white"/>
<path d="M135.883 178.729C139.309 178.742 142.331 181.907 142.175 185.307C142.019 188.564 139.075 191.391 135.831 191.364C132.406 191.351 129.383 188.186 129.54 184.786C129.696 181.53 132.653 178.716 135.883 178.729Z" fill="white"/>
<path d="M151.932 174.717C151.554 178.547 149.639 180.696 145.966 180.631C142.305 180.566 140.221 178.417 140.26 174.769C140.312 171.109 142.461 169.038 146.122 169.064C149.847 169.09 151.593 171.382 151.932 174.717Z" fill="white"/>
<path d="M172.318 174.926C171.979 178.508 170.09 180.566 166.456 180.696C162.991 180.813 160.308 178.026 160.581 174.561C160.881 170.953 163.004 168.96 166.599 169.051C170.247 169.142 172.057 171.37 172.318 174.926Z" fill="white"/>
<path d="M156.152 159.32C159.292 159.685 161.415 161.365 161.48 164.583C161.532 167.787 159.526 169.859 156.335 169.924C153.13 169.989 151.059 167.97 150.981 164.778C150.903 161.561 152.987 159.815 156.152 159.32Z" fill="white"/>
<path d="M130.999 174.783C130.647 177.896 128.98 180.019 125.788 180.084C122.597 180.15 120.526 178.144 120.46 174.978C120.382 171.8 122.388 169.729 125.567 169.637C128.758 169.559 130.504 171.617 130.999 174.783Z" fill="white"/>
<path d="M186.712 169.468C189.864 169.846 192.013 171.526 192.078 174.743C192.144 177.961 190.111 180.058 186.907 180.123C183.689 180.201 181.605 178.156 181.514 174.965C181.436 171.734 183.533 169.989 186.712 169.468Z" fill="white"/>
<path d="M197.054 190.44C193.902 190.062 191.766 188.368 191.701 185.151C191.648 181.933 193.681 179.849 196.872 179.771C200.089 179.706 202.174 181.738 202.252 184.942C202.33 188.173 200.233 189.931 197.054 190.44Z" fill="white"/>
<path d="M120.825 184.891C120.461 188.082 118.793 190.206 115.602 190.271C112.41 190.336 110.339 188.33 110.274 185.165C110.196 181.973 112.215 179.915 115.38 179.837C118.585 179.746 120.304 181.83 120.825 184.891Z" fill="white"/>
<path d="M176.604 159.802C179.691 160.037 181.488 161.652 181.41 164.791C181.345 167.944 179.482 169.585 176.382 169.494C173.49 169.403 171.836 167.696 171.797 164.804C171.745 161.652 173.516 160.037 176.604 159.802Z" fill="white"/>
<path d="M140.703 164.87C140.351 167.944 138.645 169.624 135.545 169.455C132.405 169.273 130.868 167.319 131.077 164.257C131.272 161.379 133.057 159.829 135.935 159.881C139.088 159.946 140.56 161.809 140.703 164.87Z" fill="white"/>
<path d="M166.286 150.176C168.657 150.332 170.39 151.557 170.624 154.032C170.885 156.754 169.308 158.552 166.638 158.695C163.942 158.838 162.222 157.171 162.183 154.461C162.157 151.999 163.746 150.58 166.286 150.176Z" fill="white"/>
<path d="M150.355 154.41C150.16 156.807 148.883 158.513 146.421 158.708C143.712 158.917 141.927 157.315 141.823 154.631C141.732 151.935 143.425 150.241 146.135 150.254C148.61 150.267 149.991 151.883 150.355 154.41Z" fill="white"/>
<path d="M196.612 160.779C199.347 160.91 200.832 162.147 200.806 164.739C200.78 167.071 199.464 168.439 197.133 168.491C194.579 168.556 193.16 167.162 193.147 164.596C193.147 162.225 194.579 161.092 196.612 160.779Z" fill="white"/>
<path d="M206.824 170.939C209.546 171.07 211.044 172.32 211.018 174.925C210.992 177.27 209.677 178.651 207.319 178.703C204.753 178.768 203.307 177.361 203.307 174.782C203.307 172.398 204.74 171.239 206.824 170.939Z" fill="white"/>
<path d="M119.314 164.765C119.08 167.071 117.881 168.465 115.524 168.452C112.931 168.439 111.577 166.914 111.733 164.374C111.876 162.043 113.361 160.805 115.693 160.909C118.038 161.001 119.171 162.446 119.314 164.765Z" fill="white"/>
<path d="M190.424 154.357C190.229 156.467 189.121 157.926 187.024 158.03C184.68 158.148 183.208 156.728 183.234 154.383C183.26 152.273 184.653 150.944 186.764 150.931C188.913 150.905 190.059 152.299 190.424 154.357Z" fill="white"/>
<path d="M129.279 154.501C128.967 156.559 127.859 157.992 125.762 158.005C123.457 158.018 122.011 156.546 122.154 154.24C122.271 152.195 123.691 150.866 125.801 150.958C127.899 151.036 128.993 152.443 129.279 154.501Z" fill="white"/>
<path d="M105.441 178.716C102.888 178.443 101.494 177.231 101.52 174.873C101.546 172.281 103.084 170.939 105.624 171.096C107.955 171.252 109.167 172.737 109.076 175.069C108.971 177.466 107.434 178.495 105.441 178.716Z" fill="white"/>
<path d="M138.593 144.314C138.385 145.877 137.538 146.945 135.949 146.958C134.125 146.971 133.057 145.838 133.2 144.027C133.317 142.477 134.399 141.513 136.001 141.605C137.59 141.709 138.411 142.751 138.593 144.314Z" fill="white"/>
<path d="M159.292 144.301C159.031 146.503 157.807 147.493 155.84 147.297C154.055 147.115 153.104 145.916 153.222 144.132C153.352 142.061 154.654 141.11 156.634 141.292C158.432 141.461 159.24 142.699 159.292 144.301Z" fill="white"/>
<path d="M179.404 144.197C179.078 146.151 178.062 147.193 176.277 146.998C174.753 146.828 173.789 145.786 173.894 144.197C174.011 142.399 175.157 141.422 176.929 141.592C178.505 141.735 179.208 142.894 179.404 144.197Z" fill="white"/>
</g>
<g opacity="0.25">
<path d="M-14.2216 135.639C-17.2046 137.632 -20.2528 138.023 -23.2097 135.73C-26.1537 133.451 -26.4272 130.351 -25.2939 126.534C-29.1497 127.368 -32.6277 127.342 -34.9203 123.903C-36.8742 120.959 -36.4053 118.067 -34.4774 115.292C-34.243 115.058 -33.9954 114.823 -33.7609 114.589C-32.3801 113.599 -30.778 112.635 -29.1758 112.961C-26.2449 113.547 -26.7789 112.192 -26.6226 110.121C-26.4012 107.268 -26.7138 106.096 -29.9052 106.552C-31.0646 106.721 -32.4062 105.679 -33.6697 105.197C-34.0084 104.858 -34.3471 104.52 -34.6858 104.181C-36.3792 101.341 -36.9003 98.4364 -34.8421 95.5707C-32.5625 92.3793 -29.332 92.1057 -25.3721 93.1739C-26.3751 89.266 -26.2318 85.8401 -22.7929 83.5736C-19.862 81.6327 -16.9702 82.1277 -14.2087 84.0425C-13.9742 84.277 -13.7397 84.5245 -13.5052 84.759C-12.9451 86.1397 -11.7207 87.6377 -11.9291 88.9013C-12.5023 92.2881 -10.887 91.6759 -8.54224 91.8713C-5.71556 92.1057 -5.48112 91.3372 -5.55928 88.9273C-5.59836 87.5596 -4.53016 86.1658 -3.957 84.785C-3.7095 84.5245 -3.46208 84.277 -3.21458 84.0165C-0.257637 81.9323 2.79051 81.5806 5.76048 83.8471C8.71742 86.1006 9.06918 89.1879 7.92287 92.9785C11.6874 92.3272 15.2045 92.1709 17.4971 95.6358C19.451 98.5798 19.0081 101.459 17.1454 104.272C16.8588 104.559 16.5722 104.832 16.2857 105.119C14.8788 105.666 13.4068 106.799 12.0912 106.643C9.22543 106.317 9.25153 107.333 9.2906 109.769C9.32968 112.127 9.18635 113.26 12.0912 112.935C13.4199 112.791 14.8788 113.925 16.2857 114.472C16.5722 114.758 16.8718 115.045 17.1584 115.344C19.1384 118.301 19.5292 121.35 17.2496 124.293C14.9961 127.211 11.9479 127.68 8.13125 126.43C8.91283 130.364 8.78258 133.959 5.13525 136.225C2.34764 137.958 -0.426929 137.489 -3.08427 135.783C-3.449 135.418 -3.80073 135.066 -4.16547 134.701C-5.57229 132.617 -5.93702 130.299 -5.54624 127.876C-9.54528 127.42 -12.867 127.537 -12.4631 132.839C-12.411 133.477 -13.1144 134.167 -13.4791 134.832C-13.7006 135.105 -13.9611 135.379 -14.2216 135.639ZM4.93982 123.434C2.64722 122.04 7.46692 117.663 2.34763 117.65C-0.270638 117.637 -0.869869 118.536 -0.856842 120.946C-0.817764 126.013 3.49392 121.219 4.93982 123.434ZM-22.2197 123.499C-20.8129 121.571 -15.6936 126.13 -16.5794 119.891C-17.2828 114.928 -20.4482 118.835 -22.1807 117.559C-21.4773 119.617 -22.2328 121.35 -22.2197 123.499ZM5.10917 96.2611C-0.948006 96.8863 -0.804695 96.9124 -0.974033 98.3192C-1.57324 103.204 2.11319 101.537 4.99198 102.305C4.13225 100.039 4.79654 98.1889 5.10917 96.2611ZM-22.2718 96.0006C-21.9331 98.202 -21.7248 100.104 -22.0634 102.227C-20.3961 100.729 -17.0484 104.429 -16.4752 99.5046C-15.7848 93.4214 -20.9171 98.2541 -22.2718 96.0006ZM-11.0303 109.431C-10.9261 110.733 -11.903 112.57 -9.25867 112.062C-7.91697 111.801 -6.1845 112.752 -6.41897 109.965C-6.57528 108.076 -6.66645 107.333 -8.84182 107.477C-10.4701 107.568 -11.6425 107.411 -11.0303 109.431Z" fill="white"/>
<path d="M17.1844 115.345C16.8979 115.058 16.5983 114.772 16.3117 114.472C14.97 111.359 14.9961 108.233 16.3117 105.119C16.5983 104.833 16.8848 104.559 17.1714 104.273C18.1874 103.96 19.1775 103.569 20.2196 103.361C23.1635 102.801 25.7035 103.517 27.3969 106.135C28.947 108.532 28.9471 111.046 27.41 113.443C25.7296 116.074 23.1895 116.791 20.2456 116.231C19.1904 116.048 18.2005 115.658 17.1844 115.345Z" fill="white"/>
<path d="M28.2309 130.064C28.309 133.516 25.1958 136.629 21.7438 136.564C18.4743 136.499 15.5434 133.581 15.4783 130.312C15.4001 126.847 18.5003 123.747 21.9653 123.825C25.2348 123.877 28.1527 126.782 28.2309 130.064Z" fill="white"/>
<path d="M21.4964 95.7924C18.0445 95.571 15.1787 92.2493 15.5174 88.8625C15.856 85.5799 18.9693 82.8835 22.1998 83.0919C25.6517 83.3133 28.5306 86.635 28.1789 90.0218C27.8402 93.3044 24.7269 95.9878 21.4964 95.7924Z" fill="white"/>
<path d="M18.0181 79.2749C18.005 82.7268 14.8396 85.7619 11.4007 85.6056C8.11813 85.4493 5.29146 82.4923 5.30449 79.2228C5.31751 75.7708 8.49593 72.7357 11.9218 72.892C15.2044 73.0483 18.0311 76.0183 18.0181 79.2749Z" fill="white"/>
<path d="M18.0182 140.29C18.0703 143.729 14.944 146.816 11.5051 146.725C8.2355 146.634 5.34368 143.716 5.3046 140.446C5.2525 136.994 8.36575 133.92 11.8177 134.011C15.1003 134.102 17.9791 137.02 18.0182 140.29Z" fill="white"/>
<path d="M32.0347 125.922C28.4525 125.609 26.3553 123.733 26.1729 120.099C26.0036 116.634 28.8172 113.873 32.2822 114.133C35.9035 114.407 37.9487 116.517 37.8835 120.125C37.8184 123.76 35.6039 125.622 32.0347 125.922Z" fill="white"/>
<path d="M7.4018 150.489C7.14127 154.046 5.31757 156.286 1.67024 156.39C-1.93801 156.495 -4.0873 154.475 -4.39993 150.867C-4.69953 147.402 -1.97702 144.563 1.50098 144.68C5.14831 144.823 7.03706 146.894 7.4018 150.489Z" fill="white"/>
<path d="M31.9433 105.549C28.3481 105.171 26.2899 103.257 26.1727 99.6222C26.0685 96.1572 28.9343 93.4478 32.3992 93.7604C36.0205 94.0991 38.0135 96.2614 37.8962 99.8567C37.753 103.491 35.4865 105.302 31.9433 105.549Z" fill="white"/>
<path d="M7.37584 69.1278C7.03716 72.71 5.14837 74.7681 1.51406 74.8984C-1.9509 75.0156 -4.63423 72.2281 -4.36068 68.7631C-4.06108 65.1548 -1.93782 63.1618 1.65741 63.253C5.30474 63.3442 7.11532 65.5717 7.37584 69.1278Z" fill="white"/>
<path d="M42.5983 104.442C45.4511 104.898 47.392 106.617 47.5613 109.822C47.7176 112.713 44.7216 115.54 41.8819 115.149C38.7556 114.719 36.9189 112.779 36.8798 109.574C36.8538 106.839 39.6284 104.364 42.5983 104.442Z" fill="white"/>
<path d="M27.2407 150.659C26.7196 153.837 24.9611 155.934 21.7306 155.843C18.5392 155.752 16.4941 153.668 16.5722 150.45C16.6504 147.259 18.7476 145.227 21.9651 145.292C25.1956 145.357 26.8759 147.506 27.2407 150.659Z" fill="white"/>
<path d="M21.7697 63.6699C24.922 64.0477 27.0713 65.728 27.1365 68.9455C27.2016 72.163 25.1695 74.2602 21.965 74.3253C18.7476 74.4035 16.6634 72.3584 16.5722 69.167C16.494 65.9365 18.5913 64.191 21.7697 63.6699Z" fill="white"/>
<path d="M32.1125 84.6416C28.9602 84.2639 26.8238 82.5705 26.7587 79.353C26.7066 76.1356 28.7387 74.0514 31.9301 73.9732C35.1476 73.9081 37.2318 75.9402 37.3099 79.1446C37.3881 82.3751 35.2909 84.1336 32.1125 84.6416Z" fill="white"/>
<path d="M37.453 140.485C36.945 143.611 35.2256 145.552 32.0211 145.709C29.1163 145.852 26.3156 142.856 26.7064 140.003C27.1493 136.877 29.1032 134.897 32.2946 135.066C35.447 135.223 37.1144 137.359 37.453 140.485Z" fill="white"/>
<path d="M42.3772 84.5381C45.5035 84.8637 47.21 86.5832 47.0537 89.7095C46.8973 92.8748 44.9174 94.451 41.8301 94.2686C38.9253 94.0993 37.3361 92.2887 37.3752 89.3969C37.4273 86.2185 39.29 84.6944 42.3772 84.5381Z" fill="white"/>
<path d="M42.3638 135.131C39.1073 134.832 37.3226 133.216 37.3617 130.116C37.4138 127.016 39.2114 125.283 42.2986 125.322C45.3988 125.362 47.1053 127.172 47.0923 130.259C47.0793 133.399 45.1644 134.858 42.3638 135.131Z" fill="white"/>
<path d="M11.6617 54.0044C14.7489 54.2389 16.5465 55.8541 16.4683 58.9934C16.4032 62.1458 14.5404 63.7871 11.4402 63.6959C8.54835 63.6047 6.89408 61.8983 6.855 59.0065C6.8029 55.8541 8.57446 54.2389 11.6617 54.0044Z" fill="white"/>
<path d="M16.5854 160.741C16.2206 164.05 14.4751 165.743 11.3618 165.574C8.19647 165.391 6.63337 163.411 6.84179 160.324C7.03718 157.419 8.84783 155.856 11.7396 155.895C14.9441 155.947 16.3639 157.901 16.5854 160.741Z" fill="white"/>
<path d="M52.3816 124.424C49.594 123.877 47.8745 122.353 48.122 119.67C48.3564 117.064 50.1541 115.436 52.8635 115.71C55.2864 115.957 56.8235 117.637 56.7453 120.099C56.6411 122.796 54.8044 124.098 52.3816 124.424Z" fill="white"/>
<path d="M1.34436 44.3779C3.71513 44.5342 5.44763 45.7587 5.6821 48.2337C5.94263 50.9561 4.36646 52.7538 1.69609 52.8971C-1.00033 53.0404 -2.71976 51.373 -2.75884 48.6636C-2.78489 46.2016 -1.19575 44.7817 1.34436 44.3779Z" fill="white"/>
<path d="M56.8099 99.4789C56.5494 102.071 55.1817 103.882 52.4983 103.934C49.8279 103.986 48.1345 102.266 48.0954 99.5961C48.0694 97.1341 49.6846 95.4798 52.0945 95.3235C54.7909 95.1281 56.3019 96.8085 56.8099 99.4789Z" fill="white"/>
<path d="M1.48825 175.291C-1.13002 174.952 -2.86255 173.507 -2.79742 170.849C-2.73229 168.205 -0.986789 166.564 1.67055 166.668C4.09342 166.759 5.69565 168.374 5.74776 170.81C5.81289 173.467 4.13256 174.913 1.48825 175.291Z" fill="white"/>
<path d="M42.1816 154.462C39.6676 154.254 38.2608 152.899 38.378 150.32C38.4822 147.962 39.889 146.673 42.2337 146.699C44.8259 146.725 46.1807 148.223 46.0764 150.789C45.9853 153.147 44.5394 154.306 42.1816 154.462Z" fill="white"/>
<path d="M31.6696 54.981C34.4051 55.1112 35.8901 56.3487 35.864 58.9409C35.838 61.2726 34.5224 62.6404 32.1907 62.6925C29.6376 62.7576 28.2177 61.3638 28.2047 58.7977C28.2047 56.4269 29.6376 55.2936 31.6696 54.981Z" fill="white"/>
<path d="M32.0865 156.846C34.4442 157.055 35.851 158.253 35.8901 160.624C35.9292 163.203 34.5224 164.636 31.9432 164.61C29.5985 164.584 28.2307 163.242 28.1786 160.884C28.1265 158.279 29.5854 156.989 32.0865 156.846Z" fill="white"/>
<path d="M41.882 65.1416C44.6044 65.2719 46.1024 66.5224 46.0763 69.1276C46.0503 71.4723 44.7346 72.8531 42.3769 72.9052C39.8107 72.9703 38.3649 71.5635 38.3649 68.9843C38.3649 66.6005 39.7978 65.4412 41.882 65.1416Z" fill="white"/>
<path d="M25.4822 48.5591C25.2868 50.6693 24.1796 52.1282 22.0824 52.2325C19.7377 52.3497 18.2657 50.9299 18.2917 48.5851C18.3178 46.4749 19.7116 45.1462 21.8218 45.1332C23.9712 45.1071 25.1175 46.5009 25.4822 48.5591Z" fill="white"/>
<path d="M52.3809 144.054C50.1404 143.728 48.6815 142.517 48.7987 140.146C48.9029 138.049 50.2706 136.72 52.3939 136.746C54.7386 136.786 56.1194 138.218 56.0152 140.563C55.924 142.699 54.5172 143.807 52.3809 144.054Z" fill="white"/>
<path d="M52.1855 82.9095C50.0101 82.4536 48.5903 81.1771 48.8508 78.8454C49.0723 76.8133 50.4921 75.4976 52.5893 75.667C54.8819 75.8363 56.2236 77.3343 55.9761 79.653C55.7677 81.6981 54.3218 82.7793 52.1855 82.9095Z" fill="white"/>
<path d="M21.6133 167.228C24.0622 167.58 25.5342 168.765 25.43 171.11C25.3388 173.181 23.9841 174.523 21.8999 174.51C19.5943 174.497 18.2005 173.064 18.2656 170.745C18.3177 168.635 19.8287 167.632 21.6133 167.228Z" fill="white"/>
<path d="M65.8113 109.73C65.6029 111.801 64.5347 112.987 62.5678 112.974C60.6008 112.948 59.4285 111.749 59.4415 109.782C59.4676 107.815 60.666 106.643 62.6329 106.656C64.6129 106.669 65.6159 107.919 65.8113 109.73Z" fill="white"/>
<path d="M14.4622 180.762C14.3971 182.625 13.5765 183.706 12.0004 183.849C10.2027 184.019 9.00429 183.068 8.93915 181.218C8.87402 179.381 9.96824 178.352 11.8049 178.378C13.4462 178.404 14.1757 179.512 14.4622 180.762Z" fill="white"/>
<path d="M14.4617 38.399C14.1361 40.353 13.1201 41.395 11.3355 41.1997C9.81141 41.0303 8.84745 39.9882 8.95165 38.399C9.06889 36.6014 10.2152 35.6245 11.9868 35.7938C13.5629 35.9371 14.2663 37.0964 14.4617 38.399Z" fill="white"/>
<path d="M65.4206 89.1491C65.2903 91.1551 64.3916 92.2102 62.5549 92.2102C60.9657 92.2102 59.9626 91.3114 59.8324 89.7483C59.6891 87.9767 60.5749 86.8044 62.3986 86.6741C64.2613 86.5308 65.147 87.638 65.4206 89.1491Z" fill="white"/>
<path d="M65.4074 130.116C65.2902 131.888 64.3913 132.943 62.5676 132.956C60.9784 132.956 59.9755 132.057 59.8452 130.494C59.7019 128.723 60.5876 127.537 62.4113 127.42C64.222 127.303 65.199 128.306 65.4074 130.116Z" fill="white"/>
</g>
<g opacity="0.25">
<path d="M330.264 56.9082C325.293 60.2291 320.214 60.8803 315.287 57.0602C310.382 53.2617 309.926 48.0958 311.814 41.7361C305.389 43.1253 299.594 43.0819 295.774 37.3517C292.518 32.4462 293.299 27.6275 296.512 23.0043C296.902 22.6136 297.315 22.2229 297.706 21.8322C300.006 20.1826 302.676 18.5764 305.346 19.119C310.23 20.0958 309.34 17.8384 309.6 14.3872C309.969 9.63374 309.448 7.68027 304.13 8.43996C302.199 8.72213 299.963 6.98561 297.858 6.1825C297.293 5.61816 296.729 5.05389 296.164 4.48954C293.343 -0.24225 292.475 -5.08261 295.904 -9.85781C299.702 -15.1757 305.085 -15.6315 311.684 -13.8516C310.013 -20.3633 310.251 -26.0718 315.982 -29.8485C320.865 -33.0827 325.684 -32.2579 330.285 -29.0672C330.676 -28.6765 331.067 -28.264 331.458 -27.8733C332.391 -25.5726 334.431 -23.0764 334.084 -20.971C333.129 -15.3276 335.82 -16.3477 339.727 -16.0222C344.437 -15.6315 344.828 -16.9121 344.698 -20.9276C344.633 -23.2067 346.413 -25.5292 347.368 -27.83C347.78 -28.2641 348.192 -28.6765 348.605 -29.1106C353.532 -32.5834 358.611 -33.1695 363.56 -29.3928C368.487 -25.6377 369.073 -20.4935 367.163 -14.1772C373.436 -15.2625 379.296 -15.5229 383.117 -9.74925C386.372 -4.84381 385.634 -0.0468845 382.531 4.6415C382.053 5.11902 381.576 5.57476 381.098 6.05228C378.754 6.96391 376.301 8.85238 374.109 8.59192C369.334 8.04928 369.377 9.74223 369.442 13.8012C369.507 17.7298 369.268 19.6182 374.109 19.0756C376.323 18.8368 378.754 20.7252 381.098 21.6368C381.576 22.1143 382.075 22.5919 382.552 23.0912C385.851 28.0183 386.503 33.0974 382.704 38.0028C378.949 42.8648 373.87 43.6463 367.51 41.5626C368.813 48.1176 368.596 54.1082 362.518 57.885C357.873 60.7718 353.25 59.9905 348.822 57.1471C348.214 56.5393 347.628 55.9532 347.02 55.3455C344.676 51.8726 344.068 48.009 344.72 43.9718C338.056 43.2121 332.521 43.4075 333.194 52.2416C333.281 53.3052 332.109 54.4555 331.501 55.5625C331.132 56.0183 330.698 56.4741 330.264 56.9082ZM362.192 36.5702C358.372 34.2477 366.403 26.9546 357.873 26.9329C353.51 26.9112 352.512 28.409 352.534 32.4245C352.599 40.8679 359.783 32.8802 362.192 36.5702ZM316.937 36.6788C319.281 33.4664 327.811 41.0633 326.335 30.6664C325.163 22.3966 319.888 28.9083 317.002 26.7811C318.174 30.2106 316.915 33.0974 316.937 36.6788ZM362.475 -8.70743C352.382 -7.66556 352.62 -7.62211 352.338 -5.27792C351.34 2.86163 357.482 0.0833282 362.279 1.36395C360.847 -2.4128 361.954 -5.49501 362.475 -8.70743ZM316.85 -9.1415C317.414 -5.47327 317.761 -2.30427 317.197 1.23372C319.975 -1.26241 325.554 4.90196 326.509 -3.30272C327.659 -13.4392 319.107 -5.38645 316.85 -9.1415ZM335.582 13.2368C335.755 15.4073 334.127 18.4678 338.534 17.6213C340.769 17.1872 343.656 18.7718 343.265 14.1268C343.005 10.9795 342.853 9.7422 339.228 9.98096C336.515 10.1329 334.561 9.87244 335.582 13.2368Z" fill="white"/>
<path d="M382.596 23.0917C382.118 22.6142 381.619 22.1366 381.141 21.6373C378.906 16.4497 378.949 11.2404 381.141 6.05281C381.619 5.57529 382.096 5.11956 382.574 4.64204C384.267 4.12111 385.917 3.46991 387.653 3.12263C392.559 2.18929 396.791 3.3831 399.613 7.74591C402.196 11.7397 402.196 15.9288 399.634 19.9227C396.834 24.3072 392.602 25.501 387.696 24.5677C385.938 24.2638 384.289 23.6126 382.596 23.0917Z" fill="white"/>
<path d="M347.086 55.3458C347.693 55.9535 348.279 56.5613 348.887 57.1474C349.213 58.3629 349.538 59.5784 349.864 60.8156C351.231 66.0032 350.406 70.6265 345.805 73.8172C341.572 76.7474 337.036 76.6822 332.868 73.6435C328.354 70.3442 327.637 65.6993 329.135 60.5551C329.482 59.3396 329.873 58.124 330.242 56.9085C330.676 56.4527 331.11 56.0186 331.566 55.5628C336.71 53.3922 341.876 53.4574 347.086 55.3458Z" fill="white"/>
<path d="M297.727 21.8545C297.336 22.2452 296.924 22.6359 296.533 23.0266C290.325 25.0018 284.096 26.7817 279.473 20.0964C276.781 16.2111 276.716 11.9568 279.299 7.96294C283.705 1.12572 289.957 2.6452 296.229 4.53357C296.794 5.09792 297.358 5.66219 297.922 6.22653C299.941 11.4358 299.746 16.6452 297.727 21.8545Z" fill="white"/>
<path d="M401.002 47.6185C401.133 53.3705 395.945 58.5581 390.193 58.4495C384.745 58.341 379.861 53.479 379.753 48.0309C379.623 42.2573 384.788 37.0914 390.562 37.2216C396.01 37.3085 400.872 42.1487 401.002 47.6185Z" fill="white"/>
<path d="M288.611 58.3411C282.925 58.4062 277.802 53.1969 277.997 47.5318C278.171 42.1054 283.011 37.3519 288.438 37.2867C294.125 37.2216 299.225 42.4309 299.052 48.096C298.878 53.5224 294.038 58.2977 288.611 58.3411Z" fill="white"/>
<path d="M316.068 64.4186C316.285 70.1055 311.228 75.3582 305.498 75.3582C300.093 75.3582 295.166 70.6048 294.949 65.1784C294.732 59.4916 299.811 54.2388 305.519 54.2388C310.924 54.2388 315.851 58.9706 316.068 64.4186Z" fill="white"/>
<path d="M383.985 64.6572C384.072 70.3875 378.862 75.5317 373.132 75.3798C367.684 75.2278 362.865 70.3658 362.8 64.9177C362.713 59.1658 367.901 54.0433 373.653 54.1952C379.123 54.3471 383.92 59.2092 383.985 64.6572Z" fill="white"/>
<path d="M312.66 81.1534C313.507 75.1844 316.893 71.972 322.905 72.0371C328.657 72.1022 332.868 76.986 332.13 82.7596C331.371 88.7937 327.594 91.8325 321.647 91.3984C315.569 90.986 312.834 87.0356 312.66 81.1534Z" fill="white"/>
<path d="M281.296 30.7319C280.84 36.7226 277.802 40.3909 271.659 40.4343C265.581 40.4777 262.022 37.0482 261.957 30.949C261.891 24.8715 265.343 21.3335 271.442 21.225C277.563 21.1599 280.71 24.7412 281.296 30.7319Z" fill="white"/>
<path d="M366.295 81.6528C365.861 87.5784 362.822 91.3118 356.744 91.4855C350.732 91.6591 347.151 88.2947 346.63 82.2823C346.13 76.5086 350.667 71.7768 356.462 71.9721C362.54 72.2109 365.687 75.6621 366.295 81.6528Z" fill="white"/>
<path d="M271.941 -12.853C277.91 -12.115 281.383 -8.8158 281.144 -2.73826C280.905 3.36098 277.215 6.68192 271.181 6.48657C265.082 6.26951 261.761 2.57959 261.956 -3.47624C262.152 -9.61889 265.95 -12.5274 271.941 -12.853Z" fill="white"/>
<path d="M288.785 90.7036C283.445 90.0958 279.886 87.2959 279.777 81.9563C279.669 76.6168 283.033 73.1656 288.329 73.0354C293.669 72.9052 297.12 76.2695 297.272 81.5874C297.424 86.9269 293.929 89.8136 288.785 90.7036Z" fill="white"/>
<path d="M339.597 107.721C334.345 107.113 330.763 104.291 330.655 98.9302C330.546 93.5689 333.932 90.0743 339.25 89.9441C344.611 89.8138 348.084 93.1999 348.236 98.5395C348.388 103.944 344.893 106.853 339.597 107.721Z" fill="white"/>
<path d="M263.498 13.801C262.63 19.2925 259.721 22.722 254.381 22.5701C249.085 22.4182 245.743 18.9669 245.873 13.6708C246.003 8.37462 249.454 5.05372 254.772 5.16225C260.133 5.27078 262.803 8.89555 263.498 13.801Z" fill="white"/>
<path d="M271.464 55.8887C276.955 56.7352 280.384 59.6437 280.254 64.9833C280.124 70.2794 276.673 73.622 271.377 73.4918C266.102 73.3833 262.76 69.9322 262.847 64.6143C262.933 59.2531 266.558 56.5832 271.464 55.8887Z" fill="white"/>
<path d="M254.251 55.8879C249.128 55.3019 246.328 52.4584 246.611 47.2925C246.914 42.0615 250.17 39.5003 255.271 39.8476C260.068 40.1731 262.651 43.1469 262.564 47.9438C262.456 53.1965 259.352 55.6492 254.251 55.8879Z" fill="white"/>
<path d="M381.597 98.7347C380.99 104.248 378.081 107.07 372.893 106.788C367.619 106.484 365.014 103.184 365.362 98.0402C365.687 93.1998 368.704 90.5953 373.523 90.6604C378.862 90.7472 381.228 94.003 381.597 98.7347Z" fill="white"/>
<path d="M305.78 106.896C300.288 106.419 297.336 103.706 297.51 98.4746C297.662 93.2219 300.809 90.5304 305.975 90.7257C310.794 90.9211 313.485 93.7863 313.55 98.6266C313.615 103.944 310.49 106.419 305.78 106.896Z" fill="white"/>
<path d="M237.625 37.9376C233.284 37.4817 230.505 35.0941 230.614 30.6011C230.701 26.4988 233.349 23.8724 237.451 23.8507C241.944 23.829 244.679 26.5856 244.57 31.0787C244.505 35.181 241.836 37.46 237.625 37.9376Z" fill="white"/>
<path d="M237.407 -10.2051C241.314 -9.96632 244.158 -7.96936 244.548 -3.84532C244.961 0.647713 242.4 3.6214 237.972 3.86016C233.5 4.09892 230.679 1.36397 230.613 -3.12907C230.57 -7.23141 233.153 -9.57562 237.407 -10.2051Z" fill="white"/>
<path d="M329.743 115.557C329.287 119.855 326.987 122.807 322.537 122.828C318.109 122.85 315.331 120.028 315.353 115.579C315.353 111.498 318.022 108.807 322.038 108.59C326.487 108.351 328.983 111.107 329.743 115.557Z" fill="white"/>
<path d="M356.441 122.98C352.078 122.416 349.191 120.006 349.3 115.578C349.408 111.172 352.317 108.437 356.745 108.611C360.782 108.763 363.452 111.454 363.539 115.513C363.647 119.941 360.847 122.35 356.441 122.98Z" fill="white"/>
<path d="M254.815 75.3584C258.679 75.7925 260.958 77.8546 260.893 81.805C260.806 86.1895 258.201 88.3818 253.947 88.0779C250.018 87.7957 248 85.2561 248.217 81.3491C248.477 77.377 250.93 75.532 254.815 75.3584Z" fill="white"/>
<path d="M271.529 92.3315C275.414 92.6137 277.824 94.5673 277.867 98.5394C277.932 102.881 275.501 105.225 271.182 105.073C267.231 104.921 265.126 102.511 265.213 98.5827C265.3 94.6106 267.644 92.6354 271.529 92.3315Z" fill="white"/>
<path d="M237.147 58.7534C240.902 59.1658 243.311 60.9891 243.463 64.462C243.615 68.3038 241.228 70.7565 237.386 70.6697C233.935 70.6046 231.742 68.2605 231.721 64.7659C231.699 61.2062 234.152 59.4914 237.147 58.7534Z" fill="white"/>
<path d="M294.58 115.947C293.951 119.377 292.041 121.677 288.481 121.634C284.965 121.59 282.642 119.355 282.621 115.839C282.599 111.932 285.051 109.566 288.958 109.783C292.431 110 294.276 112.453 294.58 115.947Z" fill="white"/>
<path d="M378.06 132.096C377.951 135.2 376.584 137.002 373.958 137.241C370.962 137.523 368.965 135.938 368.857 132.856C368.748 129.796 370.571 128.081 373.632 128.124C376.367 128.168 377.582 130.013 378.06 132.096Z" fill="white"/>
<path d="M334.235 132.791C334.713 129.123 336.645 127.343 339.901 127.603C343.222 127.885 344.871 130.121 344.524 133.355C344.22 136.22 342.288 137.892 339.358 137.826C335.994 137.718 334.518 135.591 334.235 132.791Z" fill="white"/>
<path d="M310.099 132.66C309.774 135.547 308.233 137.349 305.216 137.218C302.611 137.088 300.983 135.417 300.983 132.791C300.983 129.795 302.785 128.059 305.78 128.189C308.406 128.276 309.774 130.012 310.099 132.66Z" fill="white"/>
<path d="M225.643 13.8879C225.426 17.0786 223.712 18.9452 220.347 18.8149C217.374 18.7064 215.681 16.9266 215.659 13.9746C215.637 10.6103 217.547 8.8087 220.89 8.91723C223.885 9.00405 225.405 10.8274 225.643 13.8879Z" fill="white"/>
<path d="M225.187 47.9222C224.775 50.5268 223.364 52.285 220.716 52.2633C217.677 52.2415 215.919 50.3314 216.201 47.3143C216.461 44.7531 218.263 43.1468 220.955 43.3422C223.559 43.5593 224.948 45.2958 225.187 47.9222Z" fill="white"/>
</g>
</g>
</svg>
