<svg width="60" height="60" viewBox="0 0 60 60" fill="none" xmlns="http://www.w3.org/2000/svg">
<rect width="60" height="60" rx="30" fill="#607D8A" fill-opacity="0.2"/>
<path d="M41.2875 33.1092L39.4965 31.5779C39.5812 31.0584 39.625 30.5279 39.625 29.9975C39.625 29.467 39.5812 28.9365 39.4965 28.417L41.2875 26.8857C41.4226 26.7701 41.5193 26.6161 41.5647 26.4441C41.6101 26.2722 41.6021 26.0905 41.5418 25.9232L41.5172 25.8521C41.0241 24.4741 40.2858 23.1966 39.3379 22.0814L39.2887 22.024C39.1737 21.8888 39.0204 21.7916 38.8491 21.7452C38.6777 21.6989 38.4964 21.7055 38.3289 21.7643L36.1058 22.5545C35.2855 21.8818 34.3695 21.3514 33.3797 20.9795L32.9504 18.6553C32.918 18.4804 32.8331 18.3195 32.7071 18.194C32.5811 18.0685 32.4199 17.9842 32.2449 17.9525L32.1711 17.9389C30.7465 17.6818 29.248 17.6818 27.8234 17.9389L27.7496 17.9525C27.5746 17.9842 27.4134 18.0685 27.2874 18.194C27.1613 18.3195 27.0765 18.4804 27.0441 18.6553L26.6121 20.9904C25.6301 21.3624 24.7157 21.8926 23.9051 22.56L21.6656 21.7643C21.4982 21.705 21.3167 21.6982 21.1452 21.7446C20.9738 21.791 20.8206 21.8884 20.7058 22.024L20.6566 22.0814C19.7098 23.1974 18.9716 24.4747 18.4773 25.8521L18.4527 25.9232C18.3297 26.265 18.4308 26.6479 18.707 26.8857L20.5199 28.4334C20.4351 28.9475 20.3941 29.4725 20.3941 29.9947C20.3941 30.5197 20.4351 31.0447 20.5199 31.5561L18.707 33.1037C18.5719 33.2194 18.4752 33.3734 18.4298 33.5453C18.3844 33.7172 18.3924 33.8989 18.4527 34.0662L18.4773 34.1373C18.9722 35.5154 19.7051 36.7869 20.6566 37.908L20.7058 37.9654C20.8208 38.1006 20.9741 38.1978 21.1454 38.2442C21.3168 38.2906 21.4981 38.2839 21.6656 38.2252L23.9051 37.4295C24.7199 38.0994 25.6304 38.6299 26.6121 38.999L27.0441 41.3342C27.0765 41.5091 27.1613 41.67 27.2874 41.7955C27.4134 41.921 27.5746 42.0052 27.7496 42.0369L27.8234 42.0506C29.2611 42.309 30.7334 42.309 32.1711 42.0506L32.2449 42.0369C32.4199 42.0052 32.5811 41.921 32.7071 41.7955C32.8331 41.67 32.918 41.5091 32.9504 41.3342L33.3797 39.01C34.3691 38.6391 35.2903 38.1069 36.1058 37.435L38.3289 38.2252C38.4963 38.2844 38.6778 38.2913 38.8493 38.2449C39.0207 38.1985 39.1739 38.101 39.2887 37.9654L39.3379 37.908C40.2894 36.7842 41.0222 35.5154 41.5172 34.1373L41.5418 34.0662C41.6648 33.7299 41.5637 33.3471 41.2875 33.1092ZM37.5551 28.7396C37.6234 29.1525 37.659 29.5764 37.659 30.0002C37.659 30.424 37.6234 30.8479 37.5551 31.2607L37.3746 32.3572L39.4172 34.1045C39.1075 34.8179 38.7167 35.4932 38.2523 36.117L35.7148 35.2174L34.8562 35.9229C34.2027 36.4588 33.4754 36.8799 32.6879 37.1752L31.6461 37.5662L31.1566 40.2186C30.3844 40.3061 29.6047 40.3061 28.8324 40.2186L28.3429 37.5607L27.3094 37.1643C26.5301 36.8689 25.8054 36.4479 25.1574 35.9146L24.2988 35.2064L21.7449 36.1143C21.2801 35.4881 20.8918 34.8127 20.5801 34.1018L22.6445 32.3381L22.4668 31.2443C22.4012 30.8369 22.3656 30.4158 22.3656 30.0002C22.3656 29.5818 22.3984 29.1635 22.4668 28.7561L22.6445 27.6623L20.5801 25.8986C20.889 25.185 21.2801 24.5123 21.7449 23.8861L24.2988 24.7939L25.1574 24.0857C25.8054 23.5525 26.5301 23.1314 27.3094 22.8361L28.3457 22.4451L28.8351 19.7873C29.6035 19.6998 30.3883 19.6998 31.1594 19.7873L31.6488 22.4396L32.6906 22.8307C33.4754 23.126 34.2055 23.5471 34.859 24.083L35.7176 24.7885L38.2551 23.8889C38.7199 24.515 39.1082 25.1904 39.4199 25.9014L37.3773 27.6486L37.5551 28.7396ZM30 24.9143C27.3422 24.9143 25.1875 27.0689 25.1875 29.7268C25.1875 32.3846 27.3422 34.5393 30 34.5393C32.6578 34.5393 34.8125 32.3846 34.8125 29.7268C34.8125 27.0689 32.6578 24.9143 30 24.9143ZM32.1656 31.8924C31.8816 32.1772 31.544 32.4031 31.1723 32.557C30.8007 32.711 30.4023 32.7899 30 32.7893C29.1824 32.7893 28.414 32.4693 27.8344 31.8924C27.5495 31.6083 27.3236 31.2708 27.1697 30.8991C27.0158 30.5275 26.9369 30.129 26.9375 29.7268C26.9375 28.9092 27.2574 28.1408 27.8344 27.5611C28.414 26.9814 29.1824 26.6643 30 26.6643C30.8176 26.6643 31.5859 26.9814 32.1656 27.5611C32.4505 27.8452 32.6764 28.1827 32.8303 28.5544C32.9842 28.9261 33.0631 29.3245 33.0625 29.7268C33.0625 30.5443 32.7426 31.3127 32.1656 31.8924Z" fill="#607D8A"/>
</svg>
