<svg width="60" height="61" viewBox="0 0 60 61" fill="none" xmlns="http://www.w3.org/2000/svg">
<rect y="0.5" width="60" height="60" rx="30" fill="#7A5548" fill-opacity="0.2"/>
<path d="M18.3334 30.5003H23M35.8334 30.5003H41.6667M19.5 39.8453L19.5117 39.8325M23 35.1787L23.0117 35.1658M26.5 39.8453L26.5117 39.8325M30 35.1787L30.0117 35.1658M33.5 39.8453L33.5117 39.8325M37 35.1787L37.0117 35.1658M40.5 39.8453L40.5117 39.8325M26.5 31.667C26.5 31.667 27.55 27.3025 30 24.667" stroke="#7A5548" stroke-width="3" stroke-linecap="round" stroke-linejoin="round"/>
<path d="M34.8837 19.1145L35.32 23.6528C35.6035 26.5963 33.3962 29.2178 30.4527 29.5001C27.5652 29.7778 24.9484 27.6673 24.6707 24.7786C24.5371 23.3918 24.9599 22.0087 25.846 20.9336C26.732 19.8585 28.0089 19.1794 29.3957 19.0456L34.2339 18.579C34.3118 18.5714 34.3905 18.5793 34.4653 18.6022C34.5402 18.6251 34.6098 18.6625 34.6702 18.7124C34.7306 18.7623 34.7805 18.8235 34.8171 18.8927C34.8538 18.9619 34.8764 19.0377 34.8837 19.1156V19.1145Z" stroke="#7A5548" stroke-width="3" stroke-linecap="round" stroke-linejoin="round"/>
</svg>
