<svg width="110" height="110" viewBox="0 0 110 110" fill="none" xmlns="http://www.w3.org/2000/svg">
<rect width="110" height="110" rx="55" fill="#7A5548" fill-opacity="0.2"/>
<path d="M35 55H43M65 55H75M37 71.02L37.02 70.998M43 63.02L43.02 62.998M49 71.02L49.02 70.998M55 63.02L55.02 62.998M61 71.02L61.02 70.998M67 63.02L67.02 62.998M73 71.02L73.02 70.998M49 57C49 57 50.8 49.518 55 45" stroke="#7A5548" stroke-width="3" stroke-linecap="round" stroke-linejoin="round"/>
<path d="M63.372 35.4823L64.12 43.2623C64.606 48.3083 60.822 52.8023 55.776 53.2863C50.826 53.7623 46.34 50.1443 45.864 45.1923C45.635 42.815 46.3597 40.444 47.8787 38.6009C49.3978 36.7578 51.5867 35.5936 53.964 35.3643L62.258 34.5643C62.3916 34.5514 62.5265 34.5649 62.6548 34.6042C62.7832 34.6434 62.9025 34.7076 63.006 34.7931C63.1095 34.8786 63.1951 34.9836 63.2579 35.1022C63.3207 35.2209 63.3595 35.3507 63.372 35.4843V35.4823Z" stroke="#7A5548" stroke-width="3" stroke-linecap="round" stroke-linejoin="round"/>
</svg>
