<svg width="40" height="49" viewBox="0 0 40 49" fill="none" xmlns="http://www.w3.org/2000/svg">
<rect x="3" y="2" width="35" height="35" rx="17.5" fill="#E3D4CF"/>
<path d="M11.75 19.5H15.25M24.875 19.5H29.25M12.625 26.5088L12.6337 26.4991M15.25 23.0088L15.2588 22.9991M17.875 26.5088L17.8838 26.4991M20.5 23.0088L20.5088 22.9991M23.125 26.5088L23.1338 26.4991M25.75 23.0088L25.7588 22.9991M28.375 26.5088L28.3838 26.4991M17.875 20.375C17.875 20.375 18.6625 17.1016 20.5 15.125" stroke="#7A5548" stroke-width="3" stroke-linecap="round" stroke-linejoin="round"/>
<path d="M24.1628 10.9613L24.49 14.3651C24.7027 16.5727 23.0472 18.5388 20.8395 18.7506C18.6739 18.9588 16.7113 17.376 16.503 15.2095C16.4028 14.1693 16.7199 13.132 17.3845 12.3257C18.049 11.5193 19.0067 11.01 20.0468 10.9097L23.6754 10.5597C23.7339 10.554 23.7928 10.56 23.849 10.5771C23.9052 10.5943 23.9574 10.6224 24.0026 10.6598C24.0479 10.6972 24.0854 10.7431 24.1129 10.795C24.1403 10.8469 24.1573 10.9037 24.1628 10.9622V10.9613Z" stroke="#7A5548" stroke-width="3" stroke-linecap="round" stroke-linejoin="round"/>
<circle cx="20" cy="20" r="18.5" stroke="#7A5548" stroke-width="3"/>
<path d="M20 49L15.3812 40.3043L13 37L27 37L20 49Z" fill="#7A5548"/>
</svg>
