<svg width="186" height="181" viewBox="0 0 186 181" fill="none" xmlns="http://www.w3.org/2000/svg">
<circle cx="95.5002" cy="91" r="70.5" fill="url(#paint0_linear_1707_2841)"/>
<circle cx="178.467" cy="28" r="7.5" fill="#7CA6FE"/>
<circle cx="20.0334" cy="10.5" r="10" fill="#7CA6FE"/>
<circle cx="10.0334" cy="133.5" r="5" fill="#7CA6FE"/>
<circle cx="165.533" cy="161" r="2.5" fill="#7CA6FE"/>
<path fill-rule="evenodd" clip-rule="evenodd" d="M84.8548 66.4172H106.169C114.502 66.4172 120.083 72.2681 120.083 80.9706V101.058C120.083 109.733 114.502 115.584 106.169 115.584H84.8548C76.5211 115.584 70.9161 109.733 70.9161 101.058V80.9706C70.9161 72.2681 76.5211 66.4172 84.8548 66.4172ZM94.098 98.351L105.775 86.6739C106.611 85.838 106.611 84.486 105.775 83.6255C104.939 82.7897 103.563 82.7897 102.727 83.6255L92.5739 93.7785L88.2718 89.4764C87.4359 88.6405 86.0593 88.6405 85.2234 89.4764C84.3876 90.3122 84.3876 91.6643 85.2234 92.5247L91.0743 98.351C91.4922 98.7689 92.033 98.9655 92.5739 98.9655C93.1393 98.9655 93.6801 98.7689 94.098 98.351Z" fill="white"/>
<circle cx="106.533" cy="5" r="2.5" fill="#7CA6FE"/>
<circle cx="62.5334" cy="177" r="3.5" fill="#7CA6FE"/>
<circle cx="122.033" cy="171.5" r="1" fill="#7CA6FE"/>
<circle cx="170.533" cy="111" r="2.5" fill="#7CA6FE"/>
<circle cx="1.03345" cy="75.5" r="1" fill="#7CA6FE"/>
<defs>
<linearGradient id="paint0_linear_1707_2841" x1="166" y1="161.5" x2="-1.7771" y2="112.855" gradientUnits="userSpaceOnUse">
<stop stop-color="#246BFD"/>
<stop offset="1" stop-color="#6F9EFF"/>
</linearGradient>
</defs>
</svg>
