<svg width="40" height="50" viewBox="0 0 40 50" fill="none" xmlns="http://www.w3.org/2000/svg">
<path d="M20 50L15.3812 41.3043L13 38L27 38L20 50Z" fill="#4AAF57"/>
<rect x="3" y="2" width="35" height="35" rx="17.5" fill="#C9E8CD"/>
<g clip-path="url(#clip0_3417_15222)">
<path d="M20.5 30.0002V18.8002M20.5 19.5002V23.7002M20.5 19.5002C20.5 18.015 19.91 16.5906 18.8597 15.5404C17.8095 14.4902 16.3852 13.9002 14.9 13.9002H10.7V18.1002C10.7 19.5854 11.2899 21.0098 12.3402 22.06C13.3904 23.1102 14.8147 23.7002 16.3 23.7002H20.5M20.5 30.0002L26.1 24.4002M20.5 34.2002L14.9 28.6002M20.5 19.5002H24.7C26.1852 19.5002 27.6095 18.9102 28.6597 17.86C29.71 16.8098 30.3 15.3854 30.3 13.9002V9.7002H26.1C24.6147 9.7002 23.1904 10.2902 22.1402 11.3404C21.0899 12.3906 20.5 13.815 20.5 15.3002V19.5002Z" stroke="#4AAF57" stroke-width="3.2"/>
</g>
<circle cx="20" cy="20" r="18.5" stroke="#4AAF57" stroke-width="3"/>
<defs>
<clipPath id="clip0_3417_15222">
<rect width="21" height="21" fill="white" transform="translate(10 9)"/>
</clipPath>
</defs>
</svg>
