<svg width="60" height="61" viewBox="0 0 60 61" fill="none" xmlns="http://www.w3.org/2000/svg">
<rect y="0.5" width="60" height="60" rx="30" fill="#4AAF57" fill-opacity="0.2"/>
<g clip-path="url(#clip0_2062_5134)">
<path d="M30 44.5003V29.5669M30 30.5003V36.1003M30 30.5003C30 28.52 29.2134 26.6208 27.8131 25.2205C26.4128 23.8203 24.5136 23.0336 22.5333 23.0336H16.9333V28.6336C16.9333 30.6139 17.72 32.5131 19.1203 33.9133C20.5206 35.3136 22.4197 36.1003 24.4 36.1003H30M30 44.5003L37.4667 37.0336M30 50.1003L22.5333 42.6336M30 30.5003H35.6C37.5803 30.5003 39.4795 29.7136 40.8797 28.3133C42.28 26.9131 43.0667 25.0139 43.0667 23.0336V17.4336H37.4667C35.4864 17.4336 33.5872 18.2203 32.187 19.6205C30.7867 21.0208 30 22.92 30 24.9003V30.5003Z" stroke="#4AAF57" stroke-width="3.2"/>
</g>
<defs>
<clipPath id="clip0_2062_5134">
<rect width="28" height="28" fill="white" transform="translate(16 16.5)"/>
</clipPath>
</defs>
</svg>
