<svg width="48" height="48" viewBox="0 0 48 48" fill="none" xmlns="http://www.w3.org/2000/svg">
<rect width="48" height="48" rx="24" fill="#673AB3" fill-opacity="0.2"/>
<path fill-rule="evenodd" clip-rule="evenodd" d="M10 18.75C10 17.8217 10.3687 16.9315 11.0251 16.2751C11.6815 15.6187 12.5717 15.25 13.5 15.25H26.625C27.4739 15.2499 28.2939 15.5583 28.9323 16.1179C29.5707 16.6774 29.984 17.4499 30.0952 18.2915L35.5377 15.873C35.8041 15.7543 36.096 15.7041 36.3867 15.7268C36.6775 15.7496 36.9579 15.8447 37.2026 16.0035C37.4472 16.1622 37.6483 16.3796 37.7876 16.6359C37.9269 16.8921 37.9999 17.1791 38 17.4708V30.5293C37.9997 30.8207 37.9267 31.1074 37.7876 31.3634C37.6484 31.6195 37.4475 31.8367 37.2031 31.9954C36.9587 32.1541 36.6785 32.2493 36.388 32.2723C36.0975 32.2952 35.8058 32.2453 35.5395 32.127L30.0952 29.7085C29.984 30.5501 29.5707 31.3226 28.9323 31.8821C28.2939 32.4417 27.4739 32.7501 26.625 32.75H13.5C12.5717 32.75 11.6815 32.3813 11.0251 31.7249C10.3687 31.0685 10 30.1783 10 29.25V18.75ZM30.125 27.8063L36.25 30.5293V17.4708L30.125 20.1937V27.8063ZM13.5 17C13.0359 17 12.5908 17.1844 12.2626 17.5126C11.9344 17.8408 11.75 18.2859 11.75 18.75V29.25C11.75 29.7141 11.9344 30.1592 12.2626 30.4874C12.5908 30.8156 13.0359 31 13.5 31H26.625C27.0891 31 27.5342 30.8156 27.8624 30.4874C28.1906 30.1592 28.375 29.7141 28.375 29.25V18.75C28.375 18.2859 28.1906 17.8408 27.8624 17.5126C27.5342 17.1844 27.0891 17 26.625 17H13.5Z" fill="#673AB3"/>
</svg>
