<svg width="110" height="110" viewBox="0 0 110 110" fill="none" xmlns="http://www.w3.org/2000/svg">
<rect width="110" height="110" rx="55" fill="#673AB3" fill-opacity="0.2"/>
<path fill-rule="evenodd" clip-rule="evenodd" d="M31 46C31 44.4087 31.6321 42.8826 32.7574 41.7574C33.8826 40.6321 35.4087 40 37 40H59.5C60.9553 39.9998 62.361 40.5286 63.4554 41.4878C64.5499 42.447 65.2584 43.7713 65.449 45.214L74.779 41.068C75.2357 40.8645 75.736 40.7784 76.2344 40.8175C76.7328 40.8565 77.2136 41.0195 77.633 41.2917C78.0524 41.5638 78.3972 41.9365 78.6359 42.3758C78.8746 42.8151 78.9998 43.307 79 43.807V66.193C78.9996 66.6926 78.8744 67.1841 78.6358 67.6231C78.3972 68.062 78.0528 68.4344 77.6338 68.7064C77.2148 68.9785 76.7346 69.1417 76.2365 69.181C75.7385 69.2204 75.2385 69.1348 74.782 68.932L65.449 64.786C65.2584 66.2287 64.5499 67.553 63.4554 68.5122C62.361 69.4714 60.9553 70.0002 59.5 70H37C35.4087 70 33.8826 69.3679 32.7574 68.2426C31.6321 67.1174 31 65.5913 31 64V46ZM65.5 61.525L76 66.193V43.807L65.5 48.475V61.525ZM37 43C36.2044 43 35.4413 43.3161 34.8787 43.8787C34.3161 44.4413 34 45.2044 34 46V64C34 64.7957 34.3161 65.5587 34.8787 66.1213C35.4413 66.6839 36.2044 67 37 67H59.5C60.2957 67 61.0587 66.6839 61.6213 66.1213C62.1839 65.5587 62.5 64.7957 62.5 64V46C62.5 45.2044 62.1839 44.4413 61.6213 43.8787C61.0587 43.3161 60.2957 43 59.5 43H37Z" fill="#673AB3"/>
</svg>
