<svg width="186" height="180" viewBox="0 0 186 180" fill="none" xmlns="http://www.w3.org/2000/svg">
<circle cx="95.5002" cy="90.5" r="70.5" fill="url(#paint0_linear_2090_19233)"/>
<circle cx="178.467" cy="27.5" r="7.5" fill="#7CA6FE"/>
<circle cx="20.0334" cy="10" r="10" fill="#7CA6FE"/>
<circle cx="10.0334" cy="133" r="5" fill="#7CA6FE"/>
<circle cx="165.533" cy="160.5" r="2.5" fill="#7CA6FE"/>
<path fill-rule="evenodd" clip-rule="evenodd" d="M84.8554 65.9141H106.169C114.503 65.9141 120.083 71.7649 120.083 80.4674V100.554C120.083 109.232 114.503 115.081 106.169 115.081H84.8554C76.5217 115.081 70.9167 109.232 70.9167 100.554V80.4674C70.9167 71.7649 76.5217 65.9141 84.8554 65.9141ZM95.4754 83.2723C94.3199 83.2723 93.3612 82.3111 93.3612 81.1335C93.3612 79.9289 94.3199 78.9702 95.5245 78.9702C96.7045 78.9702 97.6633 79.9289 97.6633 81.1335C97.6633 82.3111 96.7045 83.2723 95.4754 83.2723ZM97.6387 99.792C97.6387 100.972 96.68 101.931 95.4754 101.931C94.2954 101.931 93.3366 100.972 93.3366 99.792V88.9262C93.3366 87.7437 94.2954 86.7628 95.4754 86.7628C96.68 86.7628 97.6387 87.7437 97.6387 88.9262V99.792Z" fill="white"/>
<circle cx="106.533" cy="4.5" r="2.5" fill="#7CA6FE"/>
<circle cx="62.5334" cy="176.5" r="3.5" fill="#7CA6FE"/>
<circle cx="122.033" cy="171" r="1" fill="#7CA6FE"/>
<circle cx="170.533" cy="110.5" r="2.5" fill="#7CA6FE"/>
<circle cx="1.03345" cy="75" r="1" fill="#7CA6FE"/>
<defs>
<linearGradient id="paint0_linear_2090_19233" x1="166" y1="161" x2="-1.7771" y2="112.355" gradientUnits="userSpaceOnUse">
<stop stop-color="#246BFD"/>
<stop offset="1" stop-color="#6F9EFF"/>
</linearGradient>
</defs>
</svg>
