<svg width="40" height="50" viewBox="0 0 40 50" fill="none" xmlns="http://www.w3.org/2000/svg">
<rect x="3" y="2" width="35" height="35" rx="17.5" fill="#B7DEFA"/>
<path d="M20.5 10.75C15.8362 14.7313 13.5 18.17 13.5 21.075C13.5 25.4325 16.825 28.25 20.5 28.25C24.175 28.25 27.5 25.4325 27.5 21.075C27.5 18.17 25.1637 14.7313 20.5 10.75ZM16.8512 21.25C17.175 21.25 17.4375 21.4775 17.4987 21.7925C17.8575 23.735 19.4937 24.4 20.6837 24.3037C21.06 24.2862 21.375 24.5837 21.375 24.96C21.375 25.31 21.095 25.5987 20.745 25.6162C18.8812 25.73 16.7025 24.6625 16.2037 22.0112C16.1885 21.9174 16.1939 21.8214 16.2194 21.7299C16.245 21.6384 16.2901 21.5535 16.3517 21.4811C16.4132 21.4087 16.4898 21.3505 16.5761 21.3106C16.6623 21.2707 16.7562 21.25 16.8512 21.25V21.25Z" fill="#1A96F0"/>
<path d="M20 50L15.3812 41.3043L13 38L27 38L20 50Z" fill="#1A96F0"/>
<circle cx="20" cy="20" r="18.5" stroke="#1A96F0" stroke-width="3"/>
</svg>
