<svg width="48" height="48" viewBox="0 0 48 48" fill="none" xmlns="http://www.w3.org/2000/svg">
<rect width="48" height="48" rx="24" fill="#1A96F0" fill-opacity="0.12"/>
<path d="M24 12.333C17.7817 17.6413 14.6667 22.2263 14.6667 26.0997C14.6667 31.9097 19.1 35.6663 24 35.6663C28.9 35.6663 33.3334 31.9097 33.3334 26.0997C33.3334 22.2263 30.2184 17.6413 24 12.333ZM19.135 26.333C19.5667 26.333 19.9167 26.6363 19.9984 27.0563C20.4767 29.6463 22.6584 30.533 24.245 30.4047C24.7467 30.3813 25.1667 30.778 25.1667 31.2797C25.1667 31.7463 24.7934 32.1313 24.3267 32.1547C21.8417 32.3063 18.9367 30.883 18.2717 27.348C18.2514 27.2229 18.2585 27.0949 18.2926 26.9729C18.3267 26.8508 18.3868 26.7376 18.4689 26.6411C18.551 26.5446 18.6531 26.467 18.7681 26.4138C18.8831 26.3606 19.0083 26.3331 19.135 26.333Z" fill="#1A96F0"/>
</svg>
