<svg width="60" height="61" viewBox="0 0 60 61" fill="none" xmlns="http://www.w3.org/2000/svg">
<rect y="0.5" width="60" height="60" rx="30" fill="#1A96F0" fill-opacity="0.12"/>
<path d="M30 18.833C23.7816 24.1413 20.6666 28.7263 20.6666 32.5997C20.6666 38.4097 25.1 42.1663 30 42.1663C34.9 42.1663 39.3333 38.4097 39.3333 32.5997C39.3333 28.7263 36.2183 24.1413 30 18.833ZM25.135 32.833C25.5666 32.833 25.9166 33.1363 25.9983 33.5563C26.4766 36.1463 28.6583 37.033 30.245 36.9047C30.7466 36.8813 31.1666 37.278 31.1666 37.7797C31.1666 38.2463 30.7933 38.6313 30.3266 38.6547C27.8416 38.8063 24.9366 37.383 24.2716 33.848C24.2514 33.7229 24.2585 33.5949 24.2925 33.4729C24.3266 33.3508 24.3867 33.2376 24.4688 33.1411C24.5509 33.0446 24.653 32.967 24.768 32.9138C24.8831 32.8606 25.0082 32.8331 25.135 32.833Z" fill="#1A96F0"/>
</svg>
